<svg version="1.1" xmlns="http://www.w3.org/2000/svg" width="300" height="300"><defs><clipPath id="vdUfgRoBTTWS"><path fill="none" stroke="none" d="M 0.5 0.5 L 300.5 0.5 L 300.5 300.5 L 0.5 300.5 L 0.5 0.5 Z M 49.5 5.5 L 270.5 5.5 L 270.5 273.5 L 49.5 273.5 L 49.5 5.5 Z" clip-rule="evenodd"/></clipPath><clipPath id="yaSwGPGldDuO"><path fill="none" stroke="none" d="M 49.5 5.5 L 270.5 5.5 L 270.5 273.5 L 49.5 273.5 L 49.5 5.5 Z"/></clipPath><clipPath id="CROaVNJBZPPp"><path fill="none" stroke="none" d="M 49.5 5.5 L 270.5 5.5 L 270.5 273.5 L 49.5 273.5 L 49.5 5.5 Z"/></clipPath><clipPath id="SeopVTGTViNg"><path fill="none" stroke="none" d="M 49.5 5.5 L 270.5 5.5 L 270.5 273.5 L 49.5 273.5 L 49.5 5.5 Z"/></clipPath><clipPath id="bqVkWeCXbCbf"><path fill="none" stroke="none" d="M 49.5 5.5 L 270.5 5.5 L 270.5 273.5 L 49.5 273.5 L 49.5 5.5 Z"/></clipPath><clipPath id="IoRJRthSPLeL"><path fill="none" stroke="none" d="M 49.5 5.5 L 270.5 5.5 L 270.5 273.5 L 49.5 273.5 L 49.5 5.5 Z"/></clipPath></defs><path fill="rgb(255,255,255)" stroke="none" paint-order="stroke" d="M 0.5 0.5 L 300.5 0.5 L 300.5 300.5 L 0.5 300.5 L 0.5 0.5 Z" fill-opacity="1" clip-path="url(#vdUfgRoBTTWS)"/><path fill="rgb(255,255,255)" stroke="none" paint-order="stroke" d="M 49.5 5.5 L 270.5 5.5 L 270.5 273.5 L 49.5 273.5 L 49.5 5.5 Z" fill-opacity="1"/><path fill="none" stroke="rgb(229,229,229)" paint-order="fill" d="M 49.5 5.5 L 270.5 5.5 L 270.5 273.5 L 49.5 273.5 L 49.5 5.5 Z" stroke-opacity="1" stroke-linejoin="bevel" stroke-miterlimit="10"/><path fill="none" stroke="rgb(229,229,229)" paint-order="fill" d="M 86.5 273.5 L 86.5 5.5 M 160.5 273.5 L 160.5 5.5 M 233.5 273.5 L 233.5 5.5" stroke-opacity="1" stroke-linejoin="bevel" stroke-miterlimit="10" clip-path="url(#yaSwGPGldDuO)"/><path fill="none" stroke="rgb(229,229,229)" paint-order="fill" d="M 49.5 261.5 L 270.5 261.5 M 49.5 215.5 L 270.5 215.5 M 49.5 168.5 L 270.5 168.5 M 49.5 122.5 L 270.5 122.5 M 49.5 76.5 L 270.5 76.5 M 49.5 30.5 L 270.5 30.5" stroke-opacity="1" stroke-linejoin="bevel" stroke-miterlimit="10" clip-path="url(#CROaVNJBZPPp)"/><path fill="rgb(248,169,49)" stroke="rgb(248,169,49)" paint-order="fill" d="M 53.18333435058594 17.68181800842285 L 119.48333740234375 17.68181800842285 L 119.48333740234375 261.31817626953125 L 53.18333435058594 261.31817626953125 L 53.18333435058594 17.68181800842285 Z" fill-opacity="1" clip-path="url(#SeopVTGTViNg)" stroke-opacity="1" stroke-linejoin="bevel" stroke-miterlimit="10"/><path fill="rgb(192,204,205)" stroke="rgb(192,204,205)" paint-order="fill" d="M 126.8499984741211 89.68395233154297 L 193.14999389648438 89.68395233154297 L 193.14999389648438 261.31817626953125 L 126.8499984741211 261.31817626953125 L 126.8499984741211 89.68395233154297 Z" fill-opacity="1" clip-path="url(#SeopVTGTViNg)" stroke-opacity="1" stroke-linejoin="bevel" stroke-miterlimit="10"/><path fill="rgb(67,186,195)" stroke="rgb(67,186,195)" paint-order="fill" d="M 200.51666259765625 203.4735565185547 L 266.8166809082031 203.4735565185547 L 266.8166809082031 261.31817626953125 L 200.51666259765625 261.31817626953125 L 200.51666259765625 203.4735565185547 Z" fill-opacity="1" clip-path="url(#SeopVTGTViNg)" stroke-opacity="1" stroke-linejoin="bevel" stroke-miterlimit="10"/><path fill="none" stroke="rgb(0,0,0)" paint-order="fill" d="M 49.5 273.5 L 270.5 273.5" stroke-opacity="1" stroke-linejoin="bevel" stroke-miterlimit="10"/><path fill="none" stroke="rgb(0,0,0)" paint-order="fill" d="M 86.5 279.5 L 86.5 271.5 M 160.5 279.5 L 160.5 271.5 M 233.5 279.5 L 233.5 271.5" stroke-opacity="1" stroke-linejoin="bevel" stroke-miterlimit="10"/><path fill="none" stroke="rgb(0,0,0)" paint-order="fill" d="" stroke-opacity="1" stroke-linejoin="bevel" stroke-miterlimit="10"/><text fill="rgb(68,68,68)" stroke="none" font-family="helvetica" font-size="11px" font-style="normal" font-weight="normal" text-decoration="normal" x="66.33333587646484" y="294" text-anchor="start" dominant-baseline="alphabetic" transform="matrix(1, 0, 0, 1, 0.5, 0.5)" fill-opacity="1">bicycle</text><text fill="none" stroke="rgb(0,0,0)" font-family="helvetica" font-size="11px" font-style="normal" font-weight="normal" text-decoration="normal" x="66.33333587646484" y="294" text-anchor="start" dominant-baseline="alphabetic" transform="matrix(1, 0, 0, 1, 0.5, 0.5)" stroke-opacity="0" stroke-linejoin="bevel" stroke-miterlimit="10">bicycle</text><text fill="rgb(68,68,68)" stroke="none" font-family="helvetica" font-size="11px" font-style="normal" font-weight="normal" text-decoration="normal" x="140" y="294" text-anchor="start" dominant-baseline="alphabetic" transform="matrix(1, 0, 0, 1, 0.5, 0.5)" fill-opacity="1">moped</text><text fill="none" stroke="rgb(0,0,0)" font-family="helvetica" font-size="11px" font-style="normal" font-weight="normal" text-decoration="normal" x="140" y="294" text-anchor="start" dominant-baseline="alphabetic" transform="matrix(1, 0, 0, 1, 0.5, 0.5)" stroke-opacity="0" stroke-linejoin="bevel" stroke-miterlimit="10">moped</text><text fill="rgb(68,68,68)" stroke="none" font-family="helvetica" font-size="11px" font-style="normal" font-weight="normal" text-decoration="normal" x="194.6666717529297" y="294" text-anchor="start" dominant-baseline="alphabetic" transform="matrix(1, 0, 0, 1, 0.5, 0.5)" fill-opacity="1">cargo_bicycle</text><text fill="none" stroke="rgb(0,0,0)" font-family="helvetica" font-size="11px" font-style="normal" font-weight="normal" text-decoration="normal" x="194.6666717529297" y="294" text-anchor="start" dominant-baseline="alphabetic" transform="matrix(1, 0, 0, 1, 0.5, 0.5)" stroke-opacity="0" stroke-linejoin="bevel" stroke-miterlimit="10">cargo_bicycle</text><path fill="none" stroke="rgb(0,0,0)" paint-order="fill" d="M 49.5 273.5 L 49.5 5.5" stroke-opacity="1" stroke-linejoin="bevel" stroke-miterlimit="10"/><path fill="none" stroke="rgb(0,0,0)" paint-order="fill" d="M 43.5 261.5 L 51.5 261.5 M 43.5 215.5 L 51.5 215.5 M 43.5 168.5 L 51.5 168.5 M 43.5 122.5 L 51.5 122.5 M 43.5 76.5 L 51.5 76.5 M 43.5 30.5 L 51.5 30.5" stroke-opacity="1" stroke-linejoin="bevel" stroke-miterlimit="10"/><path fill="none" stroke="rgb(0,0,0)" paint-order="fill" d="M 45.5 270.5 L 49.5 270.5 M 45.5 261.5 L 49.5 261.5 M 45.5 252.5 L 49.5 252.5 M 45.5 242.5 L 49.5 242.5 M 45.5 233.5 L 49.5 233.5 M 45.5 224.5 L 49.5 224.5 M 45.5 215.5 L 49.5 215.5 M 45.5 205.5 L 49.5 205.5 M 45.5 196.5 L 49.5 196.5 M 45.5 187.5 L 49.5 187.5 M 45.5 178.5 L 49.5 178.5 M 45.5 168.5 L 49.5 168.5 M 45.5 159.5 L 49.5 159.5 M 45.5 150.5 L 49.5 150.5 M 45.5 141.5 L 49.5 141.5 M 45.5 132.5 L 49.5 132.5 M 45.5 122.5 L 49.5 122.5 M 45.5 113.5 L 49.5 113.5 M 45.5 104.5 L 49.5 104.5 M 45.5 95.5 L 49.5 95.5 M 45.5 85.5 L 49.5 85.5 M 45.5 76.5 L 49.5 76.5 M 45.5 67.5 L 49.5 67.5 M 45.5 58.5 L 49.5 58.5 M 45.5 48.5 L 49.5 48.5 M 45.5 39.5 L 49.5 39.5 M 45.5 30.5 L 49.5 30.5 M 45.5 21.5 L 49.5 21.5 M 45.5 12.5 L 49.5 12.5" stroke-opacity="1" stroke-linejoin="bevel" stroke-miterlimit="10"/><text fill="rgb(68,68,68)" stroke="none" font-family="helvetica" font-size="11px" font-style="normal" font-weight="normal" text-decoration="normal" x="31" y="264.81817626953125" text-anchor="start" dominant-baseline="alphabetic" transform="matrix(1, 0, 0, 1, 0.5, 0.5)" fill-opacity="1">0</text><text fill="none" stroke="rgb(0,0,0)" font-family="helvetica" font-size="11px" font-style="normal" font-weight="normal" text-decoration="normal" x="31" y="264.81817626953125" text-anchor="start" dominant-baseline="alphabetic" transform="matrix(1, 0, 0, 1, 0.5, 0.5)" stroke-opacity="0" stroke-linejoin="bevel" stroke-miterlimit="10">0</text><text fill="rgb(68,68,68)" stroke="none" font-family="helvetica" font-size="11px" font-style="normal" font-weight="normal" text-decoration="normal" x="10" y="218.65260314941406" text-anchor="start" dominant-baseline="alphabetic" transform="matrix(1, 0, 0, 1, 0.5, 0.5)" fill-opacity="1">5000</text><text fill="none" stroke="rgb(0,0,0)" font-family="helvetica" font-size="11px" font-style="normal" font-weight="normal" text-decoration="normal" x="10" y="218.65260314941406" text-anchor="start" dominant-baseline="alphabetic" transform="matrix(1, 0, 0, 1, 0.5, 0.5)" stroke-opacity="0" stroke-linejoin="bevel" stroke-miterlimit="10">5000</text><text fill="rgb(68,68,68)" stroke="none" font-family="helvetica" font-size="11px" font-style="normal" font-weight="normal" text-decoration="normal" x="3" y="172.48703002929688" text-anchor="start" dominant-baseline="alphabetic" transform="matrix(1, 0, 0, 1, 0.5, 0.5)" fill-opacity="1">10000</text><text fill="none" stroke="rgb(0,0,0)" font-family="helvetica" font-size="11px" font-style="normal" font-weight="normal" text-decoration="normal" x="3" y="172.48703002929688" text-anchor="start" dominant-baseline="alphabetic" transform="matrix(1, 0, 0, 1, 0.5, 0.5)" stroke-opacity="0" stroke-linejoin="bevel" stroke-miterlimit="10">10000</text><text fill="rgb(68,68,68)" stroke="none" font-family="helvetica" font-size="11px" font-style="normal" font-weight="normal" text-decoration="normal" x="3" y="126.32146453857422" text-anchor="start" dominant-baseline="alphabetic" transform="matrix(1, 0, 0, 1, 0.5, 0.5)" fill-opacity="1">15000</text><text fill="none" stroke="rgb(0,0,0)" font-family="helvetica" font-size="11px" font-style="normal" font-weight="normal" text-decoration="normal" x="3" y="126.32146453857422" text-anchor="start" dominant-baseline="alphabetic" transform="matrix(1, 0, 0, 1, 0.5, 0.5)" stroke-opacity="0" stroke-linejoin="bevel" stroke-miterlimit="10">15000</text><text fill="rgb(68,68,68)" stroke="none" font-family="helvetica" font-size="11px" font-style="normal" font-weight="normal" text-decoration="normal" x="3" y="80.15589141845703" text-anchor="start" dominant-baseline="alphabetic" transform="matrix(1, 0, 0, 1, 0.5, 0.5)" fill-opacity="1">20000</text><text fill="none" stroke="rgb(0,0,0)" font-family="helvetica" font-size="11px" font-style="normal" font-weight="normal" text-decoration="normal" x="3" y="80.15589141845703" text-anchor="start" dominant-baseline="alphabetic" transform="matrix(1, 0, 0, 1, 0.5, 0.5)" stroke-opacity="0" stroke-linejoin="bevel" stroke-miterlimit="10">20000</text><text fill="rgb(68,68,68)" stroke="none" font-family="helvetica" font-size="11px" font-style="normal" font-weight="normal" text-decoration="normal" x="3" y="33.990318298339844" text-anchor="start" dominant-baseline="alphabetic" transform="matrix(1, 0, 0, 1, 0.5, 0.5)" fill-opacity="1">25000</text><text fill="none" stroke="rgb(0,0,0)" font-family="helvetica" font-size="11px" font-style="normal" font-weight="normal" text-decoration="normal" x="3" y="33.990318298339844" text-anchor="start" dominant-baseline="alphabetic" transform="matrix(1, 0, 0, 1, 0.5, 0.5)" stroke-opacity="0" stroke-linejoin="bevel" stroke-miterlimit="10">25000</text><path fill="rgb(255,255,255)" stroke="rgb(229,229,229)" paint-order="fill" d="M 126.5 15.5 L 260.5 15.5 L 260.5 101.5 L 126.5 101.5 L 126.5 15.5 Z" fill-opacity="0.9490196078431372" clip-path="url(#bqVkWeCXbCbf)" stroke-opacity="0.5019607843137255" stroke-linejoin="bevel" stroke-miterlimit="10"/><path fill="rgb(248,169,49)" stroke="rgb(248,169,49)" paint-order="fill" d="M 138.5 27.5 L 154.5 27.5 L 154.5 43.5 L 138.5 43.5 L 138.5 27.5 Z" fill-opacity="1" clip-path="url(#bqVkWeCXbCbf)" stroke-opacity="1" stroke-linejoin="bevel" stroke-miterlimit="10"/><g clip-path="url(#bqVkWeCXbCbf)"><text fill="rgb(68,68,68)" stroke="none" font-family="helvetica" font-size="13px" font-style="normal" font-weight="normal" text-decoration="normal" x="0" y="4.5" text-anchor="start" dominant-baseline="alphabetic" transform="matrix(1, 0, 0, 1, 161.5, 35.5)" fill-opacity="1">bicycle</text></g><g clip-path="url(#bqVkWeCXbCbf)"><text fill="none" stroke="rgb(0,0,0)" font-family="helvetica" font-size="13px" font-style="normal" font-weight="normal" text-decoration="normal" x="0" y="4.5" text-anchor="start" dominant-baseline="alphabetic" transform="matrix(1, 0, 0, 1, 161.5, 35.5)" stroke-opacity="0" stroke-linejoin="bevel" stroke-miterlimit="10">bicycle</text></g><path fill="rgb(192,204,205)" stroke="rgb(192,204,205)" paint-order="fill" d="M 138.5 50.5 L 154.5 50.5 L 154.5 66.5 L 138.5 66.5 L 138.5 50.5 Z" fill-opacity="1" clip-path="url(#bqVkWeCXbCbf)" stroke-opacity="1" stroke-linejoin="bevel" stroke-miterlimit="10"/><g clip-path="url(#bqVkWeCXbCbf)"><text fill="rgb(68,68,68)" stroke="none" font-family="helvetica" font-size="13px" font-style="normal" font-weight="normal" text-decoration="normal" x="0" y="4.5" text-anchor="start" dominant-baseline="alphabetic" transform="matrix(1, 0, 0, 1, 161.5, 58.5)" fill-opacity="1">moped</text></g><g clip-path="url(#bqVkWeCXbCbf)"><text fill="none" stroke="rgb(0,0,0)" font-family="helvetica" font-size="13px" font-style="normal" font-weight="normal" text-decoration="normal" x="0" y="4.5" text-anchor="start" dominant-baseline="alphabetic" transform="matrix(1, 0, 0, 1, 161.5, 58.5)" stroke-opacity="0" stroke-linejoin="bevel" stroke-miterlimit="10">moped</text></g><path fill="rgb(67,186,195)" stroke="rgb(67,186,195)" paint-order="fill" d="M 138.5 73.5 L 154.5 73.5 L 154.5 89.5 L 138.5 89.5 L 138.5 73.5 Z" fill-opacity="1" clip-path="url(#bqVkWeCXbCbf)" stroke-opacity="1" stroke-linejoin="bevel" stroke-miterlimit="10"/><g clip-path="url(#bqVkWeCXbCbf)"><text fill="rgb(68,68,68)" stroke="none" font-family="helvetica" font-size="13px" font-style="normal" font-weight="normal" text-decoration="normal" x="0" y="4.5" text-anchor="start" dominant-baseline="alphabetic" transform="matrix(1, 0, 0, 1, 161.5, 81.5)" fill-opacity="1">cargo_bicycle</text></g><g clip-path="url(#bqVkWeCXbCbf)"><text fill="none" stroke="rgb(0,0,0)" font-family="helvetica" font-size="13px" font-style="normal" font-weight="normal" text-decoration="normal" x="0" y="4.5" text-anchor="start" dominant-baseline="alphabetic" transform="matrix(1, 0, 0, 1, 161.5, 81.5)" stroke-opacity="0" stroke-linejoin="bevel" stroke-miterlimit="10">cargo_bicycle</text></g></svg>