<svg version="1.1" xmlns="http://www.w3.org/2000/svg" width="450" height="200"><defs><clipPath id="zmkbxUyiGwCR"><path fill="none" stroke="none" d="M 243.5 5.5 L 420.5 5.5 L 420.5 155.5 L 243.5 155.5 L 243.5 5.5 Z"/></clipPath><clipPath id="neZTLyGfyHoF"><path fill="none" stroke="none" d="M 243.5 5.5 L 420.5 5.5 L 420.5 155.5 L 243.5 155.5 L 243.5 5.5 Z"/></clipPath><clipPath id="TSleAXyUOyBw"><path fill="none" stroke="none" d="M 243.5 5.5 L 420.5 5.5 L 420.5 155.5 L 243.5 155.5 L 243.5 5.5 Z"/></clipPath><clipPath id="TRXLEmDfMxOs"><path fill="none" stroke="none" d="M 243.5 5.5 L 420.5 5.5 L 420.5 155.5 L 243.5 155.5 L 243.5 5.5 Z"/></clipPath><clipPath id="XmgOwfGfwueU"><path fill="none" stroke="none" d="M 243.5 5.5 L 420.5 5.5 L 420.5 155.5 L 243.5 155.5 L 243.5 5.5 Z"/></clipPath></defs><path fill="none" stroke="rgb(229,229,229)" paint-order="fill" d="M 243.5 5.5 L 420.5 5.5 L 420.5 155.5 L 243.5 155.5 L 243.5 5.5 Z" stroke-opacity="1" stroke-linejoin="bevel" stroke-miterlimit="10"/><path fill="none" stroke="rgb(229,229,229)" paint-order="fill" d="M 251.5 155.5 L 251.5 5.5 M 301.5 155.5 L 301.5 5.5 M 350.5 155.5 L 350.5 5.5 M 400.5 155.5 L 400.5 5.5" stroke-opacity="1" stroke-linejoin="bevel" stroke-miterlimit="10" clip-path="url(#zmkbxUyiGwCR)"/><path fill="none" stroke="rgb(229,229,229)" paint-order="fill" d="M 243.5 140.5 L 420.5 140.5 M 243.5 110.5 L 420.5 110.5 M 243.5 80.5 L 420.5 80.5 M 243.5 50.5 L 420.5 50.5 M 243.5 20.5 L 420.5 20.5" stroke-opacity="1" stroke-linejoin="bevel" stroke-miterlimit="10" clip-path="url(#neZTLyGfyHoF)"/><path fill="rgb(248,169,49)" stroke="rgb(248,169,49)" paint-order="fill" d="M 251.5454559326172 127 L 412.4545593261719 127 L 412.4545593261719 154 L 251.5454559326172 154 L 251.5454559326172 127 Z" fill-opacity="1" clip-path="url(#TSleAXyUOyBw)" stroke-opacity="1" stroke-linejoin="bevel" stroke-miterlimit="10"/><path fill="rgb(192,204,205)" stroke="rgb(192,204,205)" paint-order="fill" d="M 251.5454559326172 97 L 412.4545593261719 97 L 412.4545593261719 124 L 251.5454559326172 124 L 251.5454559326172 97 Z" fill-opacity="1" clip-path="url(#TSleAXyUOyBw)" stroke-opacity="1" stroke-linejoin="bevel" stroke-miterlimit="10"/><path fill="rgb(67,186,195)" stroke="rgb(67,186,195)" paint-order="fill" d="M 251.5454559326172 67 L 412.4545593261719 67 L 412.4545593261719 94 L 251.5454559326172 94 L 251.5454559326172 67 Z" fill-opacity="1" clip-path="url(#TSleAXyUOyBw)" stroke-opacity="1" stroke-linejoin="bevel" stroke-miterlimit="10"/><path fill="rgb(49,49,61)" stroke="rgb(49,49,61)" paint-order="fill" d="M 251.5454559326172 37 L 412.4545593261719 37 L 412.4545593261719 64 L 251.5454559326172 64 L 251.5454559326172 37 Z" fill-opacity="1" clip-path="url(#TSleAXyUOyBw)" stroke-opacity="1" stroke-linejoin="bevel" stroke-miterlimit="10"/><path fill="rgb(248,169,49)" stroke="rgb(248,169,49)" paint-order="fill" d="M 251.5454559326172 7 L 412.4545593261719 7 L 412.4545593261719 34 L 251.5454559326172 34 L 251.5454559326172 7 Z" fill-opacity="1" clip-path="url(#TSleAXyUOyBw)" stroke-opacity="1" stroke-linejoin="bevel" stroke-miterlimit="10"/><g clip-path="url(#TRXLEmDfMxOs)"><text fill="rgb(10,26,41)" stroke="none" font-family="helvetica" font-size="10px" font-style="normal" font-weight="normal" text-decoration="normal" x="361.9545593261719" y="140" text-anchor="start" dominant-baseline="alphabetic" transform="matrix(1, 0, 0, 1, 0.5, 0.5)" fill-opacity="1">1621</text></g><g clip-path="url(#TRXLEmDfMxOs)"><text fill="none" stroke="rgb(0,0,0)" font-family="helvetica" font-size="10px" font-style="normal" font-weight="normal" text-decoration="normal" x="361.9545593261719" y="140" text-anchor="start" dominant-baseline="alphabetic" transform="matrix(1, 0, 0, 1, 0.5, 0.5)" stroke-opacity="0" stroke-miterlimit="10" stroke-dasharray="">1621</text></g><g clip-path="url(#TRXLEmDfMxOs)"><text fill="rgb(10,26,41)" stroke="none" font-family="helvetica" font-size="10px" font-style="normal" font-weight="normal" text-decoration="normal" x="361.9545593261719" y="110" text-anchor="start" dominant-baseline="alphabetic" transform="matrix(1, 0, 0, 1, 0.5, 0.5)" fill-opacity="1">1621</text></g><g clip-path="url(#TRXLEmDfMxOs)"><text fill="none" stroke="rgb(0,0,0)" font-family="helvetica" font-size="10px" font-style="normal" font-weight="normal" text-decoration="normal" x="361.9545593261719" y="110" text-anchor="start" dominant-baseline="alphabetic" transform="matrix(1, 0, 0, 1, 0.5, 0.5)" stroke-opacity="0" stroke-miterlimit="10" stroke-dasharray="">1621</text></g><g clip-path="url(#TRXLEmDfMxOs)"><text fill="rgb(10,26,41)" stroke="none" font-family="helvetica" font-size="10px" font-style="normal" font-weight="normal" text-decoration="normal" x="361.9545593261719" y="80" text-anchor="start" dominant-baseline="alphabetic" transform="matrix(1, 0, 0, 1, 0.5, 0.5)" fill-opacity="1">1621</text></g><g clip-path="url(#TRXLEmDfMxOs)"><text fill="none" stroke="rgb(0,0,0)" font-family="helvetica" font-size="10px" font-style="normal" font-weight="normal" text-decoration="normal" x="361.9545593261719" y="80" text-anchor="start" dominant-baseline="alphabetic" transform="matrix(1, 0, 0, 1, 0.5, 0.5)" stroke-opacity="0" stroke-miterlimit="10" stroke-dasharray="">1621</text></g><g clip-path="url(#TRXLEmDfMxOs)"><text fill="rgb(10,26,41)" stroke="none" font-family="helvetica" font-size="10px" font-style="normal" font-weight="normal" text-decoration="normal" x="361.9545593261719" y="50" text-anchor="start" dominant-baseline="alphabetic" transform="matrix(1, 0, 0, 1, 0.5, 0.5)" fill-opacity="1">1621</text></g><g clip-path="url(#TRXLEmDfMxOs)"><text fill="none" stroke="rgb(0,0,0)" font-family="helvetica" font-size="10px" font-style="normal" font-weight="normal" text-decoration="normal" x="361.9545593261719" y="50" text-anchor="start" dominant-baseline="alphabetic" transform="matrix(1, 0, 0, 1, 0.5, 0.5)" stroke-opacity="0" stroke-miterlimit="10" stroke-dasharray="">1621</text></g><g clip-path="url(#TRXLEmDfMxOs)"><text fill="rgb(10,26,41)" stroke="none" font-family="helvetica" font-size="10px" font-style="normal" font-weight="normal" text-decoration="normal" x="361.9545593261719" y="20" text-anchor="start" dominant-baseline="alphabetic" transform="matrix(1, 0, 0, 1, 0.5, 0.5)" fill-opacity="1">1621</text></g><g clip-path="url(#TRXLEmDfMxOs)"><text fill="none" stroke="rgb(0,0,0)" font-family="helvetica" font-size="10px" font-style="normal" font-weight="normal" text-decoration="normal" x="361.9545593261719" y="20" text-anchor="start" dominant-baseline="alphabetic" transform="matrix(1, 0, 0, 1, 0.5, 0.5)" stroke-opacity="0" stroke-miterlimit="10" stroke-dasharray="">1621</text></g><path fill="none" stroke="rgb(0,0,0)" paint-order="fill" d="M 243.5 155.5 L 420.5 155.5" stroke-opacity="1" stroke-linejoin="bevel" stroke-miterlimit="10"/><path fill="none" stroke="rgb(0,0,0)" paint-order="fill" d="M 251.5 161.5 L 251.5 153.5 M 301.5 161.5 L 301.5 153.5 M 350.5 161.5 L 350.5 153.5 M 400.5 161.5 L 400.5 153.5" stroke-opacity="1" stroke-linejoin="bevel" stroke-miterlimit="10"/><path fill="none" stroke="rgb(0,0,0)" paint-order="fill" d="M 251.5 159.5 L 251.5 155.5 M 261.5 159.5 L 261.5 155.5 M 271.5 159.5 L 271.5 155.5 M 281.5 159.5 L 281.5 155.5 M 291.5 159.5 L 291.5 155.5 M 301.5 159.5 L 301.5 155.5 M 311.5 159.5 L 311.5 155.5 M 321.5 159.5 L 321.5 155.5 M 330.5 159.5 L 330.5 155.5 M 340.5 159.5 L 340.5 155.5 M 350.5 159.5 L 350.5 155.5 M 360.5 159.5 L 360.5 155.5 M 370.5 159.5 L 370.5 155.5 M 380.5 159.5 L 380.5 155.5 M 390.5 159.5 L 390.5 155.5 M 400.5 159.5 L 400.5 155.5 M 410.5 159.5 L 410.5 155.5 M 420.5 159.5 L 420.5 155.5" stroke-opacity="1" stroke-linejoin="bevel" stroke-miterlimit="10"/><text fill="rgb(68,68,68)" stroke="none" font-family="helvetica" font-size="11px" font-style="normal" font-weight="normal" text-decoration="normal" x="247.5454559326172" y="174" text-anchor="start" dominant-baseline="alphabetic" transform="matrix(1, 0, 0, 1, 0.5, 0.5)" fill-opacity="1">0</text><text fill="none" stroke="rgb(0,0,0)" font-family="helvetica" font-size="11px" font-style="normal" font-weight="normal" text-decoration="normal" x="247.5454559326172" y="174" text-anchor="start" dominant-baseline="alphabetic" transform="matrix(1, 0, 0, 1, 0.5, 0.5)" stroke-opacity="0" stroke-linejoin="bevel" stroke-miterlimit="10">0</text><text fill="rgb(68,68,68)" stroke="none" font-family="helvetica" font-size="11px" font-style="normal" font-weight="normal" text-decoration="normal" x="290.1781311035156" y="174" text-anchor="start" dominant-baseline="alphabetic" transform="matrix(1, 0, 0, 1, 0.5, 0.5)" fill-opacity="1">500</text><text fill="none" stroke="rgb(0,0,0)" font-family="helvetica" font-size="11px" font-style="normal" font-weight="normal" text-decoration="normal" x="290.1781311035156" y="174" text-anchor="start" dominant-baseline="alphabetic" transform="matrix(1, 0, 0, 1, 0.5, 0.5)" stroke-opacity="0" stroke-linejoin="bevel" stroke-miterlimit="10">500</text><text fill="rgb(68,68,68)" stroke="none" font-family="helvetica" font-size="11px" font-style="normal" font-weight="normal" text-decoration="normal" x="336.310791015625" y="174" text-anchor="start" dominant-baseline="alphabetic" transform="matrix(1, 0, 0, 1, 0.5, 0.5)" fill-opacity="1">1000</text><text fill="none" stroke="rgb(0,0,0)" font-family="helvetica" font-size="11px" font-style="normal" font-weight="normal" text-decoration="normal" x="336.310791015625" y="174" text-anchor="start" dominant-baseline="alphabetic" transform="matrix(1, 0, 0, 1, 0.5, 0.5)" stroke-opacity="0" stroke-linejoin="bevel" stroke-miterlimit="10">1000</text><text fill="rgb(68,68,68)" stroke="none" font-family="helvetica" font-size="11px" font-style="normal" font-weight="normal" text-decoration="normal" x="385.9434509277344" y="174" text-anchor="start" dominant-baseline="alphabetic" transform="matrix(1, 0, 0, 1, 0.5, 0.5)" fill-opacity="1">1500</text><text fill="none" stroke="rgb(0,0,0)" font-family="helvetica" font-size="11px" font-style="normal" font-weight="normal" text-decoration="normal" x="385.9434509277344" y="174" text-anchor="start" dominant-baseline="alphabetic" transform="matrix(1, 0, 0, 1, 0.5, 0.5)" stroke-opacity="0" stroke-linejoin="bevel" stroke-miterlimit="10">1500</text><text fill="rgb(10,26,41)" stroke="none" font-family="Poppins" font-size="13px" font-style="italic" font-weight="normal" text-decoration="normal" x="269.5" y="194" text-anchor="start" dominant-baseline="alphabetic" transform="matrix(1, 0, 0, 1, 0.5, 0.5)" fill-opacity="1">Aantal verhuringen</text><text fill="none" stroke="rgb(0,0,0)" font-family="Poppins" font-size="13px" font-style="italic" font-weight="normal" text-decoration="normal" x="269.5" y="194" text-anchor="start" dominant-baseline="alphabetic" transform="matrix(1, 0, 0, 1, 0.5, 0.5)" stroke-opacity="0" stroke-linejoin="bevel" stroke-miterlimit="10">Aantal verhuringen</text><path fill="none" stroke="rgb(0,0,0)" paint-order="fill" d="M 243.5 155.5 L 243.5 5.5" stroke-opacity="1" stroke-linejoin="bevel" stroke-miterlimit="10"/><path fill="none" stroke="rgb(0,0,0)" paint-order="fill" d="M 237.5 140.5 L 245.5 140.5 M 237.5 110.5 L 245.5 110.5 M 237.5 80.5 L 245.5 80.5 M 237.5 50.5 L 245.5 50.5 M 237.5 20.5 L 245.5 20.5" stroke-opacity="1" stroke-linejoin="bevel" stroke-miterlimit="10"/><path fill="none" stroke="rgb(0,0,0)" paint-order="fill" d="" stroke-opacity="1" stroke-linejoin="bevel" stroke-miterlimit="10"/><text fill="rgb(68,68,68)" stroke="none" font-family="helvetica" font-size="11px" font-style="normal" font-weight="normal" text-decoration="normal" x="26" y="143.5" text-anchor="start" dominant-baseline="alphabetic" transform="matrix(1, 0, 0, 1, 0.5, 0.5)" fill-opacity="1">BH Rhijnauwensingel Oude Watering</text><text fill="none" stroke="rgb(0,0,0)" font-family="helvetica" font-size="11px" font-style="normal" font-weight="normal" text-decoration="normal" x="26" y="143.5" text-anchor="start" dominant-baseline="alphabetic" transform="matrix(1, 0, 0, 1, 0.5, 0.5)" stroke-opacity="0" stroke-linejoin="bevel" stroke-miterlimit="10">BH Rhijnauwensingel Oude Watering</text><text fill="rgb(68,68,68)" stroke="none" font-family="helvetica" font-size="11px" font-style="normal" font-weight="normal" text-decoration="normal" x="30" y="113.5" text-anchor="start" dominant-baseline="alphabetic" transform="matrix(1, 0, 0, 1, 0.5, 0.5)" fill-opacity="1">BH Stadion Fey (Bert Heesakkerstr.)</text><text fill="none" stroke="rgb(0,0,0)" font-family="helvetica" font-size="11px" font-style="normal" font-weight="normal" text-decoration="normal" x="30" y="113.5" text-anchor="start" dominant-baseline="alphabetic" transform="matrix(1, 0, 0, 1, 0.5, 0.5)" stroke-opacity="0" stroke-linejoin="bevel" stroke-miterlimit="10">BH Stadion Fey (Bert Heesakkerstr.)</text><text fill="rgb(68,68,68)" stroke="none" font-family="helvetica" font-size="11px" font-style="normal" font-weight="normal" text-decoration="normal" x="3" y="83.5" text-anchor="start" dominant-baseline="alphabetic" transform="matrix(1, 0, 0, 1, 0.5, 0.5)" fill-opacity="1">BH Treinst. Lombardijen (Aesopusplaats)</text><text fill="none" stroke="rgb(0,0,0)" font-family="helvetica" font-size="11px" font-style="normal" font-weight="normal" text-decoration="normal" x="3" y="83.5" text-anchor="start" dominant-baseline="alphabetic" transform="matrix(1, 0, 0, 1, 0.5, 0.5)" stroke-opacity="0" stroke-linejoin="bevel" stroke-miterlimit="10">BH Treinst. Lombardijen (Aesopusplaats)</text><text fill="rgb(68,68,68)" stroke="none" font-family="helvetica" font-size="11px" font-style="normal" font-weight="normal" text-decoration="normal" x="79" y="53.5" text-anchor="start" dominant-baseline="alphabetic" transform="matrix(1, 0, 0, 1, 0.5, 0.5)" fill-opacity="1">BH Herenwaard (thv nr 20)</text><text fill="none" stroke="rgb(0,0,0)" font-family="helvetica" font-size="11px" font-style="normal" font-weight="normal" text-decoration="normal" x="79" y="53.5" text-anchor="start" dominant-baseline="alphabetic" transform="matrix(1, 0, 0, 1, 0.5, 0.5)" stroke-opacity="0" stroke-linejoin="bevel" stroke-miterlimit="10">BH Herenwaard (thv nr 20)</text><text fill="rgb(68,68,68)" stroke="none" font-family="helvetica" font-size="11px" font-style="normal" font-weight="normal" text-decoration="normal" x="55" y="23.5" text-anchor="start" dominant-baseline="alphabetic" transform="matrix(1, 0, 0, 1, 0.5, 0.5)" fill-opacity="1">BH Zuidplein (van Swietenlaan)</text><text fill="none" stroke="rgb(0,0,0)" font-family="helvetica" font-size="11px" font-style="normal" font-weight="normal" text-decoration="normal" x="55" y="23.5" text-anchor="start" dominant-baseline="alphabetic" transform="matrix(1, 0, 0, 1, 0.5, 0.5)" stroke-opacity="0" stroke-linejoin="bevel" stroke-miterlimit="10">BH Zuidplein (van Swietenlaan)</text></svg>