<svg version="1.1" xmlns="http://www.w3.org/2000/svg" width="200" height="200"><defs><clipPath id="COBrvdKMLwfo"><path fill="none" stroke="none" d="M 0.5 0.5 L 200.5 0.5 L 200.5 200.5 L 0.5 200.5 L 0.5 0.5 Z M 39.5 5.5 L 170.5 5.5 L 170.5 155.5 L 39.5 155.5 L 39.5 5.5 Z" clip-rule="evenodd"/></clipPath><clipPath id="nKKrQWydUHIp"><path fill="none" stroke="none" d="M 39.5 5.5 L 170.5 5.5 L 170.5 155.5 L 39.5 155.5 L 39.5 5.5 Z"/></clipPath><clipPath id="APnldgeOiubD"><path fill="none" stroke="none" d="M 39.5 5.5 L 170.5 5.5 L 170.5 155.5 L 39.5 155.5 L 39.5 5.5 Z"/></clipPath><clipPath id="dtsIwAEwvXua"><path fill="none" stroke="none" d="M 39.5 5.5 L 170.5 5.5 L 170.5 155.5 L 39.5 155.5 L 39.5 5.5 Z"/></clipPath><clipPath id="FoTdSAtaEler"><path fill="none" stroke="none" d="M 39.5 5.5 L 170.5 5.5 L 170.5 155.5 L 39.5 155.5 L 39.5 5.5 Z"/></clipPath><clipPath id="hvDFFueTrdUn"><path fill="none" stroke="none" d="M 39.5 5.5 L 170.5 5.5 L 170.5 155.5 L 39.5 155.5 L 39.5 5.5 Z"/></clipPath></defs><path fill="rgb(255,255,255)" stroke="none" paint-order="stroke" d="M 0.5 0.5 L 200.5 0.5 L 200.5 200.5 L 0.5 200.5 L 0.5 0.5 Z" fill-opacity="1" clip-path="url(#COBrvdKMLwfo)"/><path fill="rgb(255,255,255)" stroke="none" paint-order="stroke" d="M 39.5 5.5 L 170.5 5.5 L 170.5 155.5 L 39.5 155.5 L 39.5 5.5 Z" fill-opacity="1"/><path fill="none" stroke="rgb(229,229,229)" paint-order="fill" d="M 39.5 5.5 L 170.5 5.5 L 170.5 155.5 L 39.5 155.5 L 39.5 5.5 Z" stroke-opacity="1" stroke-linejoin="bevel" stroke-miterlimit="10"/><path fill="none" stroke="rgb(229,229,229)" paint-order="fill" d="M 45.5 155.5 L 45.5 5.5 M 66.5 155.5 L 66.5 5.5 M 88.5 155.5 L 88.5 5.5 M 109.5 155.5 L 109.5 5.5 M 131.5 155.5 L 131.5 5.5 M 152.5 155.5 L 152.5 5.5" stroke-opacity="1" stroke-linejoin="bevel" stroke-miterlimit="10" clip-path="url(#nKKrQWydUHIp)"/><path fill="none" stroke="rgb(229,229,229)" paint-order="fill" d="M 39.5 80.5 L 170.5 80.5" stroke-opacity="1" stroke-linejoin="bevel" stroke-miterlimit="10" clip-path="url(#APnldgeOiubD)"/><path fill="rgb(248,169,49)" stroke="rgb(248,169,49)" paint-order="fill" d="M 45.45454406738281 13 L 164.5454559326172 13 L 164.5454559326172 148 L 45.45454406738281 148 L 45.45454406738281 13 Z" fill-opacity="1" clip-path="url(#dtsIwAEwvXua)" stroke-opacity="1" stroke-linejoin="bevel" stroke-miterlimit="10"/><g clip-path="url(#FoTdSAtaEler)"><text fill="rgb(68,68,68)" stroke="none" font-family="helvetica" font-size="10px" font-style="normal" font-weight="normal" text-decoration="normal" x="114.04545593261719" y="80" text-anchor="start" dominant-baseline="alphabetic" transform="matrix(1, 0, 0, 1, 0.5, 0.5)" fill-opacity="1">5551</text></g><g clip-path="url(#FoTdSAtaEler)"><text fill="none" stroke="rgb(0,0,0)" font-family="helvetica" font-size="10px" font-style="normal" font-weight="normal" text-decoration="normal" x="114.04545593261719" y="80" text-anchor="start" dominant-baseline="alphabetic" transform="matrix(1, 0, 0, 1, 0.5, 0.5)" stroke-opacity="0" stroke-miterlimit="10" stroke-dasharray="">5551</text></g><path fill="none" stroke="rgb(0,0,0)" paint-order="fill" d="M 39.5 155.5 L 170.5 155.5" stroke-opacity="1" stroke-linejoin="bevel" stroke-miterlimit="10"/><path fill="none" stroke="rgb(0,0,0)" paint-order="fill" d="M 45.5 161.5 L 45.5 153.5 M 66.5 161.5 L 66.5 153.5 M 88.5 161.5 L 88.5 153.5 M 109.5 161.5 L 109.5 153.5 M 131.5 161.5 L 131.5 153.5 M 152.5 161.5 L 152.5 153.5" stroke-opacity="1" stroke-linejoin="bevel" stroke-miterlimit="10"/><path fill="none" stroke="rgb(0,0,0)" paint-order="fill" d="M 41.5 159.5 L 41.5 155.5 M 45.5 159.5 L 45.5 155.5 M 49.5 159.5 L 49.5 155.5 M 54.5 159.5 L 54.5 155.5 M 58.5 159.5 L 58.5 155.5 M 62.5 159.5 L 62.5 155.5 M 66.5 159.5 L 66.5 155.5 M 71.5 159.5 L 71.5 155.5 M 75.5 159.5 L 75.5 155.5 M 79.5 159.5 L 79.5 155.5 M 84.5 159.5 L 84.5 155.5 M 88.5 159.5 L 88.5 155.5 M 92.5 159.5 L 92.5 155.5 M 96.5 159.5 L 96.5 155.5 M 101.5 159.5 L 101.5 155.5 M 105.5 159.5 L 105.5 155.5 M 109.5 159.5 L 109.5 155.5 M 114.5 159.5 L 114.5 155.5 M 118.5 159.5 L 118.5 155.5 M 122.5 159.5 L 122.5 155.5 M 126.5 159.5 L 126.5 155.5 M 131.5 159.5 L 131.5 155.5 M 135.5 159.5 L 135.5 155.5 M 139.5 159.5 L 139.5 155.5 M 144.5 159.5 L 144.5 155.5 M 148.5 159.5 L 148.5 155.5 M 152.5 159.5 L 152.5 155.5 M 157.5 159.5 L 157.5 155.5 M 161.5 159.5 L 161.5 155.5 M 165.5 159.5 L 165.5 155.5 M 169.5 159.5 L 169.5 155.5" stroke-opacity="1" stroke-linejoin="bevel" stroke-miterlimit="10"/><text fill="rgb(68,68,68)" stroke="none" font-family="helvetica" font-size="11px" font-style="normal" font-weight="normal" text-decoration="normal" x="41.45454406738281" y="174" text-anchor="start" dominant-baseline="alphabetic" transform="matrix(1, 0, 0, 1, 0.5, 0.5)" fill-opacity="1">0</text><text fill="none" stroke="rgb(0,0,0)" font-family="helvetica" font-size="11px" font-style="normal" font-weight="normal" text-decoration="normal" x="41.45454406738281" y="174" text-anchor="start" dominant-baseline="alphabetic" transform="matrix(1, 0, 0, 1, 0.5, 0.5)" stroke-opacity="0" stroke-linejoin="bevel" stroke-miterlimit="10">0</text><text fill="rgb(68,68,68)" stroke="none" font-family="helvetica" font-size="11px" font-style="normal" font-weight="normal" text-decoration="normal" x="52.40850067138672" y="174" text-anchor="start" dominant-baseline="alphabetic" transform="matrix(1, 0, 0, 1, 0.5, 0.5)" fill-opacity="1">1000</text><text fill="none" stroke="rgb(0,0,0)" font-family="helvetica" font-size="11px" font-style="normal" font-weight="normal" text-decoration="normal" x="52.40850067138672" y="174" text-anchor="start" dominant-baseline="alphabetic" transform="matrix(1, 0, 0, 1, 0.5, 0.5)" stroke-opacity="0" stroke-linejoin="bevel" stroke-miterlimit="10">1000</text><text fill="rgb(68,68,68)" stroke="none" font-family="helvetica" font-size="11px" font-style="normal" font-weight="normal" text-decoration="normal" x="73.86245727539062" y="174" text-anchor="start" dominant-baseline="alphabetic" transform="matrix(1, 0, 0, 1, 0.5, 0.5)" fill-opacity="1">2000</text><text fill="none" stroke="rgb(0,0,0)" font-family="helvetica" font-size="11px" font-style="normal" font-weight="normal" text-decoration="normal" x="73.86245727539062" y="174" text-anchor="start" dominant-baseline="alphabetic" transform="matrix(1, 0, 0, 1, 0.5, 0.5)" stroke-opacity="0" stroke-linejoin="bevel" stroke-miterlimit="10">2000</text><text fill="rgb(68,68,68)" stroke="none" font-family="helvetica" font-size="11px" font-style="normal" font-weight="normal" text-decoration="normal" x="95.31641387939453" y="174" text-anchor="start" dominant-baseline="alphabetic" transform="matrix(1, 0, 0, 1, 0.5, 0.5)" fill-opacity="1">3000</text><text fill="none" stroke="rgb(0,0,0)" font-family="helvetica" font-size="11px" font-style="normal" font-weight="normal" text-decoration="normal" x="95.31641387939453" y="174" text-anchor="start" dominant-baseline="alphabetic" transform="matrix(1, 0, 0, 1, 0.5, 0.5)" stroke-opacity="0" stroke-linejoin="bevel" stroke-miterlimit="10">3000</text><text fill="rgb(68,68,68)" stroke="none" font-family="helvetica" font-size="11px" font-style="normal" font-weight="normal" text-decoration="normal" x="116.77037048339844" y="174" text-anchor="start" dominant-baseline="alphabetic" transform="matrix(1, 0, 0, 1, 0.5, 0.5)" fill-opacity="1">4000</text><text fill="none" stroke="rgb(0,0,0)" font-family="helvetica" font-size="11px" font-style="normal" font-weight="normal" text-decoration="normal" x="116.77037048339844" y="174" text-anchor="start" dominant-baseline="alphabetic" transform="matrix(1, 0, 0, 1, 0.5, 0.5)" stroke-opacity="0" stroke-linejoin="bevel" stroke-miterlimit="10">4000</text><text fill="rgb(68,68,68)" stroke="none" font-family="helvetica" font-size="11px" font-style="normal" font-weight="normal" text-decoration="normal" x="138.2243194580078" y="174" text-anchor="start" dominant-baseline="alphabetic" transform="matrix(1, 0, 0, 1, 0.5, 0.5)" fill-opacity="1">5000</text><text fill="none" stroke="rgb(0,0,0)" font-family="helvetica" font-size="11px" font-style="normal" font-weight="normal" text-decoration="normal" x="138.2243194580078" y="174" text-anchor="start" dominant-baseline="alphabetic" transform="matrix(1, 0, 0, 1, 0.5, 0.5)" stroke-opacity="0" stroke-linejoin="bevel" stroke-miterlimit="10">5000</text><text fill="rgb(68,68,68)" stroke="none" font-family="helvetica" font-size="13px" font-style="italic" font-weight="normal" text-decoration="normal" x="42.5" y="194" text-anchor="start" dominant-baseline="alphabetic" transform="matrix(1, 0, 0, 1, 0.5, 0.5)" fill-opacity="1">Aantal verhuringen</text><text fill="none" stroke="rgb(0,0,0)" font-family="helvetica" font-size="13px" font-style="italic" font-weight="normal" text-decoration="normal" x="42.5" y="194" text-anchor="start" dominant-baseline="alphabetic" transform="matrix(1, 0, 0, 1, 0.5, 0.5)" stroke-opacity="0" stroke-linejoin="bevel" stroke-miterlimit="10">Aantal verhuringen</text><path fill="none" stroke="rgb(0,0,0)" paint-order="fill" d="M 39.5 155.5 L 39.5 5.5" stroke-opacity="1" stroke-linejoin="bevel" stroke-miterlimit="10"/><path fill="none" stroke="rgb(0,0,0)" paint-order="fill" d="M 33.5 80.5 L 41.5 80.5" stroke-opacity="1" stroke-linejoin="bevel" stroke-miterlimit="10"/><path fill="none" stroke="rgb(0,0,0)" paint-order="fill" d="" stroke-opacity="1" stroke-linejoin="bevel" stroke-miterlimit="10"/><text fill="rgb(68,68,68)" stroke="none" font-family="helvetica" font-size="11px" font-style="normal" font-weight="normal" text-decoration="normal" x="3" y="83.5" text-anchor="start" dominant-baseline="alphabetic" transform="matrix(1, 0, 0, 1, 0.5, 0.5)" fill-opacity="1">total</text><text fill="none" stroke="rgb(0,0,0)" font-family="helvetica" font-size="11px" font-style="normal" font-weight="normal" text-decoration="normal" x="3" y="83.5" text-anchor="start" dominant-baseline="alphabetic" transform="matrix(1, 0, 0, 1, 0.5, 0.5)" stroke-opacity="0" stroke-linejoin="bevel" stroke-miterlimit="10">total</text></svg>