<svg version="1.1" xmlns="http://www.w3.org/2000/svg" width="200" height="200"><defs><clipPath id="XthvBwrppSRx"><path fill="none" stroke="none" d="M 0.5 0.5 L 200.5 0.5 L 200.5 200.5 L 0.5 200.5 L 0.5 0.5 Z M 70.5 5.5 L 170.5 5.5 L 170.5 155.5 L 70.5 155.5 L 70.5 5.5 Z" clip-rule="evenodd"/></clipPath><clipPath id="myTZbSOGJwbi"><path fill="none" stroke="none" d="M 70.5 5.5 L 170.5 5.5 L 170.5 155.5 L 70.5 155.5 L 70.5 5.5 Z"/></clipPath><clipPath id="CkXTXPCIAwbs"><path fill="none" stroke="none" d="M 70.5 5.5 L 170.5 5.5 L 170.5 155.5 L 70.5 155.5 L 70.5 5.5 Z"/></clipPath><clipPath id="OguzNlTFTEyh"><path fill="none" stroke="none" d="M 70.5 5.5 L 170.5 5.5 L 170.5 155.5 L 70.5 155.5 L 70.5 5.5 Z"/></clipPath><clipPath id="RWVILTOQchyN"><path fill="none" stroke="none" d="M 70.5 5.5 L 170.5 5.5 L 170.5 155.5 L 70.5 155.5 L 70.5 5.5 Z"/></clipPath><clipPath id="hvoOOoxKvOeM"><path fill="none" stroke="none" d="M 70.5 5.5 L 170.5 5.5 L 170.5 155.5 L 70.5 155.5 L 70.5 5.5 Z"/></clipPath></defs><path fill="rgb(255,255,255)" stroke="none" paint-order="stroke" d="M 0.5 0.5 L 200.5 0.5 L 200.5 200.5 L 0.5 200.5 L 0.5 0.5 Z" fill-opacity="1" clip-path="url(#XthvBwrppSRx)"/><path fill="rgb(255,255,255)" stroke="none" paint-order="stroke" d="M 70.5 5.5 L 170.5 5.5 L 170.5 155.5 L 70.5 155.5 L 70.5 5.5 Z" fill-opacity="1"/><path fill="none" stroke="rgb(229,229,229)" paint-order="fill" d="M 70.5 5.5 L 170.5 5.5 L 170.5 155.5 L 70.5 155.5 L 70.5 5.5 Z" stroke-opacity="1" stroke-linejoin="bevel" stroke-miterlimit="10"/><path fill="none" stroke="rgb(229,229,229)" paint-order="fill" d="M 75.5 155.5 L 75.5 5.5 M 99.5 155.5 L 99.5 5.5 M 123.5 155.5 L 123.5 5.5 M 147.5 155.5 L 147.5 5.5" stroke-opacity="1" stroke-linejoin="bevel" stroke-miterlimit="10" clip-path="url(#myTZbSOGJwbi)"/><path fill="none" stroke="rgb(229,229,229)" paint-order="fill" d="M 70.5 144.5 L 170.5 144.5 M 70.5 123.5 L 170.5 123.5 M 70.5 101.5 L 170.5 101.5 M 70.5 80.5 L 170.5 80.5 M 70.5 59.5 L 170.5 59.5 M 70.5 37.5 L 170.5 37.5 M 70.5 16.5 L 170.5 16.5" stroke-opacity="1" stroke-linejoin="bevel" stroke-miterlimit="10" clip-path="url(#CkXTXPCIAwbs)"/><path fill="rgb(248,169,49)" stroke="rgb(248,169,49)" paint-order="fill" d="M 75.04545593261719 135.1428680419922 L 87.68437194824219 135.1428680419922 L 87.68437194824219 154.42857360839844 L 75.04545593261719 154.42857360839844 L 75.04545593261719 135.1428680419922 Z" fill-opacity="1" clip-path="url(#OguzNlTFTEyh)" stroke-opacity="1" stroke-linejoin="bevel" stroke-miterlimit="10"/><path fill="rgb(192,204,205)" stroke="rgb(192,204,205)" paint-order="fill" d="M 75.04545593261719 113.71427917480469 L 80.43217468261719 113.71427917480469 L 80.43217468261719 133 L 75.04545593261719 133 L 75.04545593261719 113.71427917480469 Z" fill-opacity="1" clip-path="url(#OguzNlTFTEyh)" stroke-opacity="1" stroke-linejoin="bevel" stroke-miterlimit="10"/><path fill="rgb(67,186,195)" stroke="rgb(67,186,195)" paint-order="fill" d="M 75.04545593261719 92.28571319580078 L 165.9545440673828 92.28571319580078 L 165.9545440673828 111.5714340209961 L 75.04545593261719 111.5714340209961 L 75.04545593261719 92.28571319580078 Z" fill-opacity="1" clip-path="url(#OguzNlTFTEyh)" stroke-opacity="1" stroke-linejoin="bevel" stroke-miterlimit="10"/><path fill="rgb(49,49,61)" stroke="rgb(49,49,61)" paint-order="fill" d="M 75.04545593261719 70.85713958740234 L 140.61163330078125 70.85713958740234 L 140.61163330078125 90.14286041259766 L 75.04545593261719 90.14286041259766 L 75.04545593261719 70.85713958740234 Z" fill-opacity="1" clip-path="url(#OguzNlTFTEyh)" stroke-opacity="1" stroke-linejoin="bevel" stroke-miterlimit="10"/><path fill="rgb(248,169,49)" stroke="rgb(248,169,49)" paint-order="fill" d="M 75.04545593261719 49.42857360839844 L 133.02684020996094 49.42857360839844 L 133.02684020996094 68.71428680419922 L 75.04545593261719 68.71428680419922 L 75.04545593261719 49.42857360839844 Z" fill-opacity="1" clip-path="url(#OguzNlTFTEyh)" stroke-opacity="1" stroke-linejoin="bevel" stroke-miterlimit="10"/><path fill="rgb(192,204,205)" stroke="rgb(192,204,205)" paint-order="fill" d="M 75.04545593261719 28 L 154.81716918945312 28 L 154.81716918945312 47.28571319580078 L 75.04545593261719 47.28571319580078 L 75.04545593261719 28 Z" fill-opacity="1" clip-path="url(#OguzNlTFTEyh)" stroke-opacity="1" stroke-linejoin="bevel" stroke-miterlimit="10"/><path fill="rgb(67,186,195)" stroke="rgb(67,186,195)" paint-order="fill" d="M 75.04545593261719 6.571428298950195 L 109.53494262695312 6.571428298950195 L 109.53494262695312 25.85714340209961 L 75.04545593261719 25.85714340209961 L 75.04545593261719 6.571428298950195 Z" fill-opacity="1" clip-path="url(#OguzNlTFTEyh)" stroke-opacity="1" stroke-linejoin="bevel" stroke-miterlimit="10"/><g clip-path="url(#RWVILTOQchyN)"><text fill="rgb(68,68,68)" stroke="none" font-family="helvetica" font-size="10px" font-style="normal" font-weight="normal" text-decoration="normal" x="37.18437194824219" y="144.2857208251953" text-anchor="start" dominant-baseline="alphabetic" transform="matrix(1, 0, 0, 1, 0.5, 0.5)" fill-opacity="1">5244</text></g><g clip-path="url(#RWVILTOQchyN)"><text fill="none" stroke="rgb(0,0,0)" font-family="helvetica" font-size="10px" font-style="normal" font-weight="normal" text-decoration="normal" x="37.18437194824219" y="144.2857208251953" text-anchor="start" dominant-baseline="alphabetic" transform="matrix(1, 0, 0, 1, 0.5, 0.5)" stroke-opacity="0" stroke-miterlimit="10" stroke-dasharray="">5244</text></g><g clip-path="url(#RWVILTOQchyN)"><text fill="rgb(68,68,68)" stroke="none" font-family="helvetica" font-size="10px" font-style="normal" font-weight="normal" text-decoration="normal" x="29.932174682617188" y="122.85713958740234" text-anchor="start" dominant-baseline="alphabetic" transform="matrix(1, 0, 0, 1, 0.5, 0.5)" fill-opacity="1">2235</text></g><g clip-path="url(#RWVILTOQchyN)"><text fill="none" stroke="rgb(0,0,0)" font-family="helvetica" font-size="10px" font-style="normal" font-weight="normal" text-decoration="normal" x="29.932174682617188" y="122.85713958740234" text-anchor="start" dominant-baseline="alphabetic" transform="matrix(1, 0, 0, 1, 0.5, 0.5)" stroke-opacity="0" stroke-miterlimit="10" stroke-dasharray="">2235</text></g><g clip-path="url(#RWVILTOQchyN)"><text fill="rgb(68,68,68)" stroke="none" font-family="helvetica" font-size="10px" font-style="normal" font-weight="normal" text-decoration="normal" x="115.45454406738281" y="101.42857360839844" text-anchor="start" dominant-baseline="alphabetic" transform="matrix(1, 0, 0, 1, 0.5, 0.5)" fill-opacity="1">37719</text></g><g clip-path="url(#RWVILTOQchyN)"><text fill="none" stroke="rgb(0,0,0)" font-family="helvetica" font-size="10px" font-style="normal" font-weight="normal" text-decoration="normal" x="115.45454406738281" y="101.42857360839844" text-anchor="start" dominant-baseline="alphabetic" transform="matrix(1, 0, 0, 1, 0.5, 0.5)" stroke-opacity="0" stroke-miterlimit="10" stroke-dasharray="">37719</text></g><g clip-path="url(#RWVILTOQchyN)"><text fill="rgb(68,68,68)" stroke="none" font-family="helvetica" font-size="10px" font-style="normal" font-weight="normal" text-decoration="normal" x="90.11163330078125" y="80" text-anchor="start" dominant-baseline="alphabetic" transform="matrix(1, 0, 0, 1, 0.5, 0.5)" fill-opacity="1">27204</text></g><g clip-path="url(#RWVILTOQchyN)"><text fill="none" stroke="rgb(0,0,0)" font-family="helvetica" font-size="10px" font-style="normal" font-weight="normal" text-decoration="normal" x="90.11163330078125" y="80" text-anchor="start" dominant-baseline="alphabetic" transform="matrix(1, 0, 0, 1, 0.5, 0.5)" stroke-opacity="0" stroke-miterlimit="10" stroke-dasharray="">27204</text></g><g clip-path="url(#RWVILTOQchyN)"><text fill="rgb(68,68,68)" stroke="none" font-family="helvetica" font-size="10px" font-style="normal" font-weight="normal" text-decoration="normal" x="82.52684020996094" y="58.57143020629883" text-anchor="start" dominant-baseline="alphabetic" transform="matrix(1, 0, 0, 1, 0.5, 0.5)" fill-opacity="1">24057</text></g><g clip-path="url(#RWVILTOQchyN)"><text fill="none" stroke="rgb(0,0,0)" font-family="helvetica" font-size="10px" font-style="normal" font-weight="normal" text-decoration="normal" x="82.52684020996094" y="58.57143020629883" text-anchor="start" dominant-baseline="alphabetic" transform="matrix(1, 0, 0, 1, 0.5, 0.5)" stroke-opacity="0" stroke-miterlimit="10" stroke-dasharray="">24057</text></g><g clip-path="url(#RWVILTOQchyN)"><text fill="rgb(68,68,68)" stroke="none" font-family="helvetica" font-size="10px" font-style="normal" font-weight="normal" text-decoration="normal" x="104.31716918945312" y="37.14285659790039" text-anchor="start" dominant-baseline="alphabetic" transform="matrix(1, 0, 0, 1, 0.5, 0.5)" fill-opacity="1">33098</text></g><g clip-path="url(#RWVILTOQchyN)"><text fill="none" stroke="rgb(0,0,0)" font-family="helvetica" font-size="10px" font-style="normal" font-weight="normal" text-decoration="normal" x="104.31716918945312" y="37.14285659790039" text-anchor="start" dominant-baseline="alphabetic" transform="matrix(1, 0, 0, 1, 0.5, 0.5)" stroke-opacity="0" stroke-miterlimit="10" stroke-dasharray="">33098</text></g><g clip-path="url(#RWVILTOQchyN)"><text fill="rgb(68,68,68)" stroke="none" font-family="helvetica" font-size="10px" font-style="normal" font-weight="normal" text-decoration="normal" x="59.034942626953125" y="15.714285850524902" text-anchor="start" dominant-baseline="alphabetic" transform="matrix(1, 0, 0, 1, 0.5, 0.5)" fill-opacity="1">14310</text></g><g clip-path="url(#RWVILTOQchyN)"><text fill="none" stroke="rgb(0,0,0)" font-family="helvetica" font-size="10px" font-style="normal" font-weight="normal" text-decoration="normal" x="59.034942626953125" y="15.714285850524902" text-anchor="start" dominant-baseline="alphabetic" transform="matrix(1, 0, 0, 1, 0.5, 0.5)" stroke-opacity="0" stroke-miterlimit="10" stroke-dasharray="">14310</text></g><path fill="none" stroke="rgb(0,0,0)" paint-order="fill" d="M 70.5 155.5 L 170.5 155.5" stroke-opacity="1" stroke-linejoin="bevel" stroke-miterlimit="10"/><path fill="none" stroke="rgb(0,0,0)" paint-order="fill" d="M 75.5 161.5 L 75.5 153.5 M 99.5 161.5 L 99.5 153.5 M 123.5 161.5 L 123.5 153.5 M 147.5 161.5 L 147.5 153.5" stroke-opacity="1" stroke-linejoin="bevel" stroke-miterlimit="10"/><path fill="none" stroke="rgb(0,0,0)" paint-order="fill" d="M 75.5 159.5 L 75.5 155.5 M 79.5 159.5 L 79.5 155.5 M 84.5 159.5 L 84.5 155.5 M 89.5 159.5 L 89.5 155.5 M 94.5 159.5 L 94.5 155.5 M 99.5 159.5 L 99.5 155.5 M 103.5 159.5 L 103.5 155.5 M 108.5 159.5 L 108.5 155.5 M 113.5 159.5 L 113.5 155.5 M 118.5 159.5 L 118.5 155.5 M 123.5 159.5 L 123.5 155.5 M 128.5 159.5 L 128.5 155.5 M 132.5 159.5 L 132.5 155.5 M 137.5 159.5 L 137.5 155.5 M 142.5 159.5 L 142.5 155.5 M 147.5 159.5 L 147.5 155.5 M 152.5 159.5 L 152.5 155.5 M 156.5 159.5 L 156.5 155.5 M 161.5 159.5 L 161.5 155.5 M 166.5 159.5 L 166.5 155.5" stroke-opacity="1" stroke-linejoin="bevel" stroke-miterlimit="10"/><text fill="rgb(68,68,68)" stroke="none" font-family="helvetica" font-size="11px" font-style="normal" font-weight="normal" text-decoration="normal" x="71.04545593261719" y="174" text-anchor="start" dominant-baseline="alphabetic" transform="matrix(1, 0, 0, 1, 0.5, 0.5)" fill-opacity="1">0</text><text fill="none" stroke="rgb(0,0,0)" font-family="helvetica" font-size="11px" font-style="normal" font-weight="normal" text-decoration="normal" x="71.04545593261719" y="174" text-anchor="start" dominant-baseline="alphabetic" transform="matrix(1, 0, 0, 1, 0.5, 0.5)" stroke-opacity="0" stroke-linejoin="bevel" stroke-miterlimit="10">0</text><text fill="rgb(68,68,68)" stroke="none" font-family="helvetica" font-size="11px" font-style="normal" font-weight="normal" text-decoration="normal" x="81.14712524414062" y="174" text-anchor="start" dominant-baseline="alphabetic" transform="matrix(1, 0, 0, 1, 0.5, 0.5)" fill-opacity="1">10000</text><text fill="none" stroke="rgb(0,0,0)" font-family="helvetica" font-size="11px" font-style="normal" font-weight="normal" text-decoration="normal" x="81.14712524414062" y="174" text-anchor="start" dominant-baseline="alphabetic" transform="matrix(1, 0, 0, 1, 0.5, 0.5)" stroke-opacity="0" stroke-linejoin="bevel" stroke-miterlimit="10">10000</text><text fill="rgb(68,68,68)" stroke="none" font-family="helvetica" font-size="11px" font-style="normal" font-weight="normal" text-decoration="normal" x="105.24879455566406" y="174" text-anchor="start" dominant-baseline="alphabetic" transform="matrix(1, 0, 0, 1, 0.5, 0.5)" fill-opacity="1">20000</text><text fill="none" stroke="rgb(0,0,0)" font-family="helvetica" font-size="11px" font-style="normal" font-weight="normal" text-decoration="normal" x="105.24879455566406" y="174" text-anchor="start" dominant-baseline="alphabetic" transform="matrix(1, 0, 0, 1, 0.5, 0.5)" stroke-opacity="0" stroke-linejoin="bevel" stroke-miterlimit="10">20000</text><text fill="rgb(68,68,68)" stroke="none" font-family="helvetica" font-size="11px" font-style="normal" font-weight="normal" text-decoration="normal" x="129.3504638671875" y="174" text-anchor="start" dominant-baseline="alphabetic" transform="matrix(1, 0, 0, 1, 0.5, 0.5)" fill-opacity="1">30000</text><text fill="none" stroke="rgb(0,0,0)" font-family="helvetica" font-size="11px" font-style="normal" font-weight="normal" text-decoration="normal" x="129.3504638671875" y="174" text-anchor="start" dominant-baseline="alphabetic" transform="matrix(1, 0, 0, 1, 0.5, 0.5)" stroke-opacity="0" stroke-linejoin="bevel" stroke-miterlimit="10">30000</text><text fill="rgb(68,68,68)" stroke="none" font-family="helvetica" font-size="13px" font-style="italic" font-weight="normal" text-decoration="normal" x="58" y="194" text-anchor="start" dominant-baseline="alphabetic" transform="matrix(1, 0, 0, 1, 0.5, 0.5)" fill-opacity="1">Aantal verhuringen</text><text fill="none" stroke="rgb(0,0,0)" font-family="helvetica" font-size="13px" font-style="italic" font-weight="normal" text-decoration="normal" x="58" y="194" text-anchor="start" dominant-baseline="alphabetic" transform="matrix(1, 0, 0, 1, 0.5, 0.5)" stroke-opacity="0" stroke-linejoin="bevel" stroke-miterlimit="10">Aantal verhuringen</text><path fill="none" stroke="rgb(0,0,0)" paint-order="fill" d="M 70.5 155.5 L 70.5 5.5" stroke-opacity="1" stroke-linejoin="bevel" stroke-miterlimit="10"/><path fill="none" stroke="rgb(0,0,0)" paint-order="fill" d="M 64.5 144.5 L 72.5 144.5 M 64.5 123.5 L 72.5 123.5 M 64.5 101.5 L 72.5 101.5 M 64.5 80.5 L 72.5 80.5 M 64.5 59.5 L 72.5 59.5 M 64.5 37.5 L 72.5 37.5 M 64.5 16.5 L 72.5 16.5" stroke-opacity="1" stroke-linejoin="bevel" stroke-miterlimit="10"/><path fill="none" stroke="rgb(0,0,0)" paint-order="fill" d="" stroke-opacity="1" stroke-linejoin="bevel" stroke-miterlimit="10"/><text fill="rgb(68,68,68)" stroke="none" font-family="helvetica" font-size="11px" font-style="normal" font-weight="normal" text-decoration="normal" x="20" y="147.7857208251953" text-anchor="start" dominant-baseline="alphabetic" transform="matrix(1, 0, 0, 1, 0.5, 0.5)" fill-opacity="1">baqme</text><text fill="none" stroke="rgb(0,0,0)" font-family="helvetica" font-size="11px" font-style="normal" font-weight="normal" text-decoration="normal" x="20" y="147.7857208251953" text-anchor="start" dominant-baseline="alphabetic" transform="matrix(1, 0, 0, 1, 0.5, 0.5)" stroke-opacity="0" stroke-linejoin="bevel" stroke-miterlimit="10">baqme</text><text fill="rgb(68,68,68)" stroke="none" font-family="helvetica" font-size="11px" font-style="normal" font-weight="normal" text-decoration="normal" x="8" y="126.35713958740234" text-anchor="start" dominant-baseline="alphabetic" transform="matrix(1, 0, 0, 1, 0.5, 0.5)" fill-opacity="1">cargoroo</text><text fill="none" stroke="rgb(0,0,0)" font-family="helvetica" font-size="11px" font-style="normal" font-weight="normal" text-decoration="normal" x="8" y="126.35713958740234" text-anchor="start" dominant-baseline="alphabetic" transform="matrix(1, 0, 0, 1, 0.5, 0.5)" stroke-opacity="0" stroke-linejoin="bevel" stroke-miterlimit="10">cargoroo</text><text fill="rgb(68,68,68)" stroke="none" font-family="helvetica" font-size="11px" font-style="normal" font-weight="normal" text-decoration="normal" x="27" y="104.92857360839844" text-anchor="start" dominant-baseline="alphabetic" transform="matrix(1, 0, 0, 1, 0.5, 0.5)" fill-opacity="1">check</text><text fill="none" stroke="rgb(0,0,0)" font-family="helvetica" font-size="11px" font-style="normal" font-weight="normal" text-decoration="normal" x="27" y="104.92857360839844" text-anchor="start" dominant-baseline="alphabetic" transform="matrix(1, 0, 0, 1, 0.5, 0.5)" stroke-opacity="0" stroke-linejoin="bevel" stroke-miterlimit="10">check</text><text fill="rgb(68,68,68)" stroke="none" font-family="helvetica" font-size="11px" font-style="normal" font-weight="normal" text-decoration="normal" x="18" y="83.5" text-anchor="start" dominant-baseline="alphabetic" transform="matrix(1, 0, 0, 1, 0.5, 0.5)" fill-opacity="1">donkey</text><text fill="none" stroke="rgb(0,0,0)" font-family="helvetica" font-size="11px" font-style="normal" font-weight="normal" text-decoration="normal" x="18" y="83.5" text-anchor="start" dominant-baseline="alphabetic" transform="matrix(1, 0, 0, 1, 0.5, 0.5)" stroke-opacity="0" stroke-linejoin="bevel" stroke-miterlimit="10">donkey</text><text fill="rgb(68,68,68)" stroke="none" font-family="helvetica" font-size="11px" font-style="normal" font-weight="normal" text-decoration="normal" x="31" y="62.07143020629883" text-anchor="start" dominant-baseline="alphabetic" transform="matrix(1, 0, 0, 1, 0.5, 0.5)" fill-opacity="1">felyx</text><text fill="none" stroke="rgb(0,0,0)" font-family="helvetica" font-size="11px" font-style="normal" font-weight="normal" text-decoration="normal" x="31" y="62.07143020629883" text-anchor="start" dominant-baseline="alphabetic" transform="matrix(1, 0, 0, 1, 0.5, 0.5)" stroke-opacity="0" stroke-linejoin="bevel" stroke-miterlimit="10">felyx</text><text fill="rgb(68,68,68)" stroke="none" font-family="helvetica" font-size="11px" font-style="normal" font-weight="normal" text-decoration="normal" x="3" y="40.64285659790039" text-anchor="start" dominant-baseline="alphabetic" transform="matrix(1, 0, 0, 1, 0.5, 0.5)" fill-opacity="1">gosharing</text><text fill="none" stroke="rgb(0,0,0)" font-family="helvetica" font-size="11px" font-style="normal" font-weight="normal" text-decoration="normal" x="3" y="40.64285659790039" text-anchor="start" dominant-baseline="alphabetic" transform="matrix(1, 0, 0, 1, 0.5, 0.5)" stroke-opacity="0" stroke-linejoin="bevel" stroke-miterlimit="10">gosharing</text><text fill="rgb(68,68,68)" stroke="none" font-family="helvetica" font-size="11px" font-style="normal" font-weight="normal" text-decoration="normal" x="35" y="19.214285850524902" text-anchor="start" dominant-baseline="alphabetic" transform="matrix(1, 0, 0, 1, 0.5, 0.5)" fill-opacity="1">lime</text><text fill="none" stroke="rgb(0,0,0)" font-family="helvetica" font-size="11px" font-style="normal" font-weight="normal" text-decoration="normal" x="35" y="19.214285850524902" text-anchor="start" dominant-baseline="alphabetic" transform="matrix(1, 0, 0, 1, 0.5, 0.5)" stroke-opacity="0" stroke-linejoin="bevel" stroke-miterlimit="10">lime</text></svg>