<svg version="1.1" xmlns="http://www.w3.org/2000/svg" width="200" height="200"><defs><clipPath id="KDQIHDyoPopG"><path fill="none" stroke="none" d="M 0.5 0.5 L 200.5 0.5 L 200.5 200.5 L 0.5 200.5 L 0.5 0.5 Z M 49.5 5.5 L 170.5 5.5 L 170.5 173.5 L 49.5 173.5 L 49.5 5.5 Z" clip-rule="evenodd"/></clipPath><clipPath id="ygUMObIWyPpP"><path fill="none" stroke="none" d="M 49.5 5.5 L 170.5 5.5 L 170.5 173.5 L 49.5 173.5 L 49.5 5.5 Z"/></clipPath><clipPath id="AmpodmOpEgCd"><path fill="none" stroke="none" d="M 49.5 5.5 L 170.5 5.5 L 170.5 173.5 L 49.5 173.5 L 49.5 5.5 Z"/></clipPath><clipPath id="gPpqAiANVhTC"><path fill="none" stroke="none" d="M 49.5 5.5 L 170.5 5.5 L 170.5 173.5 L 49.5 173.5 L 49.5 5.5 Z"/></clipPath><clipPath id="dSHhPOhsUpVR"><path fill="none" stroke="none" d="M 49.5 5.5 L 170.5 5.5 L 170.5 173.5 L 49.5 173.5 L 49.5 5.5 Z"/></clipPath></defs><path fill="rgb(255,255,255)" stroke="none" paint-order="stroke" d="M 0.5 0.5 L 200.5 0.5 L 200.5 200.5 L 0.5 200.5 L 0.5 0.5 Z" fill-opacity="1" clip-path="url(#KDQIHDyoPopG)"/><path fill="rgb(255,255,255)" stroke="none" paint-order="stroke" d="M 49.5 5.5 L 170.5 5.5 L 170.5 173.5 L 49.5 173.5 L 49.5 5.5 Z" fill-opacity="1"/><path fill="none" stroke="rgb(229,229,229)" paint-order="fill" d="M 49.5 5.5 L 170.5 5.5 L 170.5 173.5 L 49.5 173.5 L 49.5 5.5 Z" stroke-opacity="1" stroke-linejoin="bevel" stroke-miterlimit="10"/><path fill="none" stroke="rgb(229,229,229)" paint-order="fill" d="M 69.5 173.5 L 69.5 5.5 M 110.5 173.5 L 110.5 5.5 M 150.5 173.5 L 150.5 5.5" stroke-opacity="1" stroke-linejoin="bevel" stroke-miterlimit="10" clip-path="url(#ygUMObIWyPpP)"/><path fill="none" stroke="rgb(229,229,229)" paint-order="fill" d="M 49.5 165.5 L 170.5 165.5 M 49.5 136.5 L 170.5 136.5 M 49.5 107.5 L 170.5 107.5 M 49.5 79.5 L 170.5 79.5 M 49.5 50.5 L 170.5 50.5 M 49.5 21.5 L 170.5 21.5" stroke-opacity="1" stroke-linejoin="bevel" stroke-miterlimit="10" clip-path="url(#AmpodmOpEgCd)"/><path fill="rgb(248,169,49)" stroke="rgb(248,169,49)" paint-order="fill" d="M 51.51666259765625 13.136363983154297 L 87.81666564941406 13.136363983154297 L 87.81666564941406 165.86363220214844 L 51.51666259765625 165.86363220214844 L 51.51666259765625 13.136363983154297 Z" fill-opacity="1" clip-path="url(#gPpqAiANVhTC)" stroke-opacity="1" stroke-linejoin="bevel" stroke-miterlimit="10"/><path fill="rgb(192,204,205)" stroke="rgb(192,204,205)" paint-order="fill" d="M 91.8499984741211 58.27202606201172 L 128.1500015258789 58.27202606201172 L 128.1500015258789 165.86363220214844 L 91.8499984741211 165.86363220214844 L 91.8499984741211 58.27202606201172 Z" fill-opacity="1" clip-path="url(#gPpqAiANVhTC)" stroke-opacity="1" stroke-linejoin="bevel" stroke-miterlimit="10"/><path fill="rgb(67,186,195)" stroke="rgb(67,186,195)" paint-order="fill" d="M 132.18333435058594 129.6028289794922 L 168.4833221435547 129.6028289794922 L 168.4833221435547 165.86363220214844 L 132.18333435058594 165.86363220214844 L 132.18333435058594 129.6028289794922 Z" fill-opacity="1" clip-path="url(#gPpqAiANVhTC)" stroke-opacity="1" stroke-linejoin="bevel" stroke-miterlimit="10"/><path fill="none" stroke="rgb(0,0,0)" paint-order="fill" d="M 49.5 173.5 L 170.5 173.5" stroke-opacity="1" stroke-linejoin="bevel" stroke-miterlimit="10"/><path fill="none" stroke="rgb(0,0,0)" paint-order="fill" d="M 69.5 179.5 L 69.5 171.5 M 110.5 179.5 L 110.5 171.5 M 150.5 179.5 L 150.5 171.5" stroke-opacity="1" stroke-linejoin="bevel" stroke-miterlimit="10"/><path fill="none" stroke="rgb(0,0,0)" paint-order="fill" d="" stroke-opacity="1" stroke-linejoin="bevel" stroke-miterlimit="10"/><text fill="rgb(68,68,68)" stroke="none" font-family="helvetica" font-size="11px" font-style="normal" font-weight="normal" text-decoration="normal" x="49.666664123535156" y="194" text-anchor="start" dominant-baseline="alphabetic" transform="matrix(1, 0, 0, 1, 0.5, 0.5)" fill-opacity="1">bicycle</text><text fill="none" stroke="rgb(0,0,0)" font-family="helvetica" font-size="11px" font-style="normal" font-weight="normal" text-decoration="normal" x="49.666664123535156" y="194" text-anchor="start" dominant-baseline="alphabetic" transform="matrix(1, 0, 0, 1, 0.5, 0.5)" stroke-opacity="0" stroke-linejoin="bevel" stroke-miterlimit="10">bicycle</text><text fill="rgb(68,68,68)" stroke="none" font-family="helvetica" font-size="11px" font-style="normal" font-weight="normal" text-decoration="normal" x="90" y="194" text-anchor="start" dominant-baseline="alphabetic" transform="matrix(1, 0, 0, 1, 0.5, 0.5)" fill-opacity="1">moped</text><text fill="none" stroke="rgb(0,0,0)" font-family="helvetica" font-size="11px" font-style="normal" font-weight="normal" text-decoration="normal" x="90" y="194" text-anchor="start" dominant-baseline="alphabetic" transform="matrix(1, 0, 0, 1, 0.5, 0.5)" stroke-opacity="0" stroke-linejoin="bevel" stroke-miterlimit="10">moped</text><text fill="rgb(68,68,68)" stroke="none" font-family="helvetica" font-size="11px" font-style="normal" font-weight="normal" text-decoration="normal" x="111.33332824707031" y="194" text-anchor="start" dominant-baseline="alphabetic" transform="matrix(1, 0, 0, 1, 0.5, 0.5)" fill-opacity="1">cargo_bicycle</text><text fill="none" stroke="rgb(0,0,0)" font-family="helvetica" font-size="11px" font-style="normal" font-weight="normal" text-decoration="normal" x="111.33332824707031" y="194" text-anchor="start" dominant-baseline="alphabetic" transform="matrix(1, 0, 0, 1, 0.5, 0.5)" stroke-opacity="0" stroke-linejoin="bevel" stroke-miterlimit="10">cargo_bicycle</text><path fill="none" stroke="rgb(0,0,0)" paint-order="fill" d="M 49.5 173.5 L 49.5 5.5" stroke-opacity="1" stroke-linejoin="bevel" stroke-miterlimit="10"/><path fill="none" stroke="rgb(0,0,0)" paint-order="fill" d="M 43.5 165.5 L 51.5 165.5 M 43.5 136.5 L 51.5 136.5 M 43.5 107.5 L 51.5 107.5 M 43.5 79.5 L 51.5 79.5 M 43.5 50.5 L 51.5 50.5 M 43.5 21.5 L 51.5 21.5" stroke-opacity="1" stroke-linejoin="bevel" stroke-miterlimit="10"/><path fill="none" stroke="rgb(0,0,0)" paint-order="fill" d="M 45.5 171.5 L 49.5 171.5 M 45.5 165.5 L 49.5 165.5 M 45.5 160.5 L 49.5 160.5 M 45.5 154.5 L 49.5 154.5 M 45.5 148.5 L 49.5 148.5 M 45.5 142.5 L 49.5 142.5 M 45.5 136.5 L 49.5 136.5 M 45.5 131.5 L 49.5 131.5 M 45.5 125.5 L 49.5 125.5 M 45.5 119.5 L 49.5 119.5 M 45.5 113.5 L 49.5 113.5 M 45.5 107.5 L 49.5 107.5 M 45.5 102.5 L 49.5 102.5 M 45.5 96.5 L 49.5 96.5 M 45.5 90.5 L 49.5 90.5 M 45.5 84.5 L 49.5 84.5 M 45.5 79.5 L 49.5 79.5 M 45.5 73.5 L 49.5 73.5 M 45.5 67.5 L 49.5 67.5 M 45.5 61.5 L 49.5 61.5 M 45.5 55.5 L 49.5 55.5 M 45.5 50.5 L 49.5 50.5 M 45.5 44.5 L 49.5 44.5 M 45.5 38.5 L 49.5 38.5 M 45.5 32.5 L 49.5 32.5 M 45.5 26.5 L 49.5 26.5 M 45.5 21.5 L 49.5 21.5 M 45.5 15.5 L 49.5 15.5 M 45.5 9.5 L 49.5 9.5" stroke-opacity="1" stroke-linejoin="bevel" stroke-miterlimit="10"/><text fill="rgb(68,68,68)" stroke="none" font-family="helvetica" font-size="11px" font-style="normal" font-weight="normal" text-decoration="normal" x="31" y="169.36363220214844" text-anchor="start" dominant-baseline="alphabetic" transform="matrix(1, 0, 0, 1, 0.5, 0.5)" fill-opacity="1">0</text><text fill="none" stroke="rgb(0,0,0)" font-family="helvetica" font-size="11px" font-style="normal" font-weight="normal" text-decoration="normal" x="31" y="169.36363220214844" text-anchor="start" dominant-baseline="alphabetic" transform="matrix(1, 0, 0, 1, 0.5, 0.5)" stroke-opacity="0" stroke-linejoin="bevel" stroke-miterlimit="10">0</text><text fill="rgb(68,68,68)" stroke="none" font-family="helvetica" font-size="11px" font-style="normal" font-weight="normal" text-decoration="normal" x="10" y="140.4240264892578" text-anchor="start" dominant-baseline="alphabetic" transform="matrix(1, 0, 0, 1, 0.5, 0.5)" fill-opacity="1">5000</text><text fill="none" stroke="rgb(0,0,0)" font-family="helvetica" font-size="11px" font-style="normal" font-weight="normal" text-decoration="normal" x="10" y="140.4240264892578" text-anchor="start" dominant-baseline="alphabetic" transform="matrix(1, 0, 0, 1, 0.5, 0.5)" stroke-opacity="0" stroke-linejoin="bevel" stroke-miterlimit="10">5000</text><text fill="rgb(68,68,68)" stroke="none" font-family="helvetica" font-size="11px" font-style="normal" font-weight="normal" text-decoration="normal" x="3" y="111.48441314697266" text-anchor="start" dominant-baseline="alphabetic" transform="matrix(1, 0, 0, 1, 0.5, 0.5)" fill-opacity="1">10000</text><text fill="none" stroke="rgb(0,0,0)" font-family="helvetica" font-size="11px" font-style="normal" font-weight="normal" text-decoration="normal" x="3" y="111.48441314697266" text-anchor="start" dominant-baseline="alphabetic" transform="matrix(1, 0, 0, 1, 0.5, 0.5)" stroke-opacity="0" stroke-linejoin="bevel" stroke-miterlimit="10">10000</text><text fill="rgb(68,68,68)" stroke="none" font-family="helvetica" font-size="11px" font-style="normal" font-weight="normal" text-decoration="normal" x="3" y="82.5447998046875" text-anchor="start" dominant-baseline="alphabetic" transform="matrix(1, 0, 0, 1, 0.5, 0.5)" fill-opacity="1">15000</text><text fill="none" stroke="rgb(0,0,0)" font-family="helvetica" font-size="11px" font-style="normal" font-weight="normal" text-decoration="normal" x="3" y="82.5447998046875" text-anchor="start" dominant-baseline="alphabetic" transform="matrix(1, 0, 0, 1, 0.5, 0.5)" stroke-opacity="0" stroke-linejoin="bevel" stroke-miterlimit="10">15000</text><text fill="rgb(68,68,68)" stroke="none" font-family="helvetica" font-size="11px" font-style="normal" font-weight="normal" text-decoration="normal" x="3" y="53.605186462402344" text-anchor="start" dominant-baseline="alphabetic" transform="matrix(1, 0, 0, 1, 0.5, 0.5)" fill-opacity="1">20000</text><text fill="none" stroke="rgb(0,0,0)" font-family="helvetica" font-size="11px" font-style="normal" font-weight="normal" text-decoration="normal" x="3" y="53.605186462402344" text-anchor="start" dominant-baseline="alphabetic" transform="matrix(1, 0, 0, 1, 0.5, 0.5)" stroke-opacity="0" stroke-linejoin="bevel" stroke-miterlimit="10">20000</text><text fill="rgb(68,68,68)" stroke="none" font-family="helvetica" font-size="11px" font-style="normal" font-weight="normal" text-decoration="normal" x="3" y="24.665573120117188" text-anchor="start" dominant-baseline="alphabetic" transform="matrix(1, 0, 0, 1, 0.5, 0.5)" fill-opacity="1">25000</text><text fill="none" stroke="rgb(0,0,0)" font-family="helvetica" font-size="11px" font-style="normal" font-weight="normal" text-decoration="normal" x="3" y="24.665573120117188" text-anchor="start" dominant-baseline="alphabetic" transform="matrix(1, 0, 0, 1, 0.5, 0.5)" stroke-opacity="0" stroke-linejoin="bevel" stroke-miterlimit="10">25000</text></svg>