<svg version="1.1" xmlns="http://www.w3.org/2000/svg" width="200" height="200"><defs><clipPath id="UZRoMpSSyvZH"><path fill="none" stroke="none" d="M 0.5 0.5 L 200.5 0.5 L 200.5 200.5 L 0.5 200.5 L 0.5 0.5 Z M 42.5 5.5 L 170.5 5.5 L 170.5 173.5 L 42.5 173.5 L 42.5 5.5 Z" clip-rule="evenodd"/></clipPath><clipPath id="ptMgdMvmnSeR"><path fill="none" stroke="none" d="M 42.5 5.5 L 170.5 5.5 L 170.5 173.5 L 42.5 173.5 L 42.5 5.5 Z"/></clipPath><clipPath id="wNJZSdvbqLrm"><path fill="none" stroke="none" d="M 42.5 5.5 L 170.5 5.5 L 170.5 173.5 L 42.5 173.5 L 42.5 5.5 Z"/></clipPath><clipPath id="nsTXnDolXwtr"><path fill="none" stroke="none" d="M 42.5 5.5 L 170.5 5.5 L 170.5 173.5 L 42.5 173.5 L 42.5 5.5 Z"/></clipPath><clipPath id="BNeARqTcAJJL"><path fill="none" stroke="none" d="M 42.5 5.5 L 170.5 5.5 L 170.5 173.5 L 42.5 173.5 L 42.5 5.5 Z"/></clipPath></defs><path fill="rgb(255,255,255)" stroke="none" paint-order="stroke" d="M 0.5 0.5 L 200.5 0.5 L 200.5 200.5 L 0.5 200.5 L 0.5 0.5 Z" fill-opacity="1" clip-path="url(#UZRoMpSSyvZH)"/><path fill="rgb(255,255,255)" stroke="none" paint-order="stroke" d="M 42.5 5.5 L 170.5 5.5 L 170.5 173.5 L 42.5 173.5 L 42.5 5.5 Z" fill-opacity="1"/><path fill="none" stroke="rgb(229,229,229)" paint-order="fill" d="M 42.5 5.5 L 170.5 5.5 L 170.5 173.5 L 42.5 173.5 L 42.5 5.5 Z" stroke-opacity="1" stroke-linejoin="bevel" stroke-miterlimit="10"/><path fill="none" stroke="rgb(229,229,229)" paint-order="fill" d="M 74.5 173.5 L 74.5 5.5 M 138.5 173.5 L 138.5 5.5" stroke-opacity="1" stroke-linejoin="bevel" stroke-miterlimit="10" clip-path="url(#ptMgdMvmnSeR)"/><path fill="none" stroke="rgb(229,229,229)" paint-order="fill" d="M 42.5 165.5 L 170.5 165.5 M 42.5 123.5 L 170.5 123.5 M 42.5 81.5 L 170.5 81.5 M 42.5 39.5 L 170.5 39.5" stroke-opacity="1" stroke-linejoin="bevel" stroke-miterlimit="10" clip-path="url(#wNJZSdvbqLrm)"/><path fill="rgb(248,169,49)" stroke="rgb(248,169,49)" paint-order="fill" d="M 45.70000076293945 13.136363983154297 L 103.30000305175781 13.136363983154297 L 103.30000305175781 165.86363220214844 L 45.70000076293945 165.86363220214844 L 45.70000076293945 13.136363983154297 Z" fill-opacity="1" clip-path="url(#nsTXnDolXwtr)" stroke-opacity="1" stroke-linejoin="bevel" stroke-miterlimit="10"/><path fill="rgb(192,204,205)" stroke="rgb(192,204,205)" paint-order="fill" d="M 109.69999694824219 16.397907257080078 L 167.3000030517578 16.397907257080078 L 167.3000030517578 165.86363220214844 L 109.69999694824219 165.86363220214844 L 109.69999694824219 16.397907257080078 Z" fill-opacity="1" clip-path="url(#nsTXnDolXwtr)" stroke-opacity="1" stroke-linejoin="bevel" stroke-miterlimit="10"/><path fill="none" stroke="rgb(0,0,0)" paint-order="fill" d="M 42.5 173.5 L 170.5 173.5" stroke-opacity="1" stroke-linejoin="bevel" stroke-miterlimit="10"/><path fill="none" stroke="rgb(0,0,0)" paint-order="fill" d="M 74.5 179.5 L 74.5 171.5 M 138.5 179.5 L 138.5 171.5" stroke-opacity="1" stroke-linejoin="bevel" stroke-miterlimit="10"/><path fill="none" stroke="rgb(0,0,0)" paint-order="fill" d="" stroke-opacity="1" stroke-linejoin="bevel" stroke-miterlimit="10"/><text fill="rgb(68,68,68)" stroke="none" font-family="helvetica" font-size="11px" font-style="normal" font-weight="normal" text-decoration="normal" x="54.5" y="194" text-anchor="start" dominant-baseline="alphabetic" transform="matrix(1, 0, 0, 1, 0.5, 0.5)" fill-opacity="1">bicycle</text><text fill="none" stroke="rgb(0,0,0)" font-family="helvetica" font-size="11px" font-style="normal" font-weight="normal" text-decoration="normal" x="54.5" y="194" text-anchor="start" dominant-baseline="alphabetic" transform="matrix(1, 0, 0, 1, 0.5, 0.5)" stroke-opacity="0" stroke-linejoin="bevel" stroke-miterlimit="10">bicycle</text><text fill="rgb(68,68,68)" stroke="none" font-family="helvetica" font-size="11px" font-style="normal" font-weight="normal" text-decoration="normal" x="118.5" y="194" text-anchor="start" dominant-baseline="alphabetic" transform="matrix(1, 0, 0, 1, 0.5, 0.5)" fill-opacity="1">moped</text><text fill="none" stroke="rgb(0,0,0)" font-family="helvetica" font-size="11px" font-style="normal" font-weight="normal" text-decoration="normal" x="118.5" y="194" text-anchor="start" dominant-baseline="alphabetic" transform="matrix(1, 0, 0, 1, 0.5, 0.5)" stroke-opacity="0" stroke-linejoin="bevel" stroke-miterlimit="10">moped</text><path fill="none" stroke="rgb(0,0,0)" paint-order="fill" d="M 42.5 173.5 L 42.5 5.5" stroke-opacity="1" stroke-linejoin="bevel" stroke-miterlimit="10"/><path fill="none" stroke="rgb(0,0,0)" paint-order="fill" d="M 36.5 165.5 L 44.5 165.5 M 36.5 123.5 L 44.5 123.5 M 36.5 81.5 L 44.5 81.5 M 36.5 39.5 L 44.5 39.5" stroke-opacity="1" stroke-linejoin="bevel" stroke-miterlimit="10"/><path fill="none" stroke="rgb(0,0,0)" paint-order="fill" d="M 38.5 165.5 L 42.5 165.5 M 38.5 157.5 L 42.5 157.5 M 38.5 148.5 L 42.5 148.5 M 38.5 140.5 L 42.5 140.5 M 38.5 132.5 L 42.5 132.5 M 38.5 123.5 L 42.5 123.5 M 38.5 115.5 L 42.5 115.5 M 38.5 106.5 L 42.5 106.5 M 38.5 98.5 L 42.5 98.5 M 38.5 89.5 L 42.5 89.5 M 38.5 81.5 L 42.5 81.5 M 38.5 72.5 L 42.5 72.5 M 38.5 64.5 L 42.5 64.5 M 38.5 56.5 L 42.5 56.5 M 38.5 47.5 L 42.5 47.5 M 38.5 39.5 L 42.5 39.5 M 38.5 30.5 L 42.5 30.5 M 38.5 22.5 L 42.5 22.5 M 38.5 13.5 L 42.5 13.5" stroke-opacity="1" stroke-linejoin="bevel" stroke-miterlimit="10"/><text fill="rgb(68,68,68)" stroke="none" font-family="helvetica" font-size="11px" font-style="normal" font-weight="normal" text-decoration="normal" x="24" y="169.36363220214844" text-anchor="start" dominant-baseline="alphabetic" transform="matrix(1, 0, 0, 1, 0.5, 0.5)" fill-opacity="1">0</text><text fill="none" stroke="rgb(0,0,0)" font-family="helvetica" font-size="11px" font-style="normal" font-weight="normal" text-decoration="normal" x="24" y="169.36363220214844" text-anchor="start" dominant-baseline="alphabetic" transform="matrix(1, 0, 0, 1, 0.5, 0.5)" stroke-opacity="0" stroke-linejoin="bevel" stroke-miterlimit="10">0</text><text fill="rgb(68,68,68)" stroke="none" font-family="helvetica" font-size="11px" font-style="normal" font-weight="normal" text-decoration="normal" x="10" y="127.11456298828125" text-anchor="start" dominant-baseline="alphabetic" transform="matrix(1, 0, 0, 1, 0.5, 0.5)" fill-opacity="1">500</text><text fill="none" stroke="rgb(0,0,0)" font-family="helvetica" font-size="11px" font-style="normal" font-weight="normal" text-decoration="normal" x="10" y="127.11456298828125" text-anchor="start" dominant-baseline="alphabetic" transform="matrix(1, 0, 0, 1, 0.5, 0.5)" stroke-opacity="0" stroke-linejoin="bevel" stroke-miterlimit="10">500</text><text fill="rgb(68,68,68)" stroke="none" font-family="helvetica" font-size="11px" font-style="normal" font-weight="normal" text-decoration="normal" x="3" y="84.86549377441406" text-anchor="start" dominant-baseline="alphabetic" transform="matrix(1, 0, 0, 1, 0.5, 0.5)" fill-opacity="1">1000</text><text fill="none" stroke="rgb(0,0,0)" font-family="helvetica" font-size="11px" font-style="normal" font-weight="normal" text-decoration="normal" x="3" y="84.86549377441406" text-anchor="start" dominant-baseline="alphabetic" transform="matrix(1, 0, 0, 1, 0.5, 0.5)" stroke-opacity="0" stroke-linejoin="bevel" stroke-miterlimit="10">1000</text><text fill="rgb(68,68,68)" stroke="none" font-family="helvetica" font-size="11px" font-style="normal" font-weight="normal" text-decoration="normal" x="3" y="42.616416931152344" text-anchor="start" dominant-baseline="alphabetic" transform="matrix(1, 0, 0, 1, 0.5, 0.5)" fill-opacity="1">1500</text><text fill="none" stroke="rgb(0,0,0)" font-family="helvetica" font-size="11px" font-style="normal" font-weight="normal" text-decoration="normal" x="3" y="42.616416931152344" text-anchor="start" dominant-baseline="alphabetic" transform="matrix(1, 0, 0, 1, 0.5, 0.5)" stroke-opacity="0" stroke-linejoin="bevel" stroke-miterlimit="10">1500</text></svg>