<svg version="1.1" xmlns="http://www.w3.org/2000/svg" width="200" height="200"><defs><clipPath id="DZsHcmKaRdJM"><path fill="none" stroke="none" d="M 0.5 0.5 L 200.5 0.5 L 200.5 200.5 L 0.5 200.5 L 0.5 0.5 Z M 148.5 5.5 L 170.5 5.5 L 170.5 178.5 L 148.5 178.5 L 148.5 5.5 Z" clip-rule="evenodd"/></clipPath><clipPath id="JekfBTTtzJJz"><path fill="none" stroke="none" d="M 148.5 5.5 L 170.5 5.5 L 170.5 178.5 L 148.5 178.5 L 148.5 5.5 Z"/></clipPath><clipPath id="JbHAHGtpFLPR"><path fill="none" stroke="none" d="M 148.5 5.5 L 170.5 5.5 L 170.5 178.5 L 148.5 178.5 L 148.5 5.5 Z"/></clipPath><clipPath id="WBIRTVFgroXG"><path fill="none" stroke="none" d="M 148.5 5.5 L 170.5 5.5 L 170.5 178.5 L 148.5 178.5 L 148.5 5.5 Z"/></clipPath><clipPath id="ZHnmoJGuUVza"><path fill="none" stroke="none" d="M 148.5 5.5 L 170.5 5.5 L 170.5 178.5 L 148.5 178.5 L 148.5 5.5 Z"/></clipPath></defs><path fill="rgb(255,255,255)" stroke="none" paint-order="stroke" d="M 0.5 0.5 L 200.5 0.5 L 200.5 200.5 L 0.5 200.5 L 0.5 0.5 Z" fill-opacity="1" clip-path="url(#DZsHcmKaRdJM)"/><path fill="rgb(255,255,255)" stroke="none" paint-order="stroke" d="M 148.5 5.5 L 170.5 5.5 L 170.5 178.5 L 148.5 178.5 L 148.5 5.5 Z" fill-opacity="1"/><path fill="none" stroke="rgb(229,229,229)" paint-order="fill" d="M 148.5 5.5 L 170.5 5.5 L 170.5 178.5 L 148.5 178.5 L 148.5 5.5 Z" stroke-opacity="1" stroke-linejoin="bevel" stroke-miterlimit="10"/><path fill="none" stroke="rgb(229,229,229)" paint-order="fill" d="M 149.5 178.5 L 149.5 5.5 M 155.5 178.5 L 155.5 5.5 M 161.5 178.5 L 161.5 5.5 M 168.5 178.5 L 168.5 5.5" stroke-opacity="1" stroke-linejoin="bevel" stroke-miterlimit="10" clip-path="url(#JekfBTTtzJJz)"/><path fill="none" stroke="rgb(229,229,229)" paint-order="fill" d="M 148.5 161.5 L 170.5 161.5 M 148.5 126.5 L 170.5 126.5 M 148.5 92.5 L 170.5 92.5 M 148.5 57.5 L 170.5 57.5 M 148.5 22.5 L 170.5 22.5" stroke-opacity="1" stroke-linejoin="bevel" stroke-miterlimit="10" clip-path="url(#JbHAHGtpFLPR)"/><path fill="rgb(248,169,49)" stroke="rgb(248,169,49)" paint-order="fill" d="M 149.5 145.6300048828125 L 169.5 145.6300048828125 L 169.5 176.76998901367188 L 149.5 176.76998901367188 L 149.5 145.6300048828125 Z" fill-opacity="1" clip-path="url(#WBIRTVFgroXG)" stroke-opacity="1" stroke-linejoin="bevel" stroke-miterlimit="10"/><path fill="rgb(192,204,205)" stroke="rgb(192,204,205)" paint-order="fill" d="M 149.5 111.02999877929688 L 169.5 111.02999877929688 L 169.5 142.1699981689453 L 149.5 142.1699981689453 L 149.5 111.02999877929688 Z" fill-opacity="1" clip-path="url(#WBIRTVFgroXG)" stroke-opacity="1" stroke-linejoin="bevel" stroke-miterlimit="10"/><path fill="rgb(67,186,195)" stroke="rgb(67,186,195)" paint-order="fill" d="M 149.5 76.43000030517578 L 169.5 76.43000030517578 L 169.5 107.56999969482422 L 149.5 107.56999969482422 L 149.5 76.43000030517578 Z" fill-opacity="1" clip-path="url(#WBIRTVFgroXG)" stroke-opacity="1" stroke-linejoin="bevel" stroke-miterlimit="10"/><path fill="rgb(49,49,61)" stroke="rgb(49,49,61)" paint-order="fill" d="M 149.5 41.83000183105469 L 169.5 41.83000183105469 L 169.5 72.97000122070312 L 149.5 72.97000122070312 L 149.5 41.83000183105469 Z" fill-opacity="1" clip-path="url(#WBIRTVFgroXG)" stroke-opacity="1" stroke-linejoin="bevel" stroke-miterlimit="10"/><path fill="rgb(248,169,49)" stroke="rgb(248,169,49)" paint-order="fill" d="M 149.5 7.229999542236328 L 169.5 7.229999542236328 L 169.5 38.369998931884766 L 149.5 38.369998931884766 L 149.5 7.229999542236328 Z" fill-opacity="1" clip-path="url(#WBIRTVFgroXG)" stroke-opacity="1" stroke-linejoin="bevel" stroke-miterlimit="10"/><path fill="none" stroke="rgb(0,0,0)" paint-order="fill" d="M 148.5 178.5 L 170.5 178.5" stroke-opacity="1" stroke-linejoin="bevel" stroke-miterlimit="10"/><path fill="none" stroke="rgb(0,0,0)" paint-order="fill" d="M 149.5 184.5 L 149.5 176.5 M 155.5 184.5 L 155.5 176.5 M 161.5 184.5 L 161.5 176.5 M 168.5 184.5 L 168.5 176.5" stroke-opacity="1" stroke-linejoin="bevel" stroke-miterlimit="10"/><path fill="none" stroke="rgb(0,0,0)" paint-order="fill" d="M 149.5 182.5 L 149.5 178.5 M 150.5 182.5 L 150.5 178.5 M 151.5 182.5 L 151.5 178.5 M 153.5 182.5 L 153.5 178.5 M 154.5 182.5 L 154.5 178.5 M 155.5 182.5 L 155.5 178.5 M 156.5 182.5 L 156.5 178.5 M 158.5 182.5 L 158.5 178.5 M 159.5 182.5 L 159.5 178.5 M 160.5 182.5 L 160.5 178.5 M 161.5 182.5 L 161.5 178.5 M 163.5 182.5 L 163.5 178.5 M 164.5 182.5 L 164.5 178.5 M 165.5 182.5 L 165.5 178.5 M 166.5 182.5 L 166.5 178.5 M 168.5 182.5 L 168.5 178.5 M 169.5 182.5 L 169.5 178.5 M 170.5 182.5 L 170.5 178.5" stroke-opacity="1" stroke-linejoin="bevel" stroke-miterlimit="10"/><text fill="rgb(68,68,68)" stroke="none" font-family="helvetica" font-size="11px" font-style="normal" font-weight="normal" text-decoration="normal" x="145.5" y="197" text-anchor="start" dominant-baseline="alphabetic" transform="matrix(1, 0, 0, 1, 0.5, 0.5)" fill-opacity="1">0</text><text fill="none" stroke="rgb(0,0,0)" font-family="helvetica" font-size="11px" font-style="normal" font-weight="normal" text-decoration="normal" x="145.5" y="197" text-anchor="start" dominant-baseline="alphabetic" transform="matrix(1, 0, 0, 1, 0.5, 0.5)" stroke-opacity="0" stroke-linejoin="bevel" stroke-miterlimit="10">0</text><text fill="rgb(68,68,68)" stroke="none" font-family="helvetica" font-size="11px" font-style="normal" font-weight="normal" text-decoration="normal" x="144.66903686523438" y="197" text-anchor="start" dominant-baseline="alphabetic" transform="matrix(1, 0, 0, 1, 0.5, 0.5)" fill-opacity="1">500</text><text fill="none" stroke="rgb(0,0,0)" font-family="helvetica" font-size="11px" font-style="normal" font-weight="normal" text-decoration="normal" x="144.66903686523438" y="197" text-anchor="start" dominant-baseline="alphabetic" transform="matrix(1, 0, 0, 1, 0.5, 0.5)" stroke-opacity="0" stroke-linejoin="bevel" stroke-miterlimit="10">500</text><text fill="rgb(68,68,68)" stroke="none" font-family="helvetica" font-size="11px" font-style="normal" font-weight="normal" text-decoration="normal" x="147.3380584716797" y="197" text-anchor="start" dominant-baseline="alphabetic" transform="matrix(1, 0, 0, 1, 0.5, 0.5)" fill-opacity="1">1000</text><text fill="none" stroke="rgb(0,0,0)" font-family="helvetica" font-size="11px" font-style="normal" font-weight="normal" text-decoration="normal" x="147.3380584716797" y="197" text-anchor="start" dominant-baseline="alphabetic" transform="matrix(1, 0, 0, 1, 0.5, 0.5)" stroke-opacity="0" stroke-linejoin="bevel" stroke-miterlimit="10">1000</text><text fill="rgb(68,68,68)" stroke="none" font-family="helvetica" font-size="11px" font-style="normal" font-weight="normal" text-decoration="normal" x="153.50709533691406" y="197" text-anchor="start" dominant-baseline="alphabetic" transform="matrix(1, 0, 0, 1, 0.5, 0.5)" fill-opacity="1">1500</text><text fill="none" stroke="rgb(0,0,0)" font-family="helvetica" font-size="11px" font-style="normal" font-weight="normal" text-decoration="normal" x="153.50709533691406" y="197" text-anchor="start" dominant-baseline="alphabetic" transform="matrix(1, 0, 0, 1, 0.5, 0.5)" stroke-opacity="0" stroke-linejoin="bevel" stroke-miterlimit="10">1500</text><path fill="none" stroke="rgb(0,0,0)" paint-order="fill" d="M 148.5 178.5 L 148.5 5.5" stroke-opacity="1" stroke-linejoin="bevel" stroke-miterlimit="10"/><path fill="none" stroke="rgb(0,0,0)" paint-order="fill" d="M 142.5 161.5 L 150.5 161.5 M 142.5 126.5 L 150.5 126.5 M 142.5 92.5 L 150.5 92.5 M 142.5 57.5 L 150.5 57.5 M 142.5 22.5 L 150.5 22.5" stroke-opacity="1" stroke-linejoin="bevel" stroke-miterlimit="10"/><path fill="none" stroke="rgb(0,0,0)" paint-order="fill" d="" stroke-opacity="1" stroke-linejoin="bevel" stroke-miterlimit="10"/><text fill="rgb(68,68,68)" stroke="none" font-family="helvetica" font-size="11px" font-style="normal" font-weight="normal" text-decoration="normal" x="69" y="164.1999969482422" text-anchor="start" dominant-baseline="alphabetic" transform="matrix(1, 0, 0, 1, 0.5, 0.5)" fill-opacity="1">Katendrecht</text><text fill="none" stroke="rgb(0,0,0)" font-family="helvetica" font-size="11px" font-style="normal" font-weight="normal" text-decoration="normal" x="69" y="164.1999969482422" text-anchor="start" dominant-baseline="alphabetic" transform="matrix(1, 0, 0, 1, 0.5, 0.5)" stroke-opacity="0" stroke-linejoin="bevel" stroke-miterlimit="10">Katendrecht</text><text fill="rgb(68,68,68)" stroke="none" font-family="helvetica" font-size="11px" font-style="normal" font-weight="normal" text-decoration="normal" x="58" y="129.5999984741211" text-anchor="start" dominant-baseline="alphabetic" transform="matrix(1, 0, 0, 1, 0.5, 0.5)" fill-opacity="1">'s Gravenland</text><text fill="none" stroke="rgb(0,0,0)" font-family="helvetica" font-size="11px" font-style="normal" font-weight="normal" text-decoration="normal" x="58" y="129.5999984741211" text-anchor="start" dominant-baseline="alphabetic" transform="matrix(1, 0, 0, 1, 0.5, 0.5)" stroke-opacity="0" stroke-linejoin="bevel" stroke-miterlimit="10">'s Gravenland</text><text fill="rgb(68,68,68)" stroke="none" font-family="helvetica" font-size="11px" font-style="normal" font-weight="normal" text-decoration="normal" x="3" y="95" text-anchor="start" dominant-baseline="alphabetic" transform="matrix(1, 0, 0, 1, 0.5, 0.5)" fill-opacity="1">Kop van Zuid - Entrepot</text><text fill="none" stroke="rgb(0,0,0)" font-family="helvetica" font-size="11px" font-style="normal" font-weight="normal" text-decoration="normal" x="3" y="95" text-anchor="start" dominant-baseline="alphabetic" transform="matrix(1, 0, 0, 1, 0.5, 0.5)" stroke-opacity="0" stroke-linejoin="bevel" stroke-miterlimit="10">Kop van Zuid - Entrepot</text><text fill="rgb(68,68,68)" stroke="none" font-family="helvetica" font-size="11px" font-style="normal" font-weight="normal" text-decoration="normal" x="88" y="60.400001525878906" text-anchor="start" dominant-baseline="alphabetic" transform="matrix(1, 0, 0, 1, 0.5, 0.5)" fill-opacity="1">Carnisse</text><text fill="none" stroke="rgb(0,0,0)" font-family="helvetica" font-size="11px" font-style="normal" font-weight="normal" text-decoration="normal" x="88" y="60.400001525878906" text-anchor="start" dominant-baseline="alphabetic" transform="matrix(1, 0, 0, 1, 0.5, 0.5)" stroke-opacity="0" stroke-linejoin="bevel" stroke-miterlimit="10">Carnisse</text><text fill="rgb(68,68,68)" stroke="none" font-family="helvetica" font-size="11px" font-style="normal" font-weight="normal" text-decoration="normal" x="76" y="25.799999237060547" text-anchor="start" dominant-baseline="alphabetic" transform="matrix(1, 0, 0, 1, 0.5, 0.5)" fill-opacity="1">Liskwartier</text><text fill="none" stroke="rgb(0,0,0)" font-family="helvetica" font-size="11px" font-style="normal" font-weight="normal" text-decoration="normal" x="76" y="25.799999237060547" text-anchor="start" dominant-baseline="alphabetic" transform="matrix(1, 0, 0, 1, 0.5, 0.5)" stroke-opacity="0" stroke-linejoin="bevel" stroke-miterlimit="10">Liskwartier</text></svg>