<svg version="1.1" xmlns="http://www.w3.org/2000/svg" width="450" height="200"><defs><clipPath id="sbpnfCVtcmDw"><path fill="none" stroke="none" d="M 0.5 0.5 L 450.5 0.5 L 450.5 200.5 L 0.5 200.5 L 0.5 0.5 Z M 148.5 5.5 L 420.5 5.5 L 420.5 155.5 L 148.5 155.5 L 148.5 5.5 Z" clip-rule="evenodd"/></clipPath><clipPath id="UoMdkoQepbqC"><path fill="none" stroke="none" d="M 148.5 5.5 L 420.5 5.5 L 420.5 155.5 L 148.5 155.5 L 148.5 5.5 Z"/></clipPath><clipPath id="BgPRJAdeBvZV"><path fill="none" stroke="none" d="M 148.5 5.5 L 420.5 5.5 L 420.5 155.5 L 148.5 155.5 L 148.5 5.5 Z"/></clipPath><clipPath id="vHgGUAfXJRlv"><path fill="none" stroke="none" d="M 148.5 5.5 L 420.5 5.5 L 420.5 155.5 L 148.5 155.5 L 148.5 5.5 Z"/></clipPath><clipPath id="BXGZXyarPUkA"><path fill="none" stroke="none" d="M 148.5 5.5 L 420.5 5.5 L 420.5 155.5 L 148.5 155.5 L 148.5 5.5 Z"/></clipPath><clipPath id="AUBwTXTnDXSZ"><path fill="none" stroke="none" d="M 148.5 5.5 L 420.5 5.5 L 420.5 155.5 L 148.5 155.5 L 148.5 5.5 Z"/></clipPath></defs><path fill="rgb(255,255,255)" stroke="none" paint-order="stroke" d="M 0.5 0.5 L 450.5 0.5 L 450.5 200.5 L 0.5 200.5 L 0.5 0.5 Z" fill-opacity="1" clip-path="url(#sbpnfCVtcmDw)"/><path fill="rgb(255,255,255)" stroke="none" paint-order="stroke" d="M 148.5 5.5 L 420.5 5.5 L 420.5 155.5 L 148.5 155.5 L 148.5 5.5 Z" fill-opacity="1"/><path fill="none" stroke="rgb(229,229,229)" paint-order="fill" d="M 148.5 5.5 L 420.5 5.5 L 420.5 155.5 L 148.5 155.5 L 148.5 5.5 Z" stroke-opacity="1" stroke-linejoin="bevel" stroke-miterlimit="10"/><path fill="none" stroke="rgb(229,229,229)" paint-order="fill" d="M 160.5 155.5 L 160.5 5.5 M 237.5 155.5 L 237.5 5.5 M 313.5 155.5 L 313.5 5.5 M 389.5 155.5 L 389.5 5.5" stroke-opacity="1" stroke-linejoin="bevel" stroke-miterlimit="10" clip-path="url(#UoMdkoQepbqC)"/><path fill="none" stroke="rgb(229,229,229)" paint-order="fill" d="M 148.5 140.5 L 420.5 140.5 M 148.5 110.5 L 420.5 110.5 M 148.5 80.5 L 420.5 80.5 M 148.5 50.5 L 420.5 50.5 M 148.5 20.5 L 420.5 20.5" stroke-opacity="1" stroke-linejoin="bevel" stroke-miterlimit="10" clip-path="url(#BgPRJAdeBvZV)"/><path fill="rgb(248,169,49)" stroke="rgb(248,169,49)" paint-order="fill" d="M 160.86363220214844 127 L 408.1363525390625 127 L 408.1363525390625 154 L 160.86363220214844 154 L 160.86363220214844 127 Z" fill-opacity="1" clip-path="url(#vHgGUAfXJRlv)" stroke-opacity="1" stroke-linejoin="bevel" stroke-miterlimit="10"/><path fill="rgb(192,204,205)" stroke="rgb(192,204,205)" paint-order="fill" d="M 160.86363220214844 97 L 408.1363525390625 97 L 408.1363525390625 124 L 160.86363220214844 124 L 160.86363220214844 97 Z" fill-opacity="1" clip-path="url(#vHgGUAfXJRlv)" stroke-opacity="1" stroke-linejoin="bevel" stroke-miterlimit="10"/><path fill="rgb(67,186,195)" stroke="rgb(67,186,195)" paint-order="fill" d="M 160.86363220214844 67 L 408.1363525390625 67 L 408.1363525390625 94 L 160.86363220214844 94 L 160.86363220214844 67 Z" fill-opacity="1" clip-path="url(#vHgGUAfXJRlv)" stroke-opacity="1" stroke-linejoin="bevel" stroke-miterlimit="10"/><path fill="rgb(49,49,61)" stroke="rgb(49,49,61)" paint-order="fill" d="M 160.86363220214844 37 L 408.1363525390625 37 L 408.1363525390625 64 L 160.86363220214844 64 L 160.86363220214844 37 Z" fill-opacity="1" clip-path="url(#vHgGUAfXJRlv)" stroke-opacity="1" stroke-linejoin="bevel" stroke-miterlimit="10"/><path fill="rgb(248,169,49)" stroke="rgb(248,169,49)" paint-order="fill" d="M 160.86363220214844 7 L 408.1363525390625 7 L 408.1363525390625 34 L 160.86363220214844 34 L 160.86363220214844 7 Z" fill-opacity="1" clip-path="url(#vHgGUAfXJRlv)" stroke-opacity="1" stroke-linejoin="bevel" stroke-miterlimit="10"/><g clip-path="url(#BXGZXyarPUkA)"><text fill="rgb(68,68,68)" stroke="none" font-family="helvetica" font-size="10px" font-style="normal" font-weight="normal" text-decoration="normal" x="357.6363525390625" y="140" text-anchor="start" dominant-baseline="alphabetic" transform="matrix(1, 0, 0, 1, 0.5, 0.5)" fill-opacity="1">1621</text></g><g clip-path="url(#BXGZXyarPUkA)"><text fill="none" stroke="rgb(0,0,0)" font-family="helvetica" font-size="10px" font-style="normal" font-weight="normal" text-decoration="normal" x="357.6363525390625" y="140" text-anchor="start" dominant-baseline="alphabetic" transform="matrix(1, 0, 0, 1, 0.5, 0.5)" stroke-opacity="0" stroke-miterlimit="10" stroke-dasharray="">1621</text></g><g clip-path="url(#BXGZXyarPUkA)"><text fill="rgb(68,68,68)" stroke="none" font-family="helvetica" font-size="10px" font-style="normal" font-weight="normal" text-decoration="normal" x="357.6363525390625" y="110" text-anchor="start" dominant-baseline="alphabetic" transform="matrix(1, 0, 0, 1, 0.5, 0.5)" fill-opacity="1">1621</text></g><g clip-path="url(#BXGZXyarPUkA)"><text fill="none" stroke="rgb(0,0,0)" font-family="helvetica" font-size="10px" font-style="normal" font-weight="normal" text-decoration="normal" x="357.6363525390625" y="110" text-anchor="start" dominant-baseline="alphabetic" transform="matrix(1, 0, 0, 1, 0.5, 0.5)" stroke-opacity="0" stroke-miterlimit="10" stroke-dasharray="">1621</text></g><g clip-path="url(#BXGZXyarPUkA)"><text fill="rgb(68,68,68)" stroke="none" font-family="helvetica" font-size="10px" font-style="normal" font-weight="normal" text-decoration="normal" x="357.6363525390625" y="80" text-anchor="start" dominant-baseline="alphabetic" transform="matrix(1, 0, 0, 1, 0.5, 0.5)" fill-opacity="1">1621</text></g><g clip-path="url(#BXGZXyarPUkA)"><text fill="none" stroke="rgb(0,0,0)" font-family="helvetica" font-size="10px" font-style="normal" font-weight="normal" text-decoration="normal" x="357.6363525390625" y="80" text-anchor="start" dominant-baseline="alphabetic" transform="matrix(1, 0, 0, 1, 0.5, 0.5)" stroke-opacity="0" stroke-miterlimit="10" stroke-dasharray="">1621</text></g><g clip-path="url(#BXGZXyarPUkA)"><text fill="rgb(68,68,68)" stroke="none" font-family="helvetica" font-size="10px" font-style="normal" font-weight="normal" text-decoration="normal" x="357.6363525390625" y="50" text-anchor="start" dominant-baseline="alphabetic" transform="matrix(1, 0, 0, 1, 0.5, 0.5)" fill-opacity="1">1621</text></g><g clip-path="url(#BXGZXyarPUkA)"><text fill="none" stroke="rgb(0,0,0)" font-family="helvetica" font-size="10px" font-style="normal" font-weight="normal" text-decoration="normal" x="357.6363525390625" y="50" text-anchor="start" dominant-baseline="alphabetic" transform="matrix(1, 0, 0, 1, 0.5, 0.5)" stroke-opacity="0" stroke-miterlimit="10" stroke-dasharray="">1621</text></g><g clip-path="url(#BXGZXyarPUkA)"><text fill="rgb(68,68,68)" stroke="none" font-family="helvetica" font-size="10px" font-style="normal" font-weight="normal" text-decoration="normal" x="357.6363525390625" y="20" text-anchor="start" dominant-baseline="alphabetic" transform="matrix(1, 0, 0, 1, 0.5, 0.5)" fill-opacity="1">1621</text></g><g clip-path="url(#BXGZXyarPUkA)"><text fill="none" stroke="rgb(0,0,0)" font-family="helvetica" font-size="10px" font-style="normal" font-weight="normal" text-decoration="normal" x="357.6363525390625" y="20" text-anchor="start" dominant-baseline="alphabetic" transform="matrix(1, 0, 0, 1, 0.5, 0.5)" stroke-opacity="0" stroke-miterlimit="10" stroke-dasharray="">1621</text></g><path fill="none" stroke="rgb(0,0,0)" paint-order="fill" d="M 148.5 155.5 L 420.5 155.5" stroke-opacity="1" stroke-linejoin="bevel" stroke-miterlimit="10"/><path fill="none" stroke="rgb(0,0,0)" paint-order="fill" d="M 160.5 161.5 L 160.5 153.5 M 237.5 161.5 L 237.5 153.5 M 313.5 161.5 L 313.5 153.5 M 389.5 161.5 L 389.5 153.5" stroke-opacity="1" stroke-linejoin="bevel" stroke-miterlimit="10"/><path fill="none" stroke="rgb(0,0,0)" paint-order="fill" d="M 160.5 159.5 L 160.5 155.5 M 176.5 159.5 L 176.5 155.5 M 191.5 159.5 L 191.5 155.5 M 206.5 159.5 L 206.5 155.5 M 221.5 159.5 L 221.5 155.5 M 237.5 159.5 L 237.5 155.5 M 252.5 159.5 L 252.5 155.5 M 267.5 159.5 L 267.5 155.5 M 282.5 159.5 L 282.5 155.5 M 298.5 159.5 L 298.5 155.5 M 313.5 159.5 L 313.5 155.5 M 328.5 159.5 L 328.5 155.5 M 343.5 159.5 L 343.5 155.5 M 359.5 159.5 L 359.5 155.5 M 374.5 159.5 L 374.5 155.5 M 389.5 159.5 L 389.5 155.5 M 404.5 159.5 L 404.5 155.5 M 420.5 159.5 L 420.5 155.5" stroke-opacity="1" stroke-linejoin="bevel" stroke-miterlimit="10"/><text fill="rgb(68,68,68)" stroke="none" font-family="helvetica" font-size="11px" font-style="normal" font-weight="normal" text-decoration="normal" x="156.86363220214844" y="174" text-anchor="start" dominant-baseline="alphabetic" transform="matrix(1, 0, 0, 1, 0.5, 0.5)" fill-opacity="1">0</text><text fill="none" stroke="rgb(0,0,0)" font-family="helvetica" font-size="11px" font-style="normal" font-weight="normal" text-decoration="normal" x="156.86363220214844" y="174" text-anchor="start" dominant-baseline="alphabetic" transform="matrix(1, 0, 0, 1, 0.5, 0.5)" stroke-opacity="0" stroke-linejoin="bevel" stroke-miterlimit="10">0</text><text fill="rgb(68,68,68)" stroke="none" font-family="helvetica" font-size="11px" font-style="normal" font-weight="normal" text-decoration="normal" x="226.1352996826172" y="174" text-anchor="start" dominant-baseline="alphabetic" transform="matrix(1, 0, 0, 1, 0.5, 0.5)" fill-opacity="1">500</text><text fill="none" stroke="rgb(0,0,0)" font-family="helvetica" font-size="11px" font-style="normal" font-weight="normal" text-decoration="normal" x="226.1352996826172" y="174" text-anchor="start" dominant-baseline="alphabetic" transform="matrix(1, 0, 0, 1, 0.5, 0.5)" stroke-opacity="0" stroke-linejoin="bevel" stroke-miterlimit="10">500</text><text fill="rgb(68,68,68)" stroke="none" font-family="helvetica" font-size="11px" font-style="normal" font-weight="normal" text-decoration="normal" x="298.9069519042969" y="174" text-anchor="start" dominant-baseline="alphabetic" transform="matrix(1, 0, 0, 1, 0.5, 0.5)" fill-opacity="1">1000</text><text fill="none" stroke="rgb(0,0,0)" font-family="helvetica" font-size="11px" font-style="normal" font-weight="normal" text-decoration="normal" x="298.9069519042969" y="174" text-anchor="start" dominant-baseline="alphabetic" transform="matrix(1, 0, 0, 1, 0.5, 0.5)" stroke-opacity="0" stroke-linejoin="bevel" stroke-miterlimit="10">1000</text><text fill="rgb(68,68,68)" stroke="none" font-family="helvetica" font-size="11px" font-style="normal" font-weight="normal" text-decoration="normal" x="375.1786193847656" y="174" text-anchor="start" dominant-baseline="alphabetic" transform="matrix(1, 0, 0, 1, 0.5, 0.5)" fill-opacity="1">1500</text><text fill="none" stroke="rgb(0,0,0)" font-family="helvetica" font-size="11px" font-style="normal" font-weight="normal" text-decoration="normal" x="375.1786193847656" y="174" text-anchor="start" dominant-baseline="alphabetic" transform="matrix(1, 0, 0, 1, 0.5, 0.5)" stroke-opacity="0" stroke-linejoin="bevel" stroke-miterlimit="10">1500</text><text fill="rgb(68,68,68)" stroke="none" font-family="helvetica" font-size="13px" font-style="italic" font-weight="normal" text-decoration="normal" x="222" y="194" text-anchor="start" dominant-baseline="alphabetic" transform="matrix(1, 0, 0, 1, 0.5, 0.5)" fill-opacity="1">Aantal verhuringen</text><text fill="none" stroke="rgb(0,0,0)" font-family="helvetica" font-size="13px" font-style="italic" font-weight="normal" text-decoration="normal" x="222" y="194" text-anchor="start" dominant-baseline="alphabetic" transform="matrix(1, 0, 0, 1, 0.5, 0.5)" stroke-opacity="0" stroke-linejoin="bevel" stroke-miterlimit="10">Aantal verhuringen</text><path fill="none" stroke="rgb(0,0,0)" paint-order="fill" d="M 148.5 155.5 L 148.5 5.5" stroke-opacity="1" stroke-linejoin="bevel" stroke-miterlimit="10"/><path fill="none" stroke="rgb(0,0,0)" paint-order="fill" d="M 142.5 140.5 L 150.5 140.5 M 142.5 110.5 L 150.5 110.5 M 142.5 80.5 L 150.5 80.5 M 142.5 50.5 L 150.5 50.5 M 142.5 20.5 L 150.5 20.5" stroke-opacity="1" stroke-linejoin="bevel" stroke-miterlimit="10"/><path fill="none" stroke="rgb(0,0,0)" paint-order="fill" d="" stroke-opacity="1" stroke-linejoin="bevel" stroke-miterlimit="10"/><text fill="rgb(68,68,68)" stroke="none" font-family="helvetica" font-size="11px" font-style="normal" font-weight="normal" text-decoration="normal" x="69" y="143.5" text-anchor="start" dominant-baseline="alphabetic" transform="matrix(1, 0, 0, 1, 0.5, 0.5)" fill-opacity="1">Katendrecht</text><text fill="none" stroke="rgb(0,0,0)" font-family="helvetica" font-size="11px" font-style="normal" font-weight="normal" text-decoration="normal" x="69" y="143.5" text-anchor="start" dominant-baseline="alphabetic" transform="matrix(1, 0, 0, 1, 0.5, 0.5)" stroke-opacity="0" stroke-linejoin="bevel" stroke-miterlimit="10">Katendrecht</text><text fill="rgb(68,68,68)" stroke="none" font-family="helvetica" font-size="11px" font-style="normal" font-weight="normal" text-decoration="normal" x="58" y="113.5" text-anchor="start" dominant-baseline="alphabetic" transform="matrix(1, 0, 0, 1, 0.5, 0.5)" fill-opacity="1">'s Gravenland</text><text fill="none" stroke="rgb(0,0,0)" font-family="helvetica" font-size="11px" font-style="normal" font-weight="normal" text-decoration="normal" x="58" y="113.5" text-anchor="start" dominant-baseline="alphabetic" transform="matrix(1, 0, 0, 1, 0.5, 0.5)" stroke-opacity="0" stroke-linejoin="bevel" stroke-miterlimit="10">'s Gravenland</text><text fill="rgb(68,68,68)" stroke="none" font-family="helvetica" font-size="11px" font-style="normal" font-weight="normal" text-decoration="normal" x="3" y="83.5" text-anchor="start" dominant-baseline="alphabetic" transform="matrix(1, 0, 0, 1, 0.5, 0.5)" fill-opacity="1">Kop van Zuid - Entrepot</text><text fill="none" stroke="rgb(0,0,0)" font-family="helvetica" font-size="11px" font-style="normal" font-weight="normal" text-decoration="normal" x="3" y="83.5" text-anchor="start" dominant-baseline="alphabetic" transform="matrix(1, 0, 0, 1, 0.5, 0.5)" stroke-opacity="0" stroke-linejoin="bevel" stroke-miterlimit="10">Kop van Zuid - Entrepot</text><text fill="rgb(68,68,68)" stroke="none" font-family="helvetica" font-size="11px" font-style="normal" font-weight="normal" text-decoration="normal" x="88" y="53.5" text-anchor="start" dominant-baseline="alphabetic" transform="matrix(1, 0, 0, 1, 0.5, 0.5)" fill-opacity="1">Carnisse</text><text fill="none" stroke="rgb(0,0,0)" font-family="helvetica" font-size="11px" font-style="normal" font-weight="normal" text-decoration="normal" x="88" y="53.5" text-anchor="start" dominant-baseline="alphabetic" transform="matrix(1, 0, 0, 1, 0.5, 0.5)" stroke-opacity="0" stroke-linejoin="bevel" stroke-miterlimit="10">Carnisse</text><text fill="rgb(68,68,68)" stroke="none" font-family="helvetica" font-size="11px" font-style="normal" font-weight="normal" text-decoration="normal" x="76" y="23.5" text-anchor="start" dominant-baseline="alphabetic" transform="matrix(1, 0, 0, 1, 0.5, 0.5)" fill-opacity="1">Liskwartier</text><text fill="none" stroke="rgb(0,0,0)" font-family="helvetica" font-size="11px" font-style="normal" font-weight="normal" text-decoration="normal" x="76" y="23.5" text-anchor="start" dominant-baseline="alphabetic" transform="matrix(1, 0, 0, 1, 0.5, 0.5)" stroke-opacity="0" stroke-linejoin="bevel" stroke-miterlimit="10">Liskwartier</text></svg>