<svg version="1.1" xmlns="http://www.w3.org/2000/svg" width="270" height="190"><defs><clipPath id="fSZqqSCgZIvh"><path fill="none" stroke="none" d="M 0.5 0.5 L 270.5 0.5 L 270.5 190.5 L 0.5 190.5 L 0.5 0.5 Z M 58.5 5.5 L 240.5 5.5 L 240.5 140.5 L 58.5 140.5 L 58.5 5.5 Z" clip-rule="evenodd"/></clipPath><clipPath id="RfHgEDuzCIsF"><path fill="none" stroke="none" d="M 58.5 5.5 L 240.5 5.5 L 240.5 140.5 L 58.5 140.5 L 58.5 5.5 Z"/></clipPath><clipPath id="BdTKegNfxPXc"><path fill="none" stroke="none" d="M 58.5 5.5 L 240.5 5.5 L 240.5 140.5 L 58.5 140.5 L 58.5 5.5 Z"/></clipPath><clipPath id="VTMeRobzIKpQ"><path fill="none" stroke="none" d="M 58.5 5.5 L 240.5 5.5 L 240.5 140.5 L 58.5 140.5 L 58.5 5.5 Z"/></clipPath><clipPath id="GFGMJODlHNEQ"><path fill="none" stroke="none" d="M 58.5 5.5 L 240.5 5.5 L 240.5 140.5 L 58.5 140.5 L 58.5 5.5 Z"/></clipPath><clipPath id="TkuSvbkwbnyP"><path fill="none" stroke="none" d="M 58.5 5.5 L 240.5 5.5 L 240.5 140.5 L 58.5 140.5 L 58.5 5.5 Z"/></clipPath></defs><path fill="rgb(255,255,255)" stroke="none" paint-order="stroke" d="M 0.5 0.5 L 270.5 0.5 L 270.5 190.5 L 0.5 190.5 L 0.5 0.5 Z" fill-opacity="1" clip-path="url(#fSZqqSCgZIvh)"/><path fill="rgb(255,255,255)" stroke="none" paint-order="stroke" d="M 58.5 5.5 L 240.5 5.5 L 240.5 140.5 L 58.5 140.5 L 58.5 5.5 Z" fill-opacity="1"/><path fill="none" stroke="rgb(229,229,229)" paint-order="fill" d="M 58.5 5.5 L 240.5 5.5 L 240.5 140.5 L 58.5 140.5 L 58.5 5.5 Z" stroke-opacity="1" stroke-linejoin="bevel" stroke-miterlimit="10"/><path fill="none" stroke="rgb(229,229,229)" paint-order="fill" d="M 88.5 140.5 L 88.5 5.5 M 149.5 140.5 L 149.5 5.5 M 210.5 140.5 L 210.5 5.5" stroke-opacity="1" stroke-linejoin="bevel" stroke-miterlimit="10" clip-path="url(#RfHgEDuzCIsF)"/><path fill="none" stroke="rgb(229,229,229)" paint-order="fill" d="M 58.5 134.5 L 240.5 134.5 M 58.5 106.5 L 240.5 106.5 M 58.5 78.5 L 240.5 78.5 M 58.5 50.5 L 240.5 50.5 M 58.5 22.5 L 240.5 22.5" stroke-opacity="1" stroke-linejoin="bevel" stroke-miterlimit="10" clip-path="url(#BdTKegNfxPXc)"/><path fill="rgb(248,169,49)" stroke="rgb(248,169,49)" paint-order="fill" d="M 61.5333366394043 11.636363983154297 L 116.13333129882812 11.636363983154297 L 116.13333129882812 134.36363220214844 L 61.5333366394043 134.36363220214844 L 61.5333366394043 11.636363983154297 Z" fill-opacity="1" clip-path="url(#VTMeRobzIKpQ)" stroke-opacity="1" stroke-linejoin="bevel" stroke-miterlimit="10"/><path fill="rgb(192,204,205)" stroke="rgb(192,204,205)" paint-order="fill" d="M 122.19999694824219 47.905635833740234 L 176.8000030517578 47.905635833740234 L 176.8000030517578 134.36363220214844 L 122.19999694824219 134.36363220214844 L 122.19999694824219 47.905635833740234 Z" fill-opacity="1" clip-path="url(#VTMeRobzIKpQ)" stroke-opacity="1" stroke-linejoin="bevel" stroke-miterlimit="10"/><path fill="rgb(67,186,195)" stroke="rgb(67,186,195)" paint-order="fill" d="M 182.86666870117188 105.22431945800781 L 237.4666748046875 105.22431945800781 L 237.4666748046875 134.36363220214844 L 182.86666870117188 134.36363220214844 L 182.86666870117188 105.22431945800781 Z" fill-opacity="1" clip-path="url(#VTMeRobzIKpQ)" stroke-opacity="1" stroke-linejoin="bevel" stroke-miterlimit="10"/><g clip-path="url(#GFGMJODlHNEQ)"><text fill="rgb(68,68,68)" stroke="none" font-family="helvetica" font-size="8px" font-style="normal" font-weight="normal" text-decoration="normal" x="88.33333587646484" y="31.136363983154297" text-anchor="start" dominant-baseline="alphabetic" transform="matrix(1, 0, 0, 1, 0.5, 0.5)" fill-opacity="1">439.79</text></g><g clip-path="url(#GFGMJODlHNEQ)"><text fill="none" stroke="rgb(0,0,0)" font-family="helvetica" font-size="8px" font-style="normal" font-weight="normal" text-decoration="normal" x="88.33333587646484" y="31.136363983154297" text-anchor="start" dominant-baseline="alphabetic" transform="matrix(1, 0, 0, 1, 0.5, 0.5)" stroke-opacity="0" stroke-miterlimit="10" stroke-dasharray="">439.79</text></g><g clip-path="url(#GFGMJODlHNEQ)"><text fill="rgb(68,68,68)" stroke="none" font-family="helvetica" font-size="8px" font-style="normal" font-weight="normal" text-decoration="normal" x="149" y="67.40563583374023" text-anchor="start" dominant-baseline="alphabetic" transform="matrix(1, 0, 0, 1, 0.5, 0.5)" fill-opacity="1">309.82</text></g><g clip-path="url(#GFGMJODlHNEQ)"><text fill="none" stroke="rgb(0,0,0)" font-family="helvetica" font-size="8px" font-style="normal" font-weight="normal" text-decoration="normal" x="149" y="67.40563583374023" text-anchor="start" dominant-baseline="alphabetic" transform="matrix(1, 0, 0, 1, 0.5, 0.5)" stroke-opacity="0" stroke-miterlimit="10" stroke-dasharray="">309.82</text></g><g clip-path="url(#GFGMJODlHNEQ)"><text fill="rgb(68,68,68)" stroke="none" font-family="helvetica" font-size="8px" font-style="normal" font-weight="normal" text-decoration="normal" x="209.6666717529297" y="124.72431945800781" text-anchor="start" dominant-baseline="alphabetic" transform="matrix(1, 0, 0, 1, 0.5, 0.5)" fill-opacity="1">104.42</text></g><g clip-path="url(#GFGMJODlHNEQ)"><text fill="none" stroke="rgb(0,0,0)" font-family="helvetica" font-size="8px" font-style="normal" font-weight="normal" text-decoration="normal" x="209.6666717529297" y="124.72431945800781" text-anchor="start" dominant-baseline="alphabetic" transform="matrix(1, 0, 0, 1, 0.5, 0.5)" stroke-opacity="0" stroke-miterlimit="10" stroke-dasharray="">104.42</text></g><path fill="none" stroke="rgb(0,0,0)" paint-order="fill" d="M 58.5 140.5 L 240.5 140.5" stroke-opacity="1" stroke-linejoin="bevel" stroke-miterlimit="10"/><path fill="none" stroke="rgb(0,0,0)" paint-order="fill" d="M 88.5 146.5 L 88.5 138.5 M 149.5 146.5 L 149.5 138.5 M 210.5 146.5 L 210.5 138.5" stroke-opacity="1" stroke-linejoin="bevel" stroke-miterlimit="10"/><path fill="none" stroke="rgb(0,0,0)" paint-order="fill" d="" stroke-opacity="1" stroke-linejoin="bevel" stroke-miterlimit="10"/><text fill="rgb(68,68,68)" stroke="none" font-family="helvetica" font-size="11px" font-style="normal" font-weight="normal" text-decoration="normal" x="68.83333587646484" y="161" text-anchor="start" dominant-baseline="alphabetic" transform="matrix(1, 0, 0, 1, 0.5, 0.5)" fill-opacity="1">bicycle</text><text fill="none" stroke="rgb(0,0,0)" font-family="helvetica" font-size="11px" font-style="normal" font-weight="normal" text-decoration="normal" x="68.83333587646484" y="161" text-anchor="start" dominant-baseline="alphabetic" transform="matrix(1, 0, 0, 1, 0.5, 0.5)" stroke-opacity="0" stroke-linejoin="bevel" stroke-miterlimit="10">bicycle</text><text fill="rgb(68,68,68)" stroke="none" font-family="helvetica" font-size="11px" font-style="normal" font-weight="normal" text-decoration="normal" x="129.5" y="161" text-anchor="start" dominant-baseline="alphabetic" transform="matrix(1, 0, 0, 1, 0.5, 0.5)" fill-opacity="1">moped</text><text fill="none" stroke="rgb(0,0,0)" font-family="helvetica" font-size="11px" font-style="normal" font-weight="normal" text-decoration="normal" x="129.5" y="161" text-anchor="start" dominant-baseline="alphabetic" transform="matrix(1, 0, 0, 1, 0.5, 0.5)" stroke-opacity="0" stroke-linejoin="bevel" stroke-miterlimit="10">moped</text><text fill="rgb(68,68,68)" stroke="none" font-family="helvetica" font-size="11px" font-style="normal" font-weight="normal" text-decoration="normal" x="171.1666717529297" y="161" text-anchor="start" dominant-baseline="alphabetic" transform="matrix(1, 0, 0, 1, 0.5, 0.5)" fill-opacity="1">cargo_bicycle</text><text fill="none" stroke="rgb(0,0,0)" font-family="helvetica" font-size="11px" font-style="normal" font-weight="normal" text-decoration="normal" x="171.1666717529297" y="161" text-anchor="start" dominant-baseline="alphabetic" transform="matrix(1, 0, 0, 1, 0.5, 0.5)" stroke-opacity="0" stroke-linejoin="bevel" stroke-miterlimit="10">cargo_bicycle</text><text fill="rgb(68,68,68)" stroke="none" font-family="helvetica" font-size="13px" font-style="italic" font-weight="normal" text-decoration="normal" x="102" y="184" text-anchor="start" dominant-baseline="alphabetic" transform="matrix(1, 0, 0, 1, 0.5, 0.5)" fill-opacity="1">Voertuig types</text><text fill="none" stroke="rgb(0,0,0)" font-family="helvetica" font-size="13px" font-style="italic" font-weight="normal" text-decoration="normal" x="102" y="184" text-anchor="start" dominant-baseline="alphabetic" transform="matrix(1, 0, 0, 1, 0.5, 0.5)" stroke-opacity="0" stroke-linejoin="bevel" stroke-miterlimit="10">Voertuig types</text><path fill="none" stroke="rgb(0,0,0)" paint-order="fill" d="M 58.5 140.5 L 58.5 5.5" stroke-opacity="1" stroke-linejoin="bevel" stroke-miterlimit="10"/><path fill="none" stroke="rgb(0,0,0)" paint-order="fill" d="M 52.5 134.5 L 60.5 134.5 M 52.5 106.5 L 60.5 106.5 M 52.5 78.5 L 60.5 78.5 M 52.5 50.5 L 60.5 50.5 M 52.5 22.5 L 60.5 22.5" stroke-opacity="1" stroke-linejoin="bevel" stroke-miterlimit="10"/><path fill="none" stroke="rgb(0,0,0)" paint-order="fill" d="M 54.5 139.5 L 58.5 139.5 M 54.5 134.5 L 58.5 134.5 M 54.5 128.5 L 58.5 128.5 M 54.5 123.5 L 58.5 123.5 M 54.5 117.5 L 58.5 117.5 M 54.5 112.5 L 58.5 112.5 M 54.5 106.5 L 58.5 106.5 M 54.5 100.5 L 58.5 100.5 M 54.5 95.5 L 58.5 95.5 M 54.5 89.5 L 58.5 89.5 M 54.5 84.5 L 58.5 84.5 M 54.5 78.5 L 58.5 78.5 M 54.5 72.5 L 58.5 72.5 M 54.5 67.5 L 58.5 67.5 M 54.5 61.5 L 58.5 61.5 M 54.5 56.5 L 58.5 56.5 M 54.5 50.5 L 58.5 50.5 M 54.5 45.5 L 58.5 45.5 M 54.5 39.5 L 58.5 39.5 M 54.5 33.5 L 58.5 33.5 M 54.5 28.5 L 58.5 28.5 M 54.5 22.5 L 58.5 22.5 M 54.5 17.5 L 58.5 17.5 M 54.5 11.5 L 58.5 11.5 M 54.5 5.5 L 58.5 5.5" stroke-opacity="1" stroke-linejoin="bevel" stroke-miterlimit="10"/><text fill="rgb(68,68,68)" stroke="none" font-family="helvetica" font-size="11px" font-style="normal" font-weight="normal" text-decoration="normal" x="40" y="137.86363220214844" text-anchor="start" dominant-baseline="alphabetic" transform="matrix(1, 0, 0, 1, 0.5, 0.5)" fill-opacity="1">0</text><text fill="none" stroke="rgb(0,0,0)" font-family="helvetica" font-size="11px" font-style="normal" font-weight="normal" text-decoration="normal" x="40" y="137.86363220214844" text-anchor="start" dominant-baseline="alphabetic" transform="matrix(1, 0, 0, 1, 0.5, 0.5)" stroke-opacity="0" stroke-linejoin="bevel" stroke-miterlimit="10">0</text><text fill="rgb(68,68,68)" stroke="none" font-family="helvetica" font-size="11px" font-style="normal" font-weight="normal" text-decoration="normal" x="26" y="109.95775604248047" text-anchor="start" dominant-baseline="alphabetic" transform="matrix(1, 0, 0, 1, 0.5, 0.5)" fill-opacity="1">100</text><text fill="none" stroke="rgb(0,0,0)" font-family="helvetica" font-size="11px" font-style="normal" font-weight="normal" text-decoration="normal" x="26" y="109.95775604248047" text-anchor="start" dominant-baseline="alphabetic" transform="matrix(1, 0, 0, 1, 0.5, 0.5)" stroke-opacity="0" stroke-linejoin="bevel" stroke-miterlimit="10">100</text><text fill="rgb(68,68,68)" stroke="none" font-family="helvetica" font-size="11px" font-style="normal" font-weight="normal" text-decoration="normal" x="26" y="82.05187225341797" text-anchor="start" dominant-baseline="alphabetic" transform="matrix(1, 0, 0, 1, 0.5, 0.5)" fill-opacity="1">200</text><text fill="none" stroke="rgb(0,0,0)" font-family="helvetica" font-size="11px" font-style="normal" font-weight="normal" text-decoration="normal" x="26" y="82.05187225341797" text-anchor="start" dominant-baseline="alphabetic" transform="matrix(1, 0, 0, 1, 0.5, 0.5)" stroke-opacity="0" stroke-linejoin="bevel" stroke-miterlimit="10">200</text><text fill="rgb(68,68,68)" stroke="none" font-family="helvetica" font-size="11px" font-style="normal" font-weight="normal" text-decoration="normal" x="26" y="54.14599609375" text-anchor="start" dominant-baseline="alphabetic" transform="matrix(1, 0, 0, 1, 0.5, 0.5)" fill-opacity="1">300</text><text fill="none" stroke="rgb(0,0,0)" font-family="helvetica" font-size="11px" font-style="normal" font-weight="normal" text-decoration="normal" x="26" y="54.14599609375" text-anchor="start" dominant-baseline="alphabetic" transform="matrix(1, 0, 0, 1, 0.5, 0.5)" stroke-opacity="0" stroke-linejoin="bevel" stroke-miterlimit="10">300</text><text fill="rgb(68,68,68)" stroke="none" font-family="helvetica" font-size="11px" font-style="normal" font-weight="normal" text-decoration="normal" x="26" y="26.240114212036133" text-anchor="start" dominant-baseline="alphabetic" transform="matrix(1, 0, 0, 1, 0.5, 0.5)" fill-opacity="1">400</text><text fill="none" stroke="rgb(0,0,0)" font-family="helvetica" font-size="11px" font-style="normal" font-weight="normal" text-decoration="normal" x="26" y="26.240114212036133" text-anchor="start" dominant-baseline="alphabetic" transform="matrix(1, 0, 0, 1, 0.5, 0.5)" stroke-opacity="0" stroke-linejoin="bevel" stroke-miterlimit="10">400</text><text fill="rgb(68,68,68)" stroke="none" font-family="helvetica" font-size="13px" font-style="italic" font-weight="normal" text-decoration="normal" x="-5" y="69.5" text-anchor="start" dominant-baseline="alphabetic" transform="matrix(6.123233995736766e-17, -1, 1, 6.123233995736766e-17, -54, 91)" fill-opacity="1">Tijd (h)</text><text fill="none" stroke="rgb(0,0,0)" font-family="helvetica" font-size="13px" font-style="italic" font-weight="normal" text-decoration="normal" x="-5" y="69.5" text-anchor="start" dominant-baseline="alphabetic" transform="matrix(6.123233995736766e-17, -1, 1, 6.123233995736766e-17, -54, 91)" stroke-opacity="0" stroke-linejoin="bevel" stroke-miterlimit="10">Tijd (h)</text></svg>