<svg version="1.1" xmlns="http://www.w3.org/2000/svg" width="300" height="300"><defs><clipPath id="fPMqvBLMflza"><path fill="none" stroke="none" d="M 0.5 0.5 L 300.5 0.5 L 300.5 300.5 L 0.5 300.5 L 0.5 0.5 Z M 42.5 5.5 L 270.5 5.5 L 270.5 273.5 L 42.5 273.5 L 42.5 5.5 Z" clip-rule="evenodd"/></clipPath><clipPath id="GkbFiNfgdLJq"><path fill="none" stroke="none" d="M 42.5 5.5 L 270.5 5.5 L 270.5 273.5 L 42.5 273.5 L 42.5 5.5 Z"/></clipPath><clipPath id="gwMsgubNAkmP"><path fill="none" stroke="none" d="M 42.5 5.5 L 270.5 5.5 L 270.5 273.5 L 42.5 273.5 L 42.5 5.5 Z"/></clipPath><clipPath id="wBrVFPHOCShV"><path fill="none" stroke="none" d="M 42.5 5.5 L 270.5 5.5 L 270.5 273.5 L 42.5 273.5 L 42.5 5.5 Z"/></clipPath><clipPath id="MiEuRUGaCHyh"><path fill="none" stroke="none" d="M 42.5 5.5 L 270.5 5.5 L 270.5 273.5 L 42.5 273.5 L 42.5 5.5 Z"/></clipPath><clipPath id="fFEOiIAswgvV"><path fill="none" stroke="none" d="M 42.5 5.5 L 270.5 5.5 L 270.5 273.5 L 42.5 273.5 L 42.5 5.5 Z"/></clipPath></defs><path fill="rgb(255,255,255)" stroke="none" paint-order="stroke" d="M 0.5 0.5 L 300.5 0.5 L 300.5 300.5 L 0.5 300.5 L 0.5 0.5 Z" fill-opacity="1" clip-path="url(#fPMqvBLMflza)"/><path fill="rgb(255,255,255)" stroke="none" paint-order="stroke" d="M 42.5 5.5 L 270.5 5.5 L 270.5 273.5 L 42.5 273.5 L 42.5 5.5 Z" fill-opacity="1"/><path fill="none" stroke="rgb(229,229,229)" paint-order="fill" d="M 42.5 5.5 L 270.5 5.5 L 270.5 273.5 L 42.5 273.5 L 42.5 5.5 Z" stroke-opacity="1" stroke-linejoin="bevel" stroke-miterlimit="10"/><path fill="none" stroke="rgb(229,229,229)" paint-order="fill" d="M 99.5 273.5 L 99.5 5.5 M 213.5 273.5 L 213.5 5.5" stroke-opacity="1" stroke-linejoin="bevel" stroke-miterlimit="10" clip-path="url(#GkbFiNfgdLJq)"/><path fill="none" stroke="rgb(229,229,229)" paint-order="fill" d="M 42.5 261.5 L 270.5 261.5 M 42.5 193.5 L 270.5 193.5 M 42.5 126.5 L 270.5 126.5 M 42.5 59.5 L 270.5 59.5" stroke-opacity="1" stroke-linejoin="bevel" stroke-miterlimit="10" clip-path="url(#gwMsgubNAkmP)"/><path fill="rgb(248,169,49)" stroke="rgb(248,169,49)" paint-order="fill" d="M 48.20000076293945 17.68181800842285 L 150.8000030517578 17.68181800842285 L 150.8000030517578 261.31817626953125 L 48.20000076293945 261.31817626953125 L 48.20000076293945 17.68181800842285 Z" fill-opacity="1" clip-path="url(#wBrVFPHOCShV)" stroke-opacity="1" stroke-linejoin="bevel" stroke-miterlimit="10"/><path fill="rgb(192,204,205)" stroke="rgb(192,204,205)" paint-order="fill" d="M 162.1999969482422 22.88475799560547 L 264.79998779296875 22.88475799560547 L 264.79998779296875 261.31817626953125 L 162.1999969482422 261.31817626953125 L 162.1999969482422 22.88475799560547 Z" fill-opacity="1" clip-path="url(#wBrVFPHOCShV)" stroke-opacity="1" stroke-linejoin="bevel" stroke-miterlimit="10"/><path fill="none" stroke="rgb(0,0,0)" paint-order="fill" d="M 42.5 273.5 L 270.5 273.5" stroke-opacity="1" stroke-linejoin="bevel" stroke-miterlimit="10"/><path fill="none" stroke="rgb(0,0,0)" paint-order="fill" d="M 99.5 279.5 L 99.5 271.5 M 213.5 279.5 L 213.5 271.5" stroke-opacity="1" stroke-linejoin="bevel" stroke-miterlimit="10"/><path fill="none" stroke="rgb(0,0,0)" paint-order="fill" d="" stroke-opacity="1" stroke-linejoin="bevel" stroke-miterlimit="10"/><text fill="rgb(68,68,68)" stroke="none" font-family="helvetica" font-size="11px" font-style="normal" font-weight="normal" text-decoration="normal" x="79.5" y="294" text-anchor="start" dominant-baseline="alphabetic" transform="matrix(1, 0, 0, 1, 0.5, 0.5)" fill-opacity="1">bicycle</text><text fill="none" stroke="rgb(0,0,0)" font-family="helvetica" font-size="11px" font-style="normal" font-weight="normal" text-decoration="normal" x="79.5" y="294" text-anchor="start" dominant-baseline="alphabetic" transform="matrix(1, 0, 0, 1, 0.5, 0.5)" stroke-opacity="0" stroke-linejoin="bevel" stroke-miterlimit="10">bicycle</text><text fill="rgb(68,68,68)" stroke="none" font-family="helvetica" font-size="11px" font-style="normal" font-weight="normal" text-decoration="normal" x="193.5" y="294" text-anchor="start" dominant-baseline="alphabetic" transform="matrix(1, 0, 0, 1, 0.5, 0.5)" fill-opacity="1">moped</text><text fill="none" stroke="rgb(0,0,0)" font-family="helvetica" font-size="11px" font-style="normal" font-weight="normal" text-decoration="normal" x="193.5" y="294" text-anchor="start" dominant-baseline="alphabetic" transform="matrix(1, 0, 0, 1, 0.5, 0.5)" stroke-opacity="0" stroke-linejoin="bevel" stroke-miterlimit="10">moped</text><path fill="none" stroke="rgb(0,0,0)" paint-order="fill" d="M 42.5 273.5 L 42.5 5.5" stroke-opacity="1" stroke-linejoin="bevel" stroke-miterlimit="10"/><path fill="none" stroke="rgb(0,0,0)" paint-order="fill" d="M 36.5 261.5 L 44.5 261.5 M 36.5 193.5 L 44.5 193.5 M 36.5 126.5 L 44.5 126.5 M 36.5 59.5 L 44.5 59.5" stroke-opacity="1" stroke-linejoin="bevel" stroke-miterlimit="10"/><path fill="none" stroke="rgb(0,0,0)" paint-order="fill" d="M 38.5 261.5 L 42.5 261.5 M 38.5 247.5 L 42.5 247.5 M 38.5 234.5 L 42.5 234.5 M 38.5 220.5 L 42.5 220.5 M 38.5 207.5 L 42.5 207.5 M 38.5 193.5 L 42.5 193.5 M 38.5 180.5 L 42.5 180.5 M 38.5 166.5 L 42.5 166.5 M 38.5 153.5 L 42.5 153.5 M 38.5 140.5 L 42.5 140.5 M 38.5 126.5 L 42.5 126.5 M 38.5 113.5 L 42.5 113.5 M 38.5 99.5 L 42.5 99.5 M 38.5 86.5 L 42.5 86.5 M 38.5 72.5 L 42.5 72.5 M 38.5 59.5 L 42.5 59.5 M 38.5 45.5 L 42.5 45.5 M 38.5 32.5 L 42.5 32.5 M 38.5 18.5 L 42.5 18.5" stroke-opacity="1" stroke-linejoin="bevel" stroke-miterlimit="10"/><text fill="rgb(68,68,68)" stroke="none" font-family="helvetica" font-size="11px" font-style="normal" font-weight="normal" text-decoration="normal" x="24" y="264.81817626953125" text-anchor="start" dominant-baseline="alphabetic" transform="matrix(1, 0, 0, 1, 0.5, 0.5)" fill-opacity="1">0</text><text fill="none" stroke="rgb(0,0,0)" font-family="helvetica" font-size="11px" font-style="normal" font-weight="normal" text-decoration="normal" x="24" y="264.81817626953125" text-anchor="start" dominant-baseline="alphabetic" transform="matrix(1, 0, 0, 1, 0.5, 0.5)" stroke-opacity="0" stroke-linejoin="bevel" stroke-miterlimit="10">0</text><text fill="rgb(68,68,68)" stroke="none" font-family="helvetica" font-size="11px" font-style="normal" font-weight="normal" text-decoration="normal" x="10" y="197.4208526611328" text-anchor="start" dominant-baseline="alphabetic" transform="matrix(1, 0, 0, 1, 0.5, 0.5)" fill-opacity="1">500</text><text fill="none" stroke="rgb(0,0,0)" font-family="helvetica" font-size="11px" font-style="normal" font-weight="normal" text-decoration="normal" x="10" y="197.4208526611328" text-anchor="start" dominant-baseline="alphabetic" transform="matrix(1, 0, 0, 1, 0.5, 0.5)" stroke-opacity="0" stroke-linejoin="bevel" stroke-miterlimit="10">500</text><text fill="rgb(68,68,68)" stroke="none" font-family="helvetica" font-size="11px" font-style="normal" font-weight="normal" text-decoration="normal" x="3" y="130.02352142333984" text-anchor="start" dominant-baseline="alphabetic" transform="matrix(1, 0, 0, 1, 0.5, 0.5)" fill-opacity="1">1000</text><text fill="none" stroke="rgb(0,0,0)" font-family="helvetica" font-size="11px" font-style="normal" font-weight="normal" text-decoration="normal" x="3" y="130.02352142333984" text-anchor="start" dominant-baseline="alphabetic" transform="matrix(1, 0, 0, 1, 0.5, 0.5)" stroke-opacity="0" stroke-linejoin="bevel" stroke-miterlimit="10">1000</text><text fill="rgb(68,68,68)" stroke="none" font-family="helvetica" font-size="11px" font-style="normal" font-weight="normal" text-decoration="normal" x="3" y="62.626190185546875" text-anchor="start" dominant-baseline="alphabetic" transform="matrix(1, 0, 0, 1, 0.5, 0.5)" fill-opacity="1">1500</text><text fill="none" stroke="rgb(0,0,0)" font-family="helvetica" font-size="11px" font-style="normal" font-weight="normal" text-decoration="normal" x="3" y="62.626190185546875" text-anchor="start" dominant-baseline="alphabetic" transform="matrix(1, 0, 0, 1, 0.5, 0.5)" stroke-opacity="0" stroke-linejoin="bevel" stroke-miterlimit="10">1500</text><path fill="rgb(255,255,255)" stroke="rgb(229,229,229)" paint-order="fill" d="M 169.5 15.5 L 260.5 15.5 L 260.5 78.5 L 169.5 78.5 L 169.5 15.5 Z" fill-opacity="0.9490196078431372" clip-path="url(#MiEuRUGaCHyh)" stroke-opacity="0.5019607843137255" stroke-linejoin="bevel" stroke-miterlimit="10"/><path fill="rgb(248,169,49)" stroke="rgb(248,169,49)" paint-order="fill" d="M 181.5 27.5 L 197.5 27.5 L 197.5 43.5 L 181.5 43.5 L 181.5 27.5 Z" fill-opacity="1" clip-path="url(#MiEuRUGaCHyh)" stroke-opacity="1" stroke-linejoin="bevel" stroke-miterlimit="10"/><g clip-path="url(#MiEuRUGaCHyh)"><text fill="rgb(68,68,68)" stroke="none" font-family="helvetica" font-size="13px" font-style="normal" font-weight="normal" text-decoration="normal" x="0" y="4.5" text-anchor="start" dominant-baseline="alphabetic" transform="matrix(1, 0, 0, 1, 204.5, 35.5)" fill-opacity="1">bicycle</text></g><g clip-path="url(#MiEuRUGaCHyh)"><text fill="none" stroke="rgb(0,0,0)" font-family="helvetica" font-size="13px" font-style="normal" font-weight="normal" text-decoration="normal" x="0" y="4.5" text-anchor="start" dominant-baseline="alphabetic" transform="matrix(1, 0, 0, 1, 204.5, 35.5)" stroke-opacity="0" stroke-linejoin="bevel" stroke-miterlimit="10">bicycle</text></g><path fill="rgb(192,204,205)" stroke="rgb(192,204,205)" paint-order="fill" d="M 181.5 50.5 L 197.5 50.5 L 197.5 66.5 L 181.5 66.5 L 181.5 50.5 Z" fill-opacity="1" clip-path="url(#MiEuRUGaCHyh)" stroke-opacity="1" stroke-linejoin="bevel" stroke-miterlimit="10"/><g clip-path="url(#MiEuRUGaCHyh)"><text fill="rgb(68,68,68)" stroke="none" font-family="helvetica" font-size="13px" font-style="normal" font-weight="normal" text-decoration="normal" x="0" y="4.5" text-anchor="start" dominant-baseline="alphabetic" transform="matrix(1, 0, 0, 1, 204.5, 58.5)" fill-opacity="1">moped</text></g><g clip-path="url(#MiEuRUGaCHyh)"><text fill="none" stroke="rgb(0,0,0)" font-family="helvetica" font-size="13px" font-style="normal" font-weight="normal" text-decoration="normal" x="0" y="4.5" text-anchor="start" dominant-baseline="alphabetic" transform="matrix(1, 0, 0, 1, 204.5, 58.5)" stroke-opacity="0" stroke-linejoin="bevel" stroke-miterlimit="10">moped</text></g></svg>