<svg version="1.1" xmlns="http://www.w3.org/2000/svg" width="500" height="500"><defs><clipPath id="PnQMNqnVrtRl"><path fill="none" stroke="none" d="M 5.5 5.5 L 495.5 5.5 L 495.5 495.5 L 5.5 495.5 L 5.5 5.5 Z"/></clipPath><clipPath id="xqCbtnNBRsTf"><path fill="none" stroke="none" d="M 5.5 5.5 L 495.5 5.5 L 495.5 495.5 L 5.5 495.5 L 5.5 5.5 Z"/></clipPath><clipPath id="TKKrbIToDdsP"><path fill="none" stroke="none" d="M 5.5 5.5 L 495.5 5.5 L 495.5 495.5 L 5.5 495.5 L 5.5 5.5 Z"/></clipPath><clipPath id="KvuiSmDhgmhO"><path fill="none" stroke="none" d="M 5.5 5.5 L 495.5 5.5 L 495.5 495.5 L 5.5 495.5 L 5.5 5.5 Z"/></clipPath></defs><path fill="rgb(248,169,49)" stroke="rgb(255,255,255)" paint-order="fill" d="M 299.5 250.5 A 130.6666717529297 130.6666717529297 0 0 0 296.0880830247037 220.83509660436638 L 168.8333282470703 250.5 Z" fill-opacity="1" clip-path="url(#TKKrbIToDdsP)" stroke-opacity="1" stroke-linejoin="bevel" stroke-miterlimit="10"/><path fill="rgb(192,204,205)" stroke="rgb(255,255,255)" paint-order="fill" d="M 296.0880830247037 220.83509660436638 A 130.6666717529297 130.6666717529297 0 0 0 292.59132815645296 208.57463100440128 L 168.8333282470703 250.5 Z" fill-opacity="1" clip-path="url(#TKKrbIToDdsP)" stroke-opacity="1" stroke-linejoin="bevel" stroke-miterlimit="10"/><path fill="rgb(67,186,195)" stroke="rgb(255,255,255)" paint-order="fill" d="M 292.59132815645296 208.57463100440128 A 130.6666717529297 130.6666717529297 0 0 0 117.56906902538978 130.30950606042 L 168.8333282470703 250.5 Z" fill-opacity="1" clip-path="url(#TKKrbIToDdsP)" stroke-opacity="1" stroke-linejoin="bevel" stroke-miterlimit="10"/><path fill="rgb(49,49,61)" stroke="rgb(255,255,255)" paint-order="fill" d="M 117.56906902538978 130.30950606042 A 130.6666717529297 130.6666717529297 0 0 0 38.19400795983631 253.17340641829222 L 168.8333282470703 250.5 Z" fill-opacity="1" clip-path="url(#TKKrbIToDdsP)" stroke-opacity="1" stroke-linejoin="bevel" stroke-miterlimit="10"/><path fill="rgb(58,141,222)" stroke="rgb(255,255,255)" paint-order="fill" d="M 38.19400795983631 253.17340641829222 A 130.6666717529297 130.6666717529297 0 0 0 106.22508314476897 365.1908311601151 L 168.8333282470703 250.5 Z" fill-opacity="1" clip-path="url(#TKKrbIToDdsP)" stroke-opacity="1" stroke-linejoin="bevel" stroke-miterlimit="10"/><path fill="rgb(222,68,58)" stroke="rgb(255,255,255)" paint-order="fill" d="M 106.22508314476897 365.1908311601151 A 130.6666717529297 130.6666717529297 0 0 0 274.80156291027924 326.9494103924351 L 168.8333282470703 250.5 Z" fill-opacity="1" clip-path="url(#TKKrbIToDdsP)" stroke-opacity="1" stroke-linejoin="bevel" stroke-miterlimit="10"/><path fill="rgb(101,222,58)" stroke="rgb(255,255,255)" paint-order="fill" d="M 274.80156291027924 326.9494103924351 A 130.6666717529297 130.6666717529297 0 0 0 299.499999999998 250.49997715351256 L 168.8333282470703 250.5 Z" fill-opacity="1" clip-path="url(#TKKrbIToDdsP)" stroke-opacity="1" stroke-linejoin="bevel" stroke-miterlimit="10"/><path fill="none" stroke="rgb(229,229,229)" paint-order="fill" d="M 362.5 181.5 L 485.5 181.5 L 485.5 319.5 L 362.5 319.5 L 362.5 181.5 Z" stroke-opacity="0.5019607843137255" stroke-linejoin="bevel" stroke-miterlimit="10" clip-path="url(#KvuiSmDhgmhO)"/><path fill="rgb(248,169,49)" stroke="rgb(255,255,255)" paint-order="fill" d="M 354.5 173.5 L 370.5 173.5 L 370.5 189.5 L 354.5 189.5 L 354.5 173.5 Z" fill-opacity="1" clip-path="url(#KvuiSmDhgmhO)" stroke-opacity="1" stroke-linejoin="bevel" stroke-miterlimit="10"/><g clip-path="url(#KvuiSmDhgmhO)"><text fill="rgb(68,68,68)" stroke="none" font-family="helvetica" font-size="13px" font-style="normal" font-weight="normal" text-decoration="normal" x="0" y="4.5" text-anchor="start" dominant-baseline="alphabetic" transform="matrix(1, 0, 0, 1, 377.5, 181.5)" fill-opacity="1">baqme (5244)</text></g><g clip-path="url(#KvuiSmDhgmhO)"><text fill="none" stroke="rgb(0,0,0)" font-family="helvetica" font-size="13px" font-style="normal" font-weight="normal" text-decoration="normal" x="0" y="4.5" text-anchor="start" dominant-baseline="alphabetic" transform="matrix(1, 0, 0, 1, 377.5, 181.5)" stroke-opacity="0" stroke-linejoin="bevel" stroke-miterlimit="10">baqme (5244)</text></g><path fill="rgb(192,204,205)" stroke="rgb(255,255,255)" paint-order="fill" d="M 354.5 196.5 L 370.5 196.5 L 370.5 212.5 L 354.5 212.5 L 354.5 196.5 Z" fill-opacity="1" clip-path="url(#KvuiSmDhgmhO)" stroke-opacity="1" stroke-linejoin="bevel" stroke-miterlimit="10"/><g clip-path="url(#KvuiSmDhgmhO)"><text fill="rgb(68,68,68)" stroke="none" font-family="helvetica" font-size="13px" font-style="normal" font-weight="normal" text-decoration="normal" x="0" y="4.5" text-anchor="start" dominant-baseline="alphabetic" transform="matrix(1, 0, 0, 1, 377.5, 204.5)" fill-opacity="1">cargoroo (2235)</text></g><g clip-path="url(#KvuiSmDhgmhO)"><text fill="none" stroke="rgb(0,0,0)" font-family="helvetica" font-size="13px" font-style="normal" font-weight="normal" text-decoration="normal" x="0" y="4.5" text-anchor="start" dominant-baseline="alphabetic" transform="matrix(1, 0, 0, 1, 377.5, 204.5)" stroke-opacity="0" stroke-linejoin="bevel" stroke-miterlimit="10">cargoroo (2235)</text></g><path fill="rgb(67,186,195)" stroke="rgb(255,255,255)" paint-order="fill" d="M 354.5 219.5 L 370.5 219.5 L 370.5 235.5 L 354.5 235.5 L 354.5 219.5 Z" fill-opacity="1" clip-path="url(#KvuiSmDhgmhO)" stroke-opacity="1" stroke-linejoin="bevel" stroke-miterlimit="10"/><g clip-path="url(#KvuiSmDhgmhO)"><text fill="rgb(68,68,68)" stroke="none" font-family="helvetica" font-size="13px" font-style="normal" font-weight="normal" text-decoration="normal" x="0" y="4.5" text-anchor="start" dominant-baseline="alphabetic" transform="matrix(1, 0, 0, 1, 377.5, 227.5)" fill-opacity="1">check (37719)</text></g><g clip-path="url(#KvuiSmDhgmhO)"><text fill="none" stroke="rgb(0,0,0)" font-family="helvetica" font-size="13px" font-style="normal" font-weight="normal" text-decoration="normal" x="0" y="4.5" text-anchor="start" dominant-baseline="alphabetic" transform="matrix(1, 0, 0, 1, 377.5, 227.5)" stroke-opacity="0" stroke-linejoin="bevel" stroke-miterlimit="10">check (37719)</text></g><path fill="rgb(49,49,61)" stroke="rgb(255,255,255)" paint-order="fill" d="M 354.5 242.5 L 370.5 242.5 L 370.5 258.5 L 354.5 258.5 L 354.5 242.5 Z" fill-opacity="1" clip-path="url(#KvuiSmDhgmhO)" stroke-opacity="1" stroke-linejoin="bevel" stroke-miterlimit="10"/><g clip-path="url(#KvuiSmDhgmhO)"><text fill="rgb(68,68,68)" stroke="none" font-family="helvetica" font-size="13px" font-style="normal" font-weight="normal" text-decoration="normal" x="0" y="4.5" text-anchor="start" dominant-baseline="alphabetic" transform="matrix(1, 0, 0, 1, 377.5, 250.5)" fill-opacity="1">donkey (27204)</text></g><g clip-path="url(#KvuiSmDhgmhO)"><text fill="none" stroke="rgb(0,0,0)" font-family="helvetica" font-size="13px" font-style="normal" font-weight="normal" text-decoration="normal" x="0" y="4.5" text-anchor="start" dominant-baseline="alphabetic" transform="matrix(1, 0, 0, 1, 377.5, 250.5)" stroke-opacity="0" stroke-linejoin="bevel" stroke-miterlimit="10">donkey (27204)</text></g><path fill="rgb(58,141,222)" stroke="rgb(255,255,255)" paint-order="fill" d="M 354.5 265.5 L 370.5 265.5 L 370.5 281.5 L 354.5 281.5 L 354.5 265.5 Z" fill-opacity="1" clip-path="url(#KvuiSmDhgmhO)" stroke-opacity="1" stroke-linejoin="bevel" stroke-miterlimit="10"/><g clip-path="url(#KvuiSmDhgmhO)"><text fill="rgb(68,68,68)" stroke="none" font-family="helvetica" font-size="13px" font-style="normal" font-weight="normal" text-decoration="normal" x="0" y="4.5" text-anchor="start" dominant-baseline="alphabetic" transform="matrix(1, 0, 0, 1, 377.5, 273.5)" fill-opacity="1">felyx (24057)</text></g><g clip-path="url(#KvuiSmDhgmhO)"><text fill="none" stroke="rgb(0,0,0)" font-family="helvetica" font-size="13px" font-style="normal" font-weight="normal" text-decoration="normal" x="0" y="4.5" text-anchor="start" dominant-baseline="alphabetic" transform="matrix(1, 0, 0, 1, 377.5, 273.5)" stroke-opacity="0" stroke-linejoin="bevel" stroke-miterlimit="10">felyx (24057)</text></g><path fill="rgb(222,68,58)" stroke="rgb(255,255,255)" paint-order="fill" d="M 354.5 288.5 L 370.5 288.5 L 370.5 304.5 L 354.5 304.5 L 354.5 288.5 Z" fill-opacity="1" clip-path="url(#KvuiSmDhgmhO)" stroke-opacity="1" stroke-linejoin="bevel" stroke-miterlimit="10"/><g clip-path="url(#KvuiSmDhgmhO)"><text fill="rgb(68,68,68)" stroke="none" font-family="helvetica" font-size="13px" font-style="normal" font-weight="normal" text-decoration="normal" x="0" y="4.5" text-anchor="start" dominant-baseline="alphabetic" transform="matrix(1, 0, 0, 1, 377.5, 296.5)" fill-opacity="1">gosharing (33098)</text></g><g clip-path="url(#KvuiSmDhgmhO)"><text fill="none" stroke="rgb(0,0,0)" font-family="helvetica" font-size="13px" font-style="normal" font-weight="normal" text-decoration="normal" x="0" y="4.5" text-anchor="start" dominant-baseline="alphabetic" transform="matrix(1, 0, 0, 1, 377.5, 296.5)" stroke-opacity="0" stroke-linejoin="bevel" stroke-miterlimit="10">gosharing (33098)</text></g><path fill="rgb(101,222,58)" stroke="rgb(255,255,255)" paint-order="fill" d="M 354.5 311.5 L 370.5 311.5 L 370.5 327.5 L 354.5 327.5 L 354.5 311.5 Z" fill-opacity="1" clip-path="url(#KvuiSmDhgmhO)" stroke-opacity="1" stroke-linejoin="bevel" stroke-miterlimit="10"/><g clip-path="url(#KvuiSmDhgmhO)"><text fill="rgb(68,68,68)" stroke="none" font-family="helvetica" font-size="13px" font-style="normal" font-weight="normal" text-decoration="normal" x="0" y="4.5" text-anchor="start" dominant-baseline="alphabetic" transform="matrix(1, 0, 0, 1, 377.5, 319.5)" fill-opacity="1">lime (14310)</text></g><g clip-path="url(#KvuiSmDhgmhO)"><text fill="none" stroke="rgb(0,0,0)" font-family="helvetica" font-size="13px" font-style="normal" font-weight="normal" text-decoration="normal" x="0" y="4.5" text-anchor="start" dominant-baseline="alphabetic" transform="matrix(1, 0, 0, 1, 377.5, 319.5)" stroke-opacity="0" stroke-linejoin="bevel" stroke-miterlimit="10">lime (14310)</text></g></svg>