<svg version="1.1" xmlns="http://www.w3.org/2000/svg" width="200" height="200"><defs><clipPath id="mMcryFzTvaFI"><path fill="none" stroke="none" d="M 0.5 0.5 L 200.5 0.5 L 200.5 200.5 L 0.5 200.5 L 0.5 0.5 Z M 70.5 5.5 L 170.5 5.5 L 170.5 178.5 L 70.5 178.5 L 70.5 5.5 Z" clip-rule="evenodd"/></clipPath><clipPath id="rutDRbtFrLDi"><path fill="none" stroke="none" d="M 70.5 5.5 L 170.5 5.5 L 170.5 178.5 L 70.5 178.5 L 70.5 5.5 Z"/></clipPath><clipPath id="mwFWlpaPTJed"><path fill="none" stroke="none" d="M 70.5 5.5 L 170.5 5.5 L 170.5 178.5 L 70.5 178.5 L 70.5 5.5 Z"/></clipPath><clipPath id="cDJWtTgbmprr"><path fill="none" stroke="none" d="M 70.5 5.5 L 170.5 5.5 L 170.5 178.5 L 70.5 178.5 L 70.5 5.5 Z"/></clipPath><clipPath id="PJIvsrcOyVDr"><path fill="none" stroke="none" d="M 70.5 5.5 L 170.5 5.5 L 170.5 178.5 L 70.5 178.5 L 70.5 5.5 Z"/></clipPath></defs><path fill="rgb(255,255,255)" stroke="none" paint-order="stroke" d="M 0.5 0.5 L 200.5 0.5 L 200.5 200.5 L 0.5 200.5 L 0.5 0.5 Z" fill-opacity="1" clip-path="url(#mMcryFzTvaFI)"/><path fill="rgb(255,255,255)" stroke="none" paint-order="stroke" d="M 70.5 5.5 L 170.5 5.5 L 170.5 178.5 L 70.5 178.5 L 70.5 5.5 Z" fill-opacity="1"/><path fill="none" stroke="rgb(229,229,229)" paint-order="fill" d="M 70.5 5.5 L 170.5 5.5 L 170.5 178.5 L 70.5 178.5 L 70.5 5.5 Z" stroke-opacity="1" stroke-linejoin="bevel" stroke-miterlimit="10"/><path fill="none" stroke="rgb(229,229,229)" paint-order="fill" d="M 75.5 178.5 L 75.5 5.5 M 99.5 178.5 L 99.5 5.5 M 123.5 178.5 L 123.5 5.5 M 147.5 178.5 L 147.5 5.5" stroke-opacity="1" stroke-linejoin="bevel" stroke-miterlimit="10" clip-path="url(#rutDRbtFrLDi)"/><path fill="none" stroke="rgb(229,229,229)" paint-order="fill" d="M 70.5 166.5 L 170.5 166.5 M 70.5 141.5 L 170.5 141.5 M 70.5 116.5 L 170.5 116.5 M 70.5 92.5 L 170.5 92.5 M 70.5 67.5 L 170.5 67.5 M 70.5 42.5 L 170.5 42.5 M 70.5 17.5 L 170.5 17.5" stroke-opacity="1" stroke-linejoin="bevel" stroke-miterlimit="10" clip-path="url(#mwFWlpaPTJed)"/><path fill="rgb(248,169,49)" stroke="rgb(248,169,49)" paint-order="fill" d="M 75.04545593261719 155.02142333984375 L 87.68437194824219 155.02142333984375 L 87.68437194824219 177.2642822265625 L 75.04545593261719 177.2642822265625 L 75.04545593261719 155.02142333984375 Z" fill-opacity="1" clip-path="url(#cDJWtTgbmprr)" stroke-opacity="1" stroke-linejoin="bevel" stroke-miterlimit="10"/><path fill="rgb(192,204,205)" stroke="rgb(192,204,205)" paint-order="fill" d="M 75.04545593261719 130.30714416503906 L 80.43217468261719 130.30714416503906 L 80.43217468261719 152.5500030517578 L 75.04545593261719 152.5500030517578 L 75.04545593261719 130.30714416503906 Z" fill-opacity="1" clip-path="url(#cDJWtTgbmprr)" stroke-opacity="1" stroke-linejoin="bevel" stroke-miterlimit="10"/><path fill="rgb(67,186,195)" stroke="rgb(67,186,195)" paint-order="fill" d="M 75.04545593261719 105.59285736083984 L 165.9545440673828 105.59285736083984 L 165.9545440673828 127.8357162475586 L 75.04545593261719 127.8357162475586 L 75.04545593261719 105.59285736083984 Z" fill-opacity="1" clip-path="url(#cDJWtTgbmprr)" stroke-opacity="1" stroke-linejoin="bevel" stroke-miterlimit="10"/><path fill="rgb(49,49,61)" stroke="rgb(49,49,61)" paint-order="fill" d="M 75.04545593261719 80.87857055664062 L 140.61163330078125 80.87857055664062 L 140.61163330078125 103.12142944335938 L 75.04545593261719 103.12142944335938 L 75.04545593261719 80.87857055664062 Z" fill-opacity="1" clip-path="url(#cDJWtTgbmprr)" stroke-opacity="1" stroke-linejoin="bevel" stroke-miterlimit="10"/><path fill="rgb(248,169,49)" stroke="rgb(248,169,49)" paint-order="fill" d="M 75.04545593261719 56.164283752441406 L 133.02684020996094 56.164283752441406 L 133.02684020996094 78.40714263916016 L 75.04545593261719 78.40714263916016 L 75.04545593261719 56.164283752441406 Z" fill-opacity="1" clip-path="url(#cDJWtTgbmprr)" stroke-opacity="1" stroke-linejoin="bevel" stroke-miterlimit="10"/><path fill="rgb(192,204,205)" stroke="rgb(192,204,205)" paint-order="fill" d="M 75.04545593261719 31.450000762939453 L 154.81716918945312 31.450000762939453 L 154.81716918945312 53.6928596496582 L 75.04545593261719 53.6928596496582 L 75.04545593261719 31.450000762939453 Z" fill-opacity="1" clip-path="url(#cDJWtTgbmprr)" stroke-opacity="1" stroke-linejoin="bevel" stroke-miterlimit="10"/><path fill="rgb(67,186,195)" stroke="rgb(67,186,195)" paint-order="fill" d="M 75.04545593261719 6.735714912414551 L 109.53494262695312 6.735714912414551 L 109.53494262695312 28.978572845458984 L 75.04545593261719 28.978572845458984 L 75.04545593261719 6.735714912414551 Z" fill-opacity="1" clip-path="url(#cDJWtTgbmprr)" stroke-opacity="1" stroke-linejoin="bevel" stroke-miterlimit="10"/><path fill="none" stroke="rgb(0,0,0)" paint-order="fill" d="M 70.5 178.5 L 170.5 178.5" stroke-opacity="1" stroke-linejoin="bevel" stroke-miterlimit="10"/><path fill="none" stroke="rgb(0,0,0)" paint-order="fill" d="M 75.5 184.5 L 75.5 176.5 M 99.5 184.5 L 99.5 176.5 M 123.5 184.5 L 123.5 176.5 M 147.5 184.5 L 147.5 176.5" stroke-opacity="1" stroke-linejoin="bevel" stroke-miterlimit="10"/><path fill="none" stroke="rgb(0,0,0)" paint-order="fill" d="M 75.5 182.5 L 75.5 178.5 M 79.5 182.5 L 79.5 178.5 M 84.5 182.5 L 84.5 178.5 M 89.5 182.5 L 89.5 178.5 M 94.5 182.5 L 94.5 178.5 M 99.5 182.5 L 99.5 178.5 M 103.5 182.5 L 103.5 178.5 M 108.5 182.5 L 108.5 178.5 M 113.5 182.5 L 113.5 178.5 M 118.5 182.5 L 118.5 178.5 M 123.5 182.5 L 123.5 178.5 M 128.5 182.5 L 128.5 178.5 M 132.5 182.5 L 132.5 178.5 M 137.5 182.5 L 137.5 178.5 M 142.5 182.5 L 142.5 178.5 M 147.5 182.5 L 147.5 178.5 M 152.5 182.5 L 152.5 178.5 M 156.5 182.5 L 156.5 178.5 M 161.5 182.5 L 161.5 178.5 M 166.5 182.5 L 166.5 178.5" stroke-opacity="1" stroke-linejoin="bevel" stroke-miterlimit="10"/><text fill="rgb(68,68,68)" stroke="none" font-family="helvetica" font-size="11px" font-style="normal" font-weight="normal" text-decoration="normal" x="71.04545593261719" y="197" text-anchor="start" dominant-baseline="alphabetic" transform="matrix(1, 0, 0, 1, 0.5, 0.5)" fill-opacity="1">0</text><text fill="none" stroke="rgb(0,0,0)" font-family="helvetica" font-size="11px" font-style="normal" font-weight="normal" text-decoration="normal" x="71.04545593261719" y="197" text-anchor="start" dominant-baseline="alphabetic" transform="matrix(1, 0, 0, 1, 0.5, 0.5)" stroke-opacity="0" stroke-linejoin="bevel" stroke-miterlimit="10">0</text><text fill="rgb(68,68,68)" stroke="none" font-family="helvetica" font-size="11px" font-style="normal" font-weight="normal" text-decoration="normal" x="81.14712524414062" y="197" text-anchor="start" dominant-baseline="alphabetic" transform="matrix(1, 0, 0, 1, 0.5, 0.5)" fill-opacity="1">10000</text><text fill="none" stroke="rgb(0,0,0)" font-family="helvetica" font-size="11px" font-style="normal" font-weight="normal" text-decoration="normal" x="81.14712524414062" y="197" text-anchor="start" dominant-baseline="alphabetic" transform="matrix(1, 0, 0, 1, 0.5, 0.5)" stroke-opacity="0" stroke-linejoin="bevel" stroke-miterlimit="10">10000</text><text fill="rgb(68,68,68)" stroke="none" font-family="helvetica" font-size="11px" font-style="normal" font-weight="normal" text-decoration="normal" x="105.24879455566406" y="197" text-anchor="start" dominant-baseline="alphabetic" transform="matrix(1, 0, 0, 1, 0.5, 0.5)" fill-opacity="1">20000</text><text fill="none" stroke="rgb(0,0,0)" font-family="helvetica" font-size="11px" font-style="normal" font-weight="normal" text-decoration="normal" x="105.24879455566406" y="197" text-anchor="start" dominant-baseline="alphabetic" transform="matrix(1, 0, 0, 1, 0.5, 0.5)" stroke-opacity="0" stroke-linejoin="bevel" stroke-miterlimit="10">20000</text><text fill="rgb(68,68,68)" stroke="none" font-family="helvetica" font-size="11px" font-style="normal" font-weight="normal" text-decoration="normal" x="129.3504638671875" y="197" text-anchor="start" dominant-baseline="alphabetic" transform="matrix(1, 0, 0, 1, 0.5, 0.5)" fill-opacity="1">30000</text><text fill="none" stroke="rgb(0,0,0)" font-family="helvetica" font-size="11px" font-style="normal" font-weight="normal" text-decoration="normal" x="129.3504638671875" y="197" text-anchor="start" dominant-baseline="alphabetic" transform="matrix(1, 0, 0, 1, 0.5, 0.5)" stroke-opacity="0" stroke-linejoin="bevel" stroke-miterlimit="10">30000</text><path fill="none" stroke="rgb(0,0,0)" paint-order="fill" d="M 70.5 178.5 L 70.5 5.5" stroke-opacity="1" stroke-linejoin="bevel" stroke-miterlimit="10"/><path fill="none" stroke="rgb(0,0,0)" paint-order="fill" d="M 64.5 166.5 L 72.5 166.5 M 64.5 141.5 L 72.5 141.5 M 64.5 116.5 L 72.5 116.5 M 64.5 92.5 L 72.5 92.5 M 64.5 67.5 L 72.5 67.5 M 64.5 42.5 L 72.5 42.5 M 64.5 17.5 L 72.5 17.5" stroke-opacity="1" stroke-linejoin="bevel" stroke-miterlimit="10"/><path fill="none" stroke="rgb(0,0,0)" paint-order="fill" d="" stroke-opacity="1" stroke-linejoin="bevel" stroke-miterlimit="10"/><text fill="rgb(68,68,68)" stroke="none" font-family="helvetica" font-size="11px" font-style="normal" font-weight="normal" text-decoration="normal" x="20" y="169.14285278320312" text-anchor="start" dominant-baseline="alphabetic" transform="matrix(1, 0, 0, 1, 0.5, 0.5)" fill-opacity="1">baqme</text><text fill="none" stroke="rgb(0,0,0)" font-family="helvetica" font-size="11px" font-style="normal" font-weight="normal" text-decoration="normal" x="20" y="169.14285278320312" text-anchor="start" dominant-baseline="alphabetic" transform="matrix(1, 0, 0, 1, 0.5, 0.5)" stroke-opacity="0" stroke-linejoin="bevel" stroke-miterlimit="10">baqme</text><text fill="rgb(68,68,68)" stroke="none" font-family="helvetica" font-size="11px" font-style="normal" font-weight="normal" text-decoration="normal" x="8" y="144.42857360839844" text-anchor="start" dominant-baseline="alphabetic" transform="matrix(1, 0, 0, 1, 0.5, 0.5)" fill-opacity="1">cargoroo</text><text fill="none" stroke="rgb(0,0,0)" font-family="helvetica" font-size="11px" font-style="normal" font-weight="normal" text-decoration="normal" x="8" y="144.42857360839844" text-anchor="start" dominant-baseline="alphabetic" transform="matrix(1, 0, 0, 1, 0.5, 0.5)" stroke-opacity="0" stroke-linejoin="bevel" stroke-miterlimit="10">cargoroo</text><text fill="rgb(68,68,68)" stroke="none" font-family="helvetica" font-size="11px" font-style="normal" font-weight="normal" text-decoration="normal" x="27" y="119.71428680419922" text-anchor="start" dominant-baseline="alphabetic" transform="matrix(1, 0, 0, 1, 0.5, 0.5)" fill-opacity="1">check</text><text fill="none" stroke="rgb(0,0,0)" font-family="helvetica" font-size="11px" font-style="normal" font-weight="normal" text-decoration="normal" x="27" y="119.71428680419922" text-anchor="start" dominant-baseline="alphabetic" transform="matrix(1, 0, 0, 1, 0.5, 0.5)" stroke-opacity="0" stroke-linejoin="bevel" stroke-miterlimit="10">check</text><text fill="rgb(68,68,68)" stroke="none" font-family="helvetica" font-size="11px" font-style="normal" font-weight="normal" text-decoration="normal" x="18" y="95" text-anchor="start" dominant-baseline="alphabetic" transform="matrix(1, 0, 0, 1, 0.5, 0.5)" fill-opacity="1">donkey</text><text fill="none" stroke="rgb(0,0,0)" font-family="helvetica" font-size="11px" font-style="normal" font-weight="normal" text-decoration="normal" x="18" y="95" text-anchor="start" dominant-baseline="alphabetic" transform="matrix(1, 0, 0, 1, 0.5, 0.5)" stroke-opacity="0" stroke-linejoin="bevel" stroke-miterlimit="10">donkey</text><text fill="rgb(68,68,68)" stroke="none" font-family="helvetica" font-size="11px" font-style="normal" font-weight="normal" text-decoration="normal" x="31" y="70.28571319580078" text-anchor="start" dominant-baseline="alphabetic" transform="matrix(1, 0, 0, 1, 0.5, 0.5)" fill-opacity="1">felyx</text><text fill="none" stroke="rgb(0,0,0)" font-family="helvetica" font-size="11px" font-style="normal" font-weight="normal" text-decoration="normal" x="31" y="70.28571319580078" text-anchor="start" dominant-baseline="alphabetic" transform="matrix(1, 0, 0, 1, 0.5, 0.5)" stroke-opacity="0" stroke-linejoin="bevel" stroke-miterlimit="10">felyx</text><text fill="rgb(68,68,68)" stroke="none" font-family="helvetica" font-size="11px" font-style="normal" font-weight="normal" text-decoration="normal" x="3" y="45.57143020629883" text-anchor="start" dominant-baseline="alphabetic" transform="matrix(1, 0, 0, 1, 0.5, 0.5)" fill-opacity="1">gosharing</text><text fill="none" stroke="rgb(0,0,0)" font-family="helvetica" font-size="11px" font-style="normal" font-weight="normal" text-decoration="normal" x="3" y="45.57143020629883" text-anchor="start" dominant-baseline="alphabetic" transform="matrix(1, 0, 0, 1, 0.5, 0.5)" stroke-opacity="0" stroke-linejoin="bevel" stroke-miterlimit="10">gosharing</text><text fill="rgb(68,68,68)" stroke="none" font-family="helvetica" font-size="11px" font-style="normal" font-weight="normal" text-decoration="normal" x="35" y="20.85714340209961" text-anchor="start" dominant-baseline="alphabetic" transform="matrix(1, 0, 0, 1, 0.5, 0.5)" fill-opacity="1">lime</text><text fill="none" stroke="rgb(0,0,0)" font-family="helvetica" font-size="11px" font-style="normal" font-weight="normal" text-decoration="normal" x="35" y="20.85714340209961" text-anchor="start" dominant-baseline="alphabetic" transform="matrix(1, 0, 0, 1, 0.5, 0.5)" stroke-opacity="0" stroke-linejoin="bevel" stroke-miterlimit="10">lime</text></svg>