<svg version="1.1" xmlns="http://www.w3.org/2000/svg" width="270" height="190"><defs><clipPath id="NpbJHTzOOdiC"><path fill="none" stroke="none" d="M 65.5 5.5 L 240.5 5.5 L 240.5 140.5 L 65.5 140.5 L 65.5 5.5 Z"/></clipPath><clipPath id="ntQlSoNpgyEE"><path fill="none" stroke="none" d="M 65.5 5.5 L 240.5 5.5 L 240.5 140.5 L 65.5 140.5 L 65.5 5.5 Z"/></clipPath><clipPath id="gOsoXuSZWNfG"><path fill="none" stroke="none" d="M 65.5 5.5 L 240.5 5.5 L 240.5 140.5 L 65.5 140.5 L 65.5 5.5 Z"/></clipPath><clipPath id="erfDbqNBVWCA"><path fill="none" stroke="none" d="M 65.5 5.5 L 240.5 5.5 L 240.5 140.5 L 65.5 140.5 L 65.5 5.5 Z"/></clipPath><clipPath id="uuQxTlxmzlbc"><path fill="none" stroke="none" d="M 65.5 5.5 L 240.5 5.5 L 240.5 140.5 L 65.5 140.5 L 65.5 5.5 Z"/></clipPath></defs><path fill="none" stroke="rgb(229,229,229)" paint-order="fill" d="M 65.5 5.5 L 240.5 5.5 L 240.5 140.5 L 65.5 140.5 L 65.5 5.5 Z" stroke-opacity="1" stroke-linejoin="bevel" stroke-miterlimit="10"/><path fill="none" stroke="rgb(229,229,229)" paint-order="fill" d="M 109.5 140.5 L 109.5 5.5 M 196.5 140.5 L 196.5 5.5" stroke-opacity="1" stroke-linejoin="bevel" stroke-miterlimit="10" clip-path="url(#NpbJHTzOOdiC)"/><path fill="none" stroke="rgb(229,229,229)" paint-order="fill" d="M 65.5 134.5 L 240.5 134.5 M 65.5 100.5 L 240.5 100.5 M 65.5 66.5 L 240.5 66.5 M 65.5 32.5 L 240.5 32.5" stroke-opacity="1" stroke-linejoin="bevel" stroke-miterlimit="10" clip-path="url(#ntQlSoNpgyEE)"/><path fill="rgb(248,169,49)" stroke="rgb(248,169,49)" paint-order="fill" d="M 69.875 11.636363983154297 L 148.625 11.636363983154297 L 148.625 134.36363220214844 L 69.875 134.36363220214844 L 69.875 11.636363983154297 Z" fill-opacity="1" clip-path="url(#gOsoXuSZWNfG)" stroke-opacity="1" stroke-linejoin="bevel" stroke-miterlimit="10"/><path fill="rgb(192,204,205)" stroke="rgb(192,204,205)" paint-order="fill" d="M 157.375 14.257319450378418 L 236.125 14.257319450378418 L 236.125 134.36363220214844 L 157.375 134.36363220214844 L 157.375 14.257319450378418 Z" fill-opacity="1" clip-path="url(#gOsoXuSZWNfG)" stroke-opacity="1" stroke-linejoin="bevel" stroke-miterlimit="10"/><g clip-path="url(#erfDbqNBVWCA)"><text fill="rgb(10,26,41)" stroke="none" font-family="helvetica" font-size="8px" font-style="normal" font-weight="normal" text-decoration="normal" x="108.75" y="31.136363983154297" text-anchor="start" dominant-baseline="alphabetic" transform="matrix(1, 0, 0, 1, 0.5, 0.5)" fill-opacity="1">1807.46</text></g><g clip-path="url(#erfDbqNBVWCA)"><text fill="none" stroke="rgb(0,0,0)" font-family="helvetica" font-size="8px" font-style="normal" font-weight="normal" text-decoration="normal" x="108.75" y="31.136363983154297" text-anchor="start" dominant-baseline="alphabetic" transform="matrix(1, 0, 0, 1, 0.5, 0.5)" stroke-opacity="0" stroke-miterlimit="10" stroke-dasharray="">1807.46</text></g><g clip-path="url(#erfDbqNBVWCA)"><text fill="rgb(10,26,41)" stroke="none" font-family="helvetica" font-size="8px" font-style="normal" font-weight="normal" text-decoration="normal" x="196.25" y="33.75731945037842" text-anchor="start" dominant-baseline="alphabetic" transform="matrix(1, 0, 0, 1, 0.5, 0.5)" fill-opacity="1">1768.86</text></g><g clip-path="url(#erfDbqNBVWCA)"><text fill="none" stroke="rgb(0,0,0)" font-family="helvetica" font-size="8px" font-style="normal" font-weight="normal" text-decoration="normal" x="196.25" y="33.75731945037842" text-anchor="start" dominant-baseline="alphabetic" transform="matrix(1, 0, 0, 1, 0.5, 0.5)" stroke-opacity="0" stroke-miterlimit="10" stroke-dasharray="">1768.86</text></g><path fill="none" stroke="rgb(0,0,0)" paint-order="fill" d="M 65.5 140.5 L 240.5 140.5" stroke-opacity="1" stroke-linejoin="bevel" stroke-miterlimit="10"/><path fill="none" stroke="rgb(0,0,0)" paint-order="fill" d="M 109.5 146.5 L 109.5 138.5 M 196.5 146.5 L 196.5 138.5" stroke-opacity="1" stroke-linejoin="bevel" stroke-miterlimit="10"/><path fill="none" stroke="rgb(0,0,0)" paint-order="fill" d="" stroke-opacity="1" stroke-linejoin="bevel" stroke-miterlimit="10"/><text fill="rgb(68,68,68)" stroke="none" font-family="helvetica" font-size="11px" font-style="normal" font-weight="normal" text-decoration="normal" x="89.25" y="161" text-anchor="start" dominant-baseline="alphabetic" transform="matrix(1, 0, 0, 1, 0.5, 0.5)" fill-opacity="1">bicycle</text><text fill="none" stroke="rgb(0,0,0)" font-family="helvetica" font-size="11px" font-style="normal" font-weight="normal" text-decoration="normal" x="89.25" y="161" text-anchor="start" dominant-baseline="alphabetic" transform="matrix(1, 0, 0, 1, 0.5, 0.5)" stroke-opacity="0" stroke-linejoin="bevel" stroke-miterlimit="10">bicycle</text><text fill="rgb(68,68,68)" stroke="none" font-family="helvetica" font-size="11px" font-style="normal" font-weight="normal" text-decoration="normal" x="176.75" y="161" text-anchor="start" dominant-baseline="alphabetic" transform="matrix(1, 0, 0, 1, 0.5, 0.5)" fill-opacity="1">moped</text><text fill="none" stroke="rgb(0,0,0)" font-family="helvetica" font-size="11px" font-style="normal" font-weight="normal" text-decoration="normal" x="176.75" y="161" text-anchor="start" dominant-baseline="alphabetic" transform="matrix(1, 0, 0, 1, 0.5, 0.5)" stroke-opacity="0" stroke-linejoin="bevel" stroke-miterlimit="10">moped</text><text fill="rgb(10,26,41)" stroke="none" font-family="Poppins" font-size="13px" font-style="italic" font-weight="normal" text-decoration="normal" x="105.5" y="184" text-anchor="start" dominant-baseline="alphabetic" transform="matrix(1, 0, 0, 1, 0.5, 0.5)" fill-opacity="1">Voertuig types</text><text fill="none" stroke="rgb(0,0,0)" font-family="Poppins" font-size="13px" font-style="italic" font-weight="normal" text-decoration="normal" x="105.5" y="184" text-anchor="start" dominant-baseline="alphabetic" transform="matrix(1, 0, 0, 1, 0.5, 0.5)" stroke-opacity="0" stroke-linejoin="bevel" stroke-miterlimit="10">Voertuig types</text><path fill="none" stroke="rgb(0,0,0)" paint-order="fill" d="M 65.5 140.5 L 65.5 5.5" stroke-opacity="1" stroke-linejoin="bevel" stroke-miterlimit="10"/><path fill="none" stroke="rgb(0,0,0)" paint-order="fill" d="M 59.5 134.5 L 67.5 134.5 M 59.5 100.5 L 67.5 100.5 M 59.5 66.5 L 67.5 66.5 M 59.5 32.5 L 67.5 32.5" stroke-opacity="1" stroke-linejoin="bevel" stroke-miterlimit="10"/><path fill="none" stroke="rgb(0,0,0)" paint-order="fill" d="M 61.5 134.5 L 65.5 134.5 M 61.5 127.5 L 65.5 127.5 M 61.5 120.5 L 65.5 120.5 M 61.5 113.5 L 65.5 113.5 M 61.5 107.5 L 65.5 107.5 M 61.5 100.5 L 65.5 100.5 M 61.5 93.5 L 65.5 93.5 M 61.5 86.5 L 65.5 86.5 M 61.5 80.5 L 65.5 80.5 M 61.5 73.5 L 65.5 73.5 M 61.5 66.5 L 65.5 66.5 M 61.5 59.5 L 65.5 59.5 M 61.5 52.5 L 65.5 52.5 M 61.5 46.5 L 65.5 46.5 M 61.5 39.5 L 65.5 39.5 M 61.5 32.5 L 65.5 32.5 M 61.5 25.5 L 65.5 25.5 M 61.5 18.5 L 65.5 18.5 M 61.5 12.5 L 65.5 12.5" stroke-opacity="1" stroke-linejoin="bevel" stroke-miterlimit="10"/><text fill="rgb(68,68,68)" stroke="none" font-family="helvetica" font-size="11px" font-style="normal" font-weight="normal" text-decoration="normal" x="47" y="137.86363220214844" text-anchor="start" dominant-baseline="alphabetic" transform="matrix(1, 0, 0, 1, 0.5, 0.5)" fill-opacity="1">0</text><text fill="none" stroke="rgb(0,0,0)" font-family="helvetica" font-size="11px" font-style="normal" font-weight="normal" text-decoration="normal" x="47" y="137.86363220214844" text-anchor="start" dominant-baseline="alphabetic" transform="matrix(1, 0, 0, 1, 0.5, 0.5)" stroke-opacity="0" stroke-linejoin="bevel" stroke-miterlimit="10">0</text><text fill="rgb(68,68,68)" stroke="none" font-family="helvetica" font-size="11px" font-style="normal" font-weight="normal" text-decoration="normal" x="33" y="103.9134292602539" text-anchor="start" dominant-baseline="alphabetic" transform="matrix(1, 0, 0, 1, 0.5, 0.5)" fill-opacity="1">500</text><text fill="none" stroke="rgb(0,0,0)" font-family="helvetica" font-size="11px" font-style="normal" font-weight="normal" text-decoration="normal" x="33" y="103.9134292602539" text-anchor="start" dominant-baseline="alphabetic" transform="matrix(1, 0, 0, 1, 0.5, 0.5)" stroke-opacity="0" stroke-linejoin="bevel" stroke-miterlimit="10">500</text><text fill="rgb(68,68,68)" stroke="none" font-family="helvetica" font-size="11px" font-style="normal" font-weight="normal" text-decoration="normal" x="26" y="69.96322631835938" text-anchor="start" dominant-baseline="alphabetic" transform="matrix(1, 0, 0, 1, 0.5, 0.5)" fill-opacity="1">1000</text><text fill="none" stroke="rgb(0,0,0)" font-family="helvetica" font-size="11px" font-style="normal" font-weight="normal" text-decoration="normal" x="26" y="69.96322631835938" text-anchor="start" dominant-baseline="alphabetic" transform="matrix(1, 0, 0, 1, 0.5, 0.5)" stroke-opacity="0" stroke-linejoin="bevel" stroke-miterlimit="10">1000</text><text fill="rgb(68,68,68)" stroke="none" font-family="helvetica" font-size="11px" font-style="normal" font-weight="normal" text-decoration="normal" x="26" y="36.013023376464844" text-anchor="start" dominant-baseline="alphabetic" transform="matrix(1, 0, 0, 1, 0.5, 0.5)" fill-opacity="1">1500</text><text fill="none" stroke="rgb(0,0,0)" font-family="helvetica" font-size="11px" font-style="normal" font-weight="normal" text-decoration="normal" x="26" y="36.013023376464844" text-anchor="start" dominant-baseline="alphabetic" transform="matrix(1, 0, 0, 1, 0.5, 0.5)" stroke-opacity="0" stroke-linejoin="bevel" stroke-miterlimit="10">1500</text><text fill="rgb(10,26,41)" stroke="none" font-family="Poppins" font-size="13px" font-style="italic" font-weight="normal" text-decoration="normal" x="-20.5" y="69.5" text-anchor="start" dominant-baseline="alphabetic" transform="matrix(6.123233995736766e-17, -1, 1, 6.123233995736766e-17, -54, 91)" fill-opacity="1">Afstand (m)</text><text fill="none" stroke="rgb(0,0,0)" font-family="Poppins" font-size="13px" font-style="italic" font-weight="normal" text-decoration="normal" x="-20.5" y="69.5" text-anchor="start" dominant-baseline="alphabetic" transform="matrix(6.123233995736766e-17, -1, 1, 6.123233995736766e-17, -54, 91)" stroke-opacity="0" stroke-linejoin="bevel" stroke-miterlimit="10">Afstand (m)</text></svg>